<svg width="72" height="72" viewBox="0 0 72 72" xmlns="http://www.w3.org/2000/svg" xmlns:sketch="http://www.bohemiancoding.com/sketch/ns"><title>box-icon-sup-coverage-lte</title><path d="M65.744 34.933l-1.109 1.473-1.268.225-.106 2.188-.739.987-2.958-.731-1.004 3.82-.792.46-2.852.845 1.32 3.559-1.004.51.053 1.148-.845-.303-.739-.709-2.218-.169-2.43-.068-.528.17-2.06-.816-.845.409-.211 1.184-2.43-.709-.951.304-.37.875-.792.335-1.954 1.398-.634 1.382h-.581l-.37-.92-1.901-.066-.264-1.593h-.739l.106-2.021-1.743-1.434-2.535.137-1.69.274-1.426-1.828-1.162-.767-2.271-1.514-.317-.177-3.75 1.236.053 7.424-.739.099-1.056-1.529-.951-.57-1.69.402-.634.668-.106-.467.37-.805-.264-.742-1.69-.679-.687-1.817-.792-.519-.053-.661 1.426.209.053-1.507 1.215-.353 1.32.353.264-2.063-.264-1.336-1.479.073-1.268-.509-1.69.944-1.373.433-.739-.325.158-1.125-.951-1.431-1.056.074-1.268-1.448.845-1.733-.423-.456 1.162-2.506 1.532 1.357.158-1.708 3.063-2.533 2.271-.08 3.222 1.631 1.743.983 1.585-.983 2.324-.079 1.849 1.179.423-.666 2.06.079.37-1.066-2.377-1.639 1.426-1.175-.264-.654 1.373-.617-1.056-1.704.687-.842 5.493-.891.687-.598 3.697-.947 1.32-1.044 2.641.523.475 2.619 1.532-.595 1.849.849-.106 1.344 1.426-.125 3.644-2.367-.581.809 1.901 1.933 3.222 6.069.845-1.226 2.007 1.344 2.113-.631.845.473.687 1.291 1.004.504.634.925 1.901-.308.792 1.377zm-29.919 1.067v-1.62h-2.824v-1.3l2.901-4.08h1.212v4.21h.887v1.17h-.887v1.62h-1.288zm8.271-.15l-.145-.759c-.253.337-.534.573-.842.707-.308.134-.618.201-.932.201-.495 0-.94-.089-1.335-.267-.395-.178-.729-.423-1-.736-.271-.312-.48-.679-.624-1.101-.145-.422-.217-.876-.217-1.363 0-.5.072-.964.217-1.392.145-.428.353-.801.624-1.12.271-.319.605-.568 1-.75.395-.181.84-.272 1.335-.272.332 0 .653.052.964.155.311.103.591.255.842.454.25.2.457.447.62.74.163.294.262.631.299 1.012h-1.357c-.084-.375-.247-.656-.489-.843-.241-.187-.534-.281-.878-.281-.32 0-.591.064-.814.192-.223.128-.404.3-.543.515-.139.216-.24.461-.303.736-.063.275-.095.559-.095.853 0 .281.032.554.095.82.063.266.164.504.303.717.139.212.32.383.543.511.223.128.495.192.814.192.471 0 .834-.123 1.09-.37.256-.247.406-.604.448-1.073h-1.43v-1.096h2.715v3.617h-.905zm-11.095 7.15v-5h1.244v4.076h2.756v.924h-4zm5.463 0v-4.076h-1.463v-.924h4v.924h-1.463v4.076h-1.074zm2.537 0v-5h3.941v.924h-2.782v1.071h2.554v.854h-2.554v1.225h2.841v.924h-4zm-5-10v-2h-.033l-1.967 2h2z" sketch:type="MSShapeGroup" fill="#D4D8D9"/></svg>