<?xml version="1.0" encoding="UTF-8" standalone="no"?>
<svg width="72px" height="72px" viewBox="0 0 72 72" version="1.1" xmlns="http://www.w3.org/2000/svg" xmlns:xlink="http://www.w3.org/1999/xlink" xmlns:sketch="http://www.bohemiancoding.com/sketch/ns">
    <title>box-icon-payment-history</title>
    <description>Created with Sketch (http://www.bohemiancoding.com/sketch)</description>
    <defs></defs>
    <g id="Page-1" stroke="none" stroke-width="1" fill="none" fill-rule="evenodd" sketch:type="MSPage">
        <g id="box-icon-payment-history" sketch:type="MSArtboardGroup" fill="#D4D8D9">
            <path d="M23,24 C23,22.343 21.657,21 20,21 L14.782,21 C19.488,14.349 27.23,10 36,10 C50.359,10 62,21.642 62,36 C62,50.359 50.359,62 36,62 C21.641,62 10,50.359 10,36 C10,34.343 8.657,33 7,33 C5.343,33 4,34.343 4,36 C4,53.673 18.327,68 36,68 C53.673,68 68,53.673 68,36 C68,18.327 53.673,4 36,4 C25.275,4 15.801,9.288 10,17.39 L10,12 C10,10.343 8.657,9 7,9 C5.343,9 4,10.343 4,12 L4,24 C4,25.657 5.343,27 7,27 L20,27 C21.657,27 23,25.657 23,24 Z M48,41 L35,41 C33.343,41 32,39.657 32,38 L32,20 C32,18.343 33.343,17 35,17 C36.657,17 38,18.343 38,20 L38,35 L48,35 C49.657,35 51,36.343 51,38 C51,39.657 49.657,41 48,41 Z" id="history" sketch:type="MSShapeGroup"></path>
        </g>
    </g>
</svg>