<?xml version="1.0" encoding="UTF-8" standalone="no"?>
<svg width="72px" height="72px" viewBox="0 0 72 72" version="1.1" xmlns="http://www.w3.org/2000/svg" xmlns:xlink="http://www.w3.org/1999/xlink" xmlns:sketch="http://www.bohemiancoding.com/sketch/ns">
    <title>speech-bubble</title>
    <description>Created with Sketch (http://www.bohemiancoding.com/sketch)</description>
    <defs></defs>
    <g id="Page-1" stroke="none" stroke-width="1" fill="none" fill-rule="evenodd" sketch:type="MSPage">
        <g id="speech-bubble" sketch:type="MSArtboardGroup" fill="#D4D8D9">
            <path d="M16.4066291,18 C13.9772301,18 12,19.9573289 12,22.3625043 L12,48.6384954 C12,51.0416714 13.9772301,53 16.4066291,53 L57.5963988,53 C60.0247886,53 62,51.0416714 62,48.6384954 L62,22.3625043 C62,19.9573289 60.0247886,18 57.5963988,18 L16.4066291,18 Z M15.9333584,50 C15.4191853,50 15,49.5827338 15,49.0739979 L15,34 L59,34 L59,49.0739979 C59,49.5827338 58.5828797,50 58.0687066,50 L15.9333584,50 Z M58.0687066,21 C58.5828797,21 59,21.4042937 59,21.9038925 L59,26 L15,26 L15,21.9038925 C15,21.4042937 15.4191853,21 15.9333584,21 L58.0687066,21 Z M38.6801262,42 C38.3032597,42 38,42.4465318 38,42.9985549 C38,43.5520231 38.3032597,44 38.6801262,44 L51.3208552,44 C51.6957589,44 52,43.5520231 52,42.9985549 C52,42.4465318 51.6957589,42 51.3208552,42 L38.6801262,42 Z" id="Fill-1" sketch:type="MSShapeGroup"></path>
        </g>
    </g>
</svg>