<svg width="72" height="72" viewBox="0 0 72 72" xmlns="http://www.w3.org/2000/svg" xmlns:sketch="http://www.bohemiancoding.com/sketch/ns"><title>box-icon-mifi</title><path d="M42.865 24.032l.314.023c.628 0 1.199-.29 1.352-.718.446-1.296.674-2.621.681-3.944-.007-1.315-.229-2.626-.676-3.91-.177-.5-.922-.809-1.664-.691-.744.114-1.207.612-1.031 1.114h-.006c.403 1.141.598 2.312.597 3.487.005 1.181-.206 2.364-.608 3.524-.178.499.292.996 1.042 1.115zm12.242 8.434c.523 0 1.023-.199 1.264-.534 2.787-3.966 4.19-8.248 4.19-12.53 0-4.28-1.404-8.558-4.192-12.527-.328-.468-1.156-.665-1.847-.444-.691.215-.986.769-.662 1.232 2.612 3.72 3.916 7.724 3.916 11.738.001 4.015-1.304 8.023-3.92 11.741-.328.464-.031 1.018.668 1.237.192.059.389.086.584.086zm-5.937-5.002c.15.036.301.052.45.052.578 0 1.12-.241 1.32-.626 1.236-2.418 1.868-4.958 1.868-7.505.002-2.526-.611-5.054-1.864-7.454-.253-.482-1.044-.738-1.761-.57-.721.164-1.107.694-.853 1.18 1.138 2.197 1.708 4.518 1.706 6.846 0 2.339-.581 4.678-1.727 6.9-.251.482.134 1.014.86 1.178zm-11.17-18.881c0-1.423-1.194-2.583-2.662-2.583h-12.675c-1.47 0-2.663 1.16-2.663 2.583v54.832c0 1.427 1.193 2.584 2.663 2.584h12.675c1.468 0 2.662-1.158 2.662-2.584v-54.832zm-12.066 32.504v-1.615h-2.906v-1.296l2.985-4.067h1.247v4.197h.913v1.166h-.913v1.615h-1.325zm8.296 0l-.157-.808c-.275.359-.579.61-.913.753-.334.143-.671.214-1.011.214-.537 0-1.019-.095-1.448-.284-.429-.189-.79-.45-1.085-.783-.295-.332-.52-.723-.677-1.171-.157-.449-.236-.932-.236-1.451 0-.532.079-1.025.236-1.48.157-.455.383-.852.677-1.191.295-.339.656-.605 1.085-.798.429-.193.911-.289 1.448-.289.36 0 .709.055 1.046.164.337.11.641.271.913.484.272.213.496.475.673.788.177.312.285.671.324 1.077h-1.473c-.092-.399-.268-.698-.53-.897-.262-.199-.579-.299-.952-.299-.347 0-.641.068-.884.204-.242.136-.439.319-.589.548-.151.229-.26.49-.329.783-.069.292-.103.595-.103.907 0 .299.034.59.103.872.069.282.178.537.329.763.151.226.347.407.589.543.242.136.537.204.884.204.511 0 .905-.131 1.183-.394s.44-.643.486-1.141h-1.551v-1.166h2.945v3.848h-.982zm-10.87 6.712v-5.141h1.13v4.19h2.506v.95h-3.636zm4.745 0v-4.19h-1.541v-.95h4.212v.95h-1.541v4.19h-1.13zm3.262 0v-5.141h3.845v.95h-2.714v1.102h2.491v.878h-2.491v1.26h2.772v.95h-3.902zm-5.433-9.494v-2.423h-.029l-1.777 2.423h1.807zm1.101-24.183c0-.881.721-1.6 1.609-1.6.889 0 1.609.719 1.609 1.6 0 .884-.72 1.6-1.609 1.6-.888 0-1.609-.715-1.609-1.6zm0 5.914c0-.884.721-1.598 1.609-1.598.889 0 1.609.714 1.609 1.598 0 .883-.72 1.6-1.609 1.6-.888 0-1.609-.716-1.609-1.6zm0 5.902c0-.884.721-1.6 1.609-1.6.889 0 1.609.715 1.609 1.6 0 .882-.72 1.6-1.609 1.6-.888 0-1.609-.718-1.609-1.6z" sketch:type="MSShapeGroup" fill="#D4D8D9"/></svg>