<?xml version="1.0" encoding="UTF-8" standalone="no"?>
<svg width="72px" height="72px" viewBox="0 0 72 72" version="1.1" xmlns="http://www.w3.org/2000/svg" xmlns:xlink="http://www.w3.org/1999/xlink" xmlns:sketch="http://www.bohemiancoding.com/sketch/ns">
    <title>box-icon-xls</title>
    <description>Created with Sketch (http://www.bohemiancoding.com/sketch)</description>
    <defs></defs>
    <g id="Page-1" stroke="none" stroke-width="1" fill="none" fill-rule="evenodd" sketch:type="MSPage">
        <g id="box-icon-xls" sketch:type="MSArtboardGroup">
            <path d="M59.4748308,22.2985152 L44.6962015,6.62323557 C44.3214576,6.22627847 43.794969,6 43.2420899,6 L19.0816699,6 C15.7287684,6 13,8.67267203 13,11.9595285 L13,60.0404715 C13,63.326035 15.7287684,66 19.0816699,66 L53.9183301,66 C57.2712316,66 60,63.326035 60,60.0404715 L60,23.6148094 C60,23.1273409 59.8126281,22.6566817 59.4748308,22.2985152 L59.4748308,22.2985152 Z M54.7777778,21.6521739 L44.3333333,21.6521739 L44.3333333,11.2173913 L54.7777778,21.6521739 L54.7777778,21.6521739 Z M53.9556732,62.0869565 L19.0443268,62.0869565 C17.8714029,62.0869565 16.9166667,61.1546108 16.9166667,60.0091943 L16.9166667,11.9908057 C16.9166667,10.8453892 17.8714029,9.91304348 19.0443268,9.91304348 L41.6675431,9.91304348 L41.6675431,23.3687813 C41.6675431,23.8736943 42.7395056,24.2830483 43.2565442,24.2830483 L55.9828348,24.2830483 L56.0833333,24.388938 L56.0833333,60.0091943 C56.0833333,61.1546108 55.1285971,62.0869565 53.9556732,62.0869565 Z" id="Imported-Layers" fill="#ED0088" sketch:type="MSShapeGroup"></path>
            <rect id="Rectangle-3" fill="#ED0088" sketch:type="MSShapeGroup" x="36" y="36" width="28" height="15" rx="4"></rect>
            <path d="M39.168,39.432 L40.956,39.432 L42.9,42.456 L44.928,39.432 L46.608,39.432 L43.776,43.56 L46.812,48 L44.988,48 L42.852,44.724 L40.68,48 L38.964,48 L42,43.56 L39.168,39.432 Z M47.688,39.432 L49.188,39.432 L49.188,46.704 L53.544,46.704 L53.544,48 L47.688,48 L47.688,39.432 Z M55.56,45.144 C55.56,45.4720016 55.6159994,45.7519988 55.728,45.984 C55.8400006,46.2160012 55.995999,46.4059993 56.196,46.554 C56.396001,46.7020007 56.6259987,46.8099997 56.886,46.878 C57.1460013,46.9460003 57.4279985,46.98 57.732,46.98 C58.0600016,46.98 58.3399988,46.9420004 58.572,46.866 C58.8040012,46.7899996 58.9919993,46.6920006 59.136,46.572 C59.2800007,46.4519994 59.3839997,46.3140008 59.448,46.158 C59.5120003,46.0019992 59.544,45.8440008 59.544,45.684 C59.544,45.3559984 59.4700007,45.1140008 59.322,44.958 C59.1739993,44.8019992 59.0120009,44.6920003 58.836,44.628 C58.5319985,44.5159994 58.178002,44.4100005 57.774,44.31 C57.369998,44.2099995 56.872003,44.0800008 56.28,43.92 C55.9119982,43.8239995 55.6060012,43.6980008 55.362,43.542 C55.1179988,43.3859992 54.9240007,43.212001 54.78,43.02 C54.6359993,42.827999 54.5340003,42.6240011 54.474,42.408 C54.4139997,42.1919989 54.384,41.9720011 54.384,41.748 C54.384,41.3159978 54.4739991,40.9420016 54.654,40.626 C54.8340009,40.3099984 55.0719985,40.048001 55.368,39.84 C55.6640015,39.631999 55.9999981,39.4780005 56.376,39.378 C56.7520019,39.2779995 57.1319981,39.228 57.516,39.228 C57.9640022,39.228 58.385998,39.2859994 58.782,39.402 C59.178002,39.5180006 59.5259985,39.6919988 59.826,39.924 C60.1260015,40.1560012 60.3639991,40.4419983 60.54,40.782 C60.7160009,41.1220017 60.804,41.5159978 60.804,41.964 L59.304,41.964 C59.2639998,41.4119972 59.0760017,41.0220011 58.74,40.794 C58.4039983,40.5659989 57.9760026,40.452 57.456,40.452 C57.2799991,40.452 57.1000009,40.4699998 56.916,40.506 C56.7319991,40.5420002 56.5640008,40.6019996 56.412,40.686 C56.2599992,40.7700004 56.1340005,40.8839993 56.034,41.028 C55.9339995,41.1720007 55.884,41.3519989 55.884,41.568 C55.884,41.8720015 55.9779991,42.1099991 56.166,42.282 C56.3540009,42.4540009 56.5999985,42.5839996 56.904,42.672 C56.9360002,42.68 57.0619989,42.7139997 57.282,42.774 C57.5020011,42.8340003 57.7479986,42.8999996 58.02,42.972 C58.2920014,43.0440004 58.5579987,43.1139997 58.818,43.182 C59.0780013,43.2500003 59.2639994,43.2999998 59.376,43.332 C59.6560014,43.4200004 59.899999,43.5399992 60.108,43.692 C60.316001,43.8440008 60.4899993,44.017999 60.63,44.214 C60.7700007,44.410001 60.8739997,44.6199989 60.942,44.844 C61.0100003,45.0680011 61.044,45.2919989 61.044,45.516 C61.044,45.9960024 60.946001,46.4059983 60.75,46.746 C60.553999,47.0860017 60.2960016,47.3639989 59.976,47.58 C59.6559984,47.7960011 59.292002,47.9539995 58.884,48.054 C58.475998,48.1540005 58.0600021,48.204 57.636,48.204 C57.1479976,48.204 56.6880022,48.1440006 56.256,48.024 C55.8239978,47.9039994 55.4480016,47.7200012 55.128,47.472 C54.8079984,47.2239988 54.552001,46.9060019 54.36,46.518 C54.167999,46.1299981 54.068,45.6720026 54.06,45.144 L55.56,45.144 Z" id="XLS" fill="#FFFFFF" sketch:type="MSShapeGroup"></path>
        </g>
    </g>
</svg>