<?xml version="1.0" encoding="UTF-8" standalone="no"?>
<svg width="72px" height="72px" viewBox="0 0 72 72" version="1.1" xmlns="http://www.w3.org/2000/svg" xmlns:xlink="http://www.w3.org/1999/xlink" xmlns:sketch="http://www.bohemiancoding.com/sketch/ns">
    <title>box-icon-html</title>
    <description>Created with Sketch (http://www.bohemiancoding.com/sketch)</description>
    <defs></defs>
    <g id="Page-1" stroke="none" stroke-width="1" fill="none" fill-rule="evenodd" sketch:type="MSPage">
        <g id="box-icon-html" sketch:type="MSArtboardGroup">
            <path d="M59.4748308,22.2985152 L44.6962015,6.62323557 C44.3214576,6.22627847 43.794969,6 43.2420899,6 L19.0816699,6 C15.7287684,6 13,8.67267203 13,11.9595285 L13,60.0404715 C13,63.326035 15.7287684,66 19.0816699,66 L53.9183301,66 C57.2712316,66 60,63.326035 60,60.0404715 L60,23.6148094 C60,23.1273409 59.8126281,22.6566817 59.4748308,22.2985152 L59.4748308,22.2985152 Z M54.7777778,21.6521739 L44.3333333,21.6521739 L44.3333333,11.2173913 L54.7777778,21.6521739 L54.7777778,21.6521739 Z M53.9556732,62.0869565 L19.0443268,62.0869565 C17.8714029,62.0869565 16.9166667,61.1546108 16.9166667,60.0091943 L16.9166667,11.9908057 C16.9166667,10.8453892 17.8714029,9.91304348 19.0443268,9.91304348 L41.6675431,9.91304348 L41.6675431,23.3687813 C41.6675431,23.8736943 42.7395056,24.2830483 43.2565442,24.2830483 L55.9828348,24.2830483 L56.0833333,24.388938 L56.0833333,60.0091943 C56.0833333,61.1546108 55.1285971,62.0869565 53.9556732,62.0869565 Z" id="Imported-Layers" fill="#ED0088" sketch:type="MSShapeGroup"></path>
            <rect id="Rectangle-3" fill="#ED0088" sketch:type="MSShapeGroup" x="28" y="36" width="39" height="15" rx="4"></rect>
            <path d="M31.83,39.216 L33.33,39.216 L33.33,42.624 L37.23,42.624 L37.23,39.216 L38.73,39.216 L38.73,47.784 L37.23,47.784 L37.23,43.92 L33.33,43.92 L33.33,47.784 L31.83,47.784 L31.83,39.216 Z M39.714,39.216 L46.65,39.216 L46.65,40.512 L43.926,40.512 L43.926,47.784 L42.426,47.784 L42.426,40.512 L39.714,40.512 L39.714,39.216 Z M47.622,39.216 L49.734,39.216 L52.098,45.924 L52.122,45.924 L54.426,39.216 L56.514,39.216 L56.514,47.784 L55.086,47.784 L55.086,41.172 L55.062,41.172 L52.686,47.784 L51.45,47.784 L49.074,41.172 L49.05,41.172 L49.05,47.784 L47.622,47.784 L47.622,39.216 Z M58.314,39.216 L59.814,39.216 L59.814,46.488 L64.17,46.488 L64.17,47.784 L58.314,47.784 L58.314,39.216 Z" id="HTML" fill="#FFFFFF" sketch:type="MSShapeGroup"></path>
        </g>
    </g>
</svg>