<?xml version="1.0" encoding="UTF-8" standalone="no"?>
<svg width="72px" height="72px" viewBox="0 0 72 72" version="1.1" xmlns="http://www.w3.org/2000/svg" xmlns:xlink="http://www.w3.org/1999/xlink" xmlns:sketch="http://www.bohemiancoding.com/sketch/ns">
    <!-- Generator: Sketch 3.0.1 (7597) - http://www.bohemiancoding.com/sketch -->
    <title>box-icon-mifi</title>
    <description>Created with Sketch.</description>
    <defs></defs>
    <g id="Page-1" stroke="none" stroke-width="1" fill="none" fill-rule="evenodd" sketch:type="MSPage">
        <g id="box-icon-mifi" sketch:type="MSArtboardGroup" fill="#ED0088">
            <path d="M26.2744588,28.524803 C26.3776588,28.5426601 26.4832588,28.547422 26.5864588,28.547422 C27.2116588,28.547422 27.7792588,28.2593268 27.9316588,27.8355173 C28.3756588,26.549803 28.6024588,25.2355173 28.6096588,23.922422 C28.6024588,22.6176601 28.3816588,21.3176601 27.9364588,20.0438506 C27.7600588,19.547422 27.0184588,19.2414697 26.2804588,19.3581363 C25.5400588,19.4712316 25.0792588,19.9652792 25.2544588,20.4628982 L25.2484588,20.4628982 C25.6492588,21.5950411 25.8436588,22.7569459 25.8424588,23.922422 C25.8472588,25.0938506 25.6372588,26.2676601 25.2376588,27.4188506 C25.0600588,27.9140887 25.5280588,28.4069459 26.2744588,28.524803 Z M37.8760588,36.8057554 C38.0668588,36.8640887 38.2636588,36.8914697 38.4568588,36.8914697 C38.9776588,36.8914697 39.4744588,36.6938506 39.7144588,36.3617078 C42.4876588,32.4271839 43.8844588,28.1795649 43.8844588,23.9307554 C43.8844588,19.6843268 42.4876588,15.4402792 39.7132588,11.5033744 C39.3868588,11.0390887 38.5624588,10.8438506 37.8748588,11.0628982 C37.1872588,11.2759935 36.8932588,11.8259935 37.2160588,12.2855173 L37.2112588,12.2867078 C39.8152588,15.9759935 41.1124588,19.9486125 41.1124588,23.9307554 C41.1136588,27.9140887 39.8152588,31.8902792 37.2112588,35.5783744 C36.8848588,36.0390887 37.1800588,36.5878982 37.8760588,36.8057554 Z M32.5492588,31.9295649 C32.6980588,31.9652792 32.8492588,31.9807554 32.9968588,31.9807554 C33.5716588,31.9807554 34.1116588,31.7414697 34.3108588,31.3593268 C35.5408588,28.9605173 36.1696588,26.4402792 36.1696588,23.9140887 C36.1720588,21.4081363 35.5612588,18.899803 34.3144588,16.5188506 C34.0624588,16.0402792 33.2752588,15.7867078 32.5624588,15.9533744 C31.8448588,16.1164697 31.4608588,16.6414697 31.7140588,17.1236125 C32.8468588,19.3033744 33.4132588,21.6057554 33.4120588,23.9152792 C33.4120588,26.2355173 32.8336588,28.5557554 31.6936588,30.7605173 C31.4440588,31.2390887 31.8268588,31.7664697 32.5492588,31.9295649 Z M63.2344588,43.5045649 L21.0532588,43.5045649 L21.0532588,20.0878982 C21.0532588,19.799803 20.8156588,19.5640887 20.5252588,19.5640887 L18.0184588,19.5640887 C17.7280588,19.5640887 17.4916588,19.799803 17.4916588,20.0878982 L17.4916588,43.5045649 L8.62365882,43.5045649 C7.20645882,43.5045649 6.05085882,44.649803 6.05085882,46.0569459 L6.05085882,58.2105173 C6.05085882,59.6200411 7.20645882,60.7640887 8.62365882,60.7640887 L63.2344588,60.7640887 C64.6552588,60.7640887 65.8084588,59.6200411 65.8084588,58.2105173 L65.8084588,46.0569459 C65.8084588,44.649803 64.6552588,43.5045649 63.2344588,43.5045649 Z M14.1736588,53.8188506 C13.2928588,53.8188506 12.5740588,53.1069459 12.5740588,52.2307554 C12.5740588,51.3533744 13.2928588,50.6426601 14.1736588,50.6426601 C15.0580588,50.6426601 15.7732588,51.3533744 15.7732588,52.2307554 C15.7732588,53.1069459 15.0580588,53.8188506 14.1736588,53.8188506 L14.1736588,53.8188506 Z M20.0872588,53.8188506 C19.2028588,53.8188506 18.4888588,53.1069459 18.4888588,52.2307554 C18.4888588,51.3533744 19.2028588,50.6426601 20.0872588,50.6426601 C20.9704588,50.6426601 21.6868588,51.3533744 21.6868588,52.2307554 C21.6868588,53.1069459 20.9704588,53.8188506 20.0872588,53.8188506 L20.0872588,53.8188506 Z M25.9888588,53.8188506 C25.1044588,53.8188506 24.3892588,53.1069459 24.3892588,52.2307554 C24.3892588,51.3533744 25.1044588,50.6426601 25.9888588,50.6426601 C26.8708588,50.6426601 27.5884588,51.3533744 27.5884588,52.2307554 C27.5884588,53.1069459 26.8708588,53.8188506 25.9888588,53.8188506 L25.9888588,53.8188506 Z" id="Fill-1" sketch:type="MSShapeGroup"></path>
        </g>
    </g>
</svg>
