<svg viewBox="0 0 72 72" xmlns="http://www.w3.org/2000/svg" xmlns:sketch="http://www.bohemiancoding.com/sketch/ns"><title>box-icon-mifi</title><path d="M42.865 24.032l.314.023c.628 0 1.199-.29 1.352-.718.446-1.296.674-2.621.681-3.944-.007-1.315-.229-2.626-.676-3.91-.177-.5-.922-.809-1.664-.691-.744.114-1.207.612-1.031 1.114h-.006c.403 1.141.598 2.312.597 3.487.005 1.181-.206 2.364-.608 3.524-.178.499.292.996 1.042 1.115zm12.242 8.434c.523 0 1.023-.199 1.264-.534 2.787-3.966 4.19-8.248 4.19-12.53 0-4.28-1.404-8.558-4.192-12.527-.328-.468-1.156-.665-1.847-.444-.691.215-.986.769-.662 1.232 2.612 3.72 3.916 7.724 3.916 11.738.001 4.015-1.304 8.023-3.92 11.741-.328.464-.031 1.018.668 1.237.192.059.389.086.584.086zm-5.937-5.002c.15.036.301.052.45.052.578 0 1.12-.241 1.32-.626 1.236-2.418 1.868-4.958 1.868-7.505.002-2.526-.611-5.054-1.864-7.454-.253-.482-1.044-.738-1.761-.57-.721.164-1.107.694-.853 1.18 1.138 2.197 1.708 4.518 1.706 6.846 0 2.339-.581 4.678-1.727 6.9-.251.482.134 1.014.86 1.178zm-11.687-18.892c0-1.417-1.16-2.573-2.585-2.573h-12.311c-1.428 0-2.587 1.156-2.587 2.573v54.611c0 1.421 1.159 2.574 2.587 2.574h12.311c1.425 0 2.585-1.153 2.585-2.574v-54.611zm-10.448 5.55c0-.881.721-1.6 1.609-1.6.889 0 1.609.719 1.609 1.6 0 .884-.72 1.6-1.609 1.6-.888 0-1.609-.715-1.609-1.6zm0 5.914c0-.884.721-1.598 1.609-1.598.889 0 1.609.714 1.609 1.598 0 .883-.72 1.6-1.609 1.6-.888 0-1.609-.716-1.609-1.6zm0 5.902c0-.884.721-1.6 1.609-1.6.889 0 1.609.715 1.609 1.6 0 .882-.72 1.6-1.609 1.6-.888 0-1.609-.718-1.609-1.6z" sketch:type="MSShapeGroup" fill="#ED0088"/></svg>