<svg viewBox="0 0 72 72" xmlns="http://www.w3.org/2000/svg" xmlns:sketch="http://www.bohemiancoding.com/sketch/ns"><title>box-icon-usb-modem</title><path d="M54.833 15.244l-6.352.002c-.553 0-1.002.458-1.002 1.02v6.454c0 .564.449 1.02 1.002 1.02l1.006.002v4.421l-12.353 7.942-.001-20.682 2.106.001c.359 0 .691-.195.869-.51.18-.317.18-.707 0-1.02l-4.21-7.421c-.359-.633-1.38-.633-1.739 0l-4.21 7.421c-.18.314-.18.703 0 1.02.179.315.51.51.868.51l2.106-.001.002 29.725-11.704-8.678v-5.135c1.303-.744 2.137-2.156 2.137-3.709-.001-2.344-1.876-4.248-4.178-4.248-2.305 0-4.181 1.906-4.181 4.249 0 1.508.769 2.871 2.008 3.632v6.186c0 .556.221 1.101.607 1.499l.107.095 15.202 11.763v2.996c-2.484.897-4.213 3.324-4.211 6.06 0 3.543 2.834 6.425 6.318 6.425 1.686 0 3.27-.669 4.463-1.881 1.193-1.215 1.849-2.829 1.849-4.543.001-2.737-1.724-5.162-4.208-6.057v-12.14l15.81-10.857.16-.134c.377-.398.595-.938.595-1.49v-5.439l1.134-.002c.554 0 1.003-.455 1.003-1.02v-6.457c0-.271-.106-.531-.294-.72-.188-.193-.444-.3-.709-.3z" sketch:type="MSShapeGroup" fill="#D4D8D9"/></svg>