<?xml version="1.0" encoding="UTF-8" standalone="no"?>
<svg width="30px" height="30px" viewBox="0 0 30 30" version="1.1" xmlns="http://www.w3.org/2000/svg" xmlns:xlink="http://www.w3.org/1999/xlink" xmlns:sketch="http://www.bohemiancoding.com/sketch/ns">
    <title>icon-edit</title>
    <description>Created with Sketch (http://www.bohemiancoding.com/sketch)</description>
    <defs></defs>
    <g id="Page-1" stroke="none" stroke-width="1" fill="none" fill-rule="evenodd" sketch:type="MSPage">
        <g id="icon-edit" sketch:type="MSArtboardGroup" fill="#ED0088">
            <path d="M26.8436928,6.96551931 L23.1684099,3.16192926 C22.9618355,2.95171192 22.5849702,2.94355279 22.3745255,3.15281024 L7.4547248,17.7998716 L3.06199488,26.192727 C2.94927395,26.4067839 2.993298,26.6745951 3.16939422,26.8430569 C3.27292332,26.9438461 3.41080086,27 3.55690267,27 C3.65220749,27 3.74460963,26.9760026 3.83023883,26.9299276 L12.0801533,22.3579403 L12.1798121,22.2825884 L26.8340172,7.74255556 C27.0512348,7.52993848 27.0560726,7.18869525 26.8436928,6.96551931 L26.8436928,6.96551931 Z M10.1452892,22.9180971 L6.33839606,25 C5.46465827,24.710152 5.12718017,24.0176557 5,23.5453654 L6.92022031,19.9053458 L7.85504465,19 L11,22.0814125 L10.1452892,22.9180971 L10.1452892,22.9180971 Z M12.1411047,21 L11,19.8540618 L23.9872219,7 L25,8.08123652 L12.1411047,21 L12.1411047,21 Z M10.1411047,19 L9,17.8540618 L21.9872219,5 L23,6.08123652 L10.1411047,19 L10.1411047,19 Z" id="Imported-Layers" sketch:type="MSShapeGroup"></path>
        </g>
    </g>
</svg>