<?xml version="1.0" encoding="UTF-8" standalone="no"?>
<svg width="18px" height="18px" viewBox="0 0 18 18" version="1.1" xmlns="http://www.w3.org/2000/svg" xmlns:xlink="http://www.w3.org/1999/xlink" xmlns:sketch="http://www.bohemiancoding.com/sketch/ns">
    <title>icon-lte</title>
    <description>Created with Sketch (http://www.bohemiancoding.com/sketch)</description>
    <defs></defs>
    <g id="Page-1" stroke="none" stroke-width="1" fill="none" fill-rule="evenodd" sketch:type="MSPage">
        <g id="icon-lte" sketch:type="MSArtboardGroup" fill="#9E9EA8">
            <path d="M0,12 L0,10 L0,8 L2,8 L2,10 L4,10 L4,8 L2,8 L1.616,8 L1.616,6 L2,6 L4,6 L3.616,6 L3.616,4 L4,4 L6,4 L6,6 L6,8 L6,10 L8,10 L8,12 L6,12 L6,14 L6,16 L4,16 L4,14 L4,12 L2,12 L0,12 Z M10,14 L10,13.8174905 L10,11.9163498 L10,10.0152091 L10,8.11406844 L10,6.21292776 L10,6 L12,6 L12,6.21292776 L12,8.11406844 L12,10.0152091 L12,11.9163498 L12,13.8174905 L12,14 L10,14 Z M12,16 L12,14 L12.173913,14 L13.9855072,14 L15.7971014,14 L16,14 L16,16 L15.7971014,16 L13.9855072,16 L12.173913,16 L12,16 Z M12,6 L12,4 L12.173913,4 L13.9855072,4 L15.7971014,4 L16,4 L16,6 L15.7971014,6 L13.9855072,6 L12.173913,6 L12,6 Z M16,8 L16,6.20143885 L16,6 L18,6 L18,6.20143885 L18,8 L16,8 Z M14,11.9083969 L14,10 L16,10 L18,10 L18,11.9083969 L18,13.8167939 L18,14 L16,14 L16,13.8167939 L16,11.9083969 L14,11.9083969 Z" id="4G" sketch:type="MSShapeGroup"></path>
        </g>
    </g>
</svg>