<?xml version="1.0" encoding="UTF-8" standalone="no"?>
<svg width="17px" height="18px" viewBox="0 0 17 18" version="1.1" xmlns="http://www.w3.org/2000/svg" xmlns:xlink="http://www.w3.org/1999/xlink" xmlns:sketch="http://www.bohemiancoding.com/sketch/ns">
    <title>icon-support</title>
    <description>Created with Sketch (http://www.bohemiancoding.com/sketch)</description>
    <defs></defs>
    <g id="Page-1" stroke="none" stroke-width="1" fill="none" fill-rule="evenodd" sketch:type="MSPage">
        <g id="icon-support" sketch:type="MSArtboardGroup" fill="#9E9EA8">
            <path d="M17,8.44344222 C17,3.78729888 13.1866667,0 8.5,0 C3.81333333,0 0,3.78729888 0,8.44344222 C0,9.90248659 0.384444444,11.334471 1.1062963,12.5993418 L1.1062963,13.5544856 C1.1062963,13.9706241 1.44777778,14.3077767 1.86888889,14.3077767 L3.66925926,14.3077767 C4.09,14.3077767 4.43148148,13.9706241 4.43148148,13.5544856 L4.43148148,8.56850317 C4.43148148,8.15273038 4.09,7.81557777 3.66925926,7.81557777 L1.86888889,7.81557777 C1.75518519,7.81557777 1.64740741,7.84190639 1.55,7.88688445 C1.83592593,4.32081911 4.84296296,1.50548513 8.5,1.50548513 C12.16,1.50548513 15.1685185,4.32520722 15.4507407,7.8949293 C15.3496296,7.84556314 15.237037,7.81557777 15.1166667,7.81557777 L13.3166667,7.81557777 C12.8951852,7.81557777 12.5537037,8.15273038 12.5537037,8.56850317 L12.5537037,13.5544856 C12.5537037,13.9706241 12.8951852,14.3077767 13.3166667,14.3077767 L13.9807407,14.3077767 C13.0977778,15.4497806 11.6862963,16.2922964 10.0285185,16.6075085 C9.8662963,16.3859093 9.60444444,16.2403706 9.30740741,16.2403706 L7.85888889,16.2403706 C7.36777778,16.2403706 6.96777778,16.6352999 6.96777778,17.1201853 C6.96777778,17.6050707 7.36777778,18 7.85888889,18 L9.30740741,18 C9.71888889,18 10.0622222,17.7220868 10.1648148,17.348001 C12.2214815,16.9581911 13.9448148,15.8260605 14.9040741,14.3077767 L15.1166667,14.3077767 C15.5377778,14.3077767 15.8788889,13.9706241 15.8788889,13.5544856 L15.8788889,12.6264018 C16.6107407,11.3549488 17,9.91235982 17,8.44344222" id="support" sketch:type="MSShapeGroup"></path>
        </g>
    </g>
</svg>