<?xml version="1.0" encoding="UTF-8" standalone="no"?>
<svg width="24px" height="24px" viewBox="0 0 24 24" version="1.1" xmlns="http://www.w3.org/2000/svg" xmlns:xlink="http://www.w3.org/1999/xlink" xmlns:sketch="http://www.bohemiancoding.com/sketch/ns">
    <title>icon-dashboard-help</title>
    <description>Created with Sketch (http://www.bohemiancoding.com/sketch)</description>
    <defs></defs>
    <g id="Page-1" stroke="none" stroke-width="1" fill="none" fill-rule="evenodd" sketch:type="MSPage">
        <g id="icon-dashboard-help" sketch:type="MSArtboardGroup" fill="#9E9EA8">
            <path d="M24,21 C21.5834995,19.2620469 18.8256797,17.7728093 16,17 C15.7843528,17.0201708 15.6992755,17 16,17 L15,17 C15.3364974,17 15.3291762,17.0012151 15,17 L17,20 L14,24 L23,24 C23.769256,24 24,23.7783641 24,24 L24,22 C24,21.5960283 23.9431976,21.4674698 24,21 Z M9,17 C8.72970707,17.0026729 8.72081502,17 9,17 C8.47412413,17 8.43449099,17.0043738 8,17 C5.33091131,17.7066093 2.48240644,19.2148362 -1.77635684e-15,21 C0.0566550647,21.4683074 -1.77635684e-15,21.5963621 -1.77635684e-15,22 L-1.77635684e-15,24 C-1.77635684e-15,23.7783949 0.232463606,24 1,24 L10,24 L7,20 L9,17 Z M12,13 C11.5543771,13.3409305 11.3105457,13.5005291 11,14 C8.21344178,13.4276474 7.26507117,10.8493654 7,11 C7.26902786,10.9014943 7.26902786,10.9014943 7,11 C7.25938341,10.8493654 7.25468484,10.8493654 7,11 C6.73561576,10.8493654 6.31991537,10.4091107 6,10 C6.31991537,9.4648606 6.54643623,9.12095791 7,9 C6.87039072,8.9675358 8.27526515,6.18987921 9,3 C8.96991262,2.93441528 9.62524042,8.04972079 17,9 C17.1345551,8.94801834 17.1325768,8.95814766 17,9 C17.4533165,9.12120497 17.6793427,9.46510766 18,10 C17.6793427,10.4093577 17.2633951,10.8496125 17,11 C16.7453152,10.8496125 16.7396274,10.8496125 17,11 C16.626367,12.3032931 15.9359235,13.758209 15,15 L15,16 C18.5307743,15.8334839 21,14.1873462 21,14 C17.5893279,12.1054008 20.5177777,5.10332458 17,2 C12.9948618,-1.44564998 11.9997527,0.675824461 12,1 C11.9997527,0.675824461 11.0048909,-1.44540293 7,2 C3.48222234,5.10332458 6.4104248,12.1051538 3,14 C3,14.1868521 5.45117327,15.8203899 9,16 L9,15 C8.49411991,14.1606641 8.04355113,13.4716234 8,13 C8.40459966,13.4572942 9.48576688,14.208099 11,14 C11.2608397,14.6439067 11.5271748,14.8336461 12,15 C12.2507556,14.8336461 12.5853437,14.4993786 13,14 C12.5853437,13.675198 12.2505083,13.3409305 12,13 Z" id="Shape" sketch:type="MSShapeGroup"></path>
        </g>
    </g>
</svg>