<?xml version="1.0" encoding="UTF-8" standalone="no"?>
<svg width="24px" height="24px" viewBox="0 0 24 24" version="1.1" xmlns="http://www.w3.org/2000/svg" xmlns:xlink="http://www.w3.org/1999/xlink" xmlns:sketch="http://www.bohemiancoding.com/sketch/ns">
    <title>icon-nav-drawer</title>
    <description>Created with Sketch (http://www.bohemiancoding.com/sketch)</description>
    <defs></defs>
    <g id="Page-1" stroke="none" stroke-width="1" fill="none" fill-rule="evenodd" sketch:type="MSPage">
        <g id="icon-nav-drawer" sketch:type="MSArtboardGroup" fill="#ED0088">
            <path d="M1.125,13 C0.503625,13 0,12.3285 0,11.5 C0,10.6715 0.503625,10 1.125,10 L22.875,10 C23.496375,10 24,10.6715 24,11.5 C24,12.3285 23.496375,13 22.875,13 L1.125,13 Z M22.875,7 L1.125,7 C0.503625,7 0,6.3285 0,5.5 C0,4.6715 0.503625,4 1.125,4 L22.875,4 C23.496375,4 24,4.6715 24,5.5 C24,6.3285 23.496375,7 22.875,7 M1.125,16 L22.875,16 C23.496375,16 24,16.6715 24,17.5 C24,18.3285 23.496375,19 22.875,19 L1.125,19 C0.503625,19 0,18.3285 0,17.5 C0,16.6715 0.503625,16 1.125,16" id="Imported-Layers" sketch:type="MSShapeGroup"></path>
        </g>
    </g>
</svg>