<?xml version="1.0" encoding="UTF-8" standalone="no"?>
<svg width="72px" height="72px" viewBox="0 0 72 72" version="1.1" xmlns="http://www.w3.org/2000/svg" xmlns:xlink="http://www.w3.org/1999/xlink" xmlns:sketch="http://www.bohemiancoding.com/sketch/ns">
    <title>person</title>
    <description>Created with Sketch (http://www.bohemiancoding.com/sketch)</description>
    <defs></defs>
    <g id="Page-1" stroke="none" stroke-width="1" fill="none" fill-rule="evenodd" sketch:type="MSPage">
        <g id="person" sketch:type="MSArtboardGroup" fill="#D4D8D9">
            <path d="M65.002,66.992 L7.003,66.992 C5.345,66.992 4.003,65.649 4.003,63.992 C4,63.985 4,53.053 11.988,49.078 C17.043,46.563 15.097,48.605 21.302,46.031 C27.507,43.461 28.977,42.565 28.977,42.565 L29.036,36.64 C29.036,36.64 26.712,34.863 25.99,29.289 C24.535,29.71 24.055,27.582 23.969,26.227 C23.891,24.919 23.128,20.832 24.902,21.201 C24.539,18.471 24.278,16.011 24.406,14.707 C24.851,10.13 29.259,5.349 36.049,5 C44.036,5.347 47.2,10.127 47.643,14.704 C47.773,16.008 47.488,18.47 47.124,21.194 C48.899,20.83 48.128,24.911 48.042,26.22 C47.963,27.574 47.472,29.695 46.022,29.275 C45.297,34.848 42.972,36.612 42.972,36.612 L43.027,42.506 C43.027,42.506 44.496,43.344 50.702,45.915 C56.907,48.488 54.96,46.564 60.016,49.079 C68.003,53.053 68.003,63.985 68.003,63.985 C68.002,65.649 66.659,66.992 65.002,66.992 Z" id="Imported-Layers" sketch:type="MSShapeGroup"></path>
        </g>
    </g>
</svg>