<?xml version="1.0" encoding="UTF-8" standalone="no"?>
<svg width="72px" height="72px" viewBox="0 0 72 72" version="1.1" xmlns="http://www.w3.org/2000/svg" xmlns:xlink="http://www.w3.org/1999/xlink" xmlns:sketch="http://www.bohemiancoding.com/sketch/ns">
    <title>refresh</title>
    <description>Created with Sketch (http://www.bohemiancoding.com/sketch)</description>
    <defs></defs>
    <g id="Page-1" stroke="none" stroke-width="1" fill="none" fill-rule="evenodd" sketch:type="MSPage">
        <g id="refresh" sketch:type="MSArtboardGroup" fill="#D4D8D9">
            <path d="M63.1875,27.6857143 L51,27.6857143 C49.4465625,27.6857143 48.1875,26.4194571 48.1875,24.8571429 C48.1875,23.2948286 49.4465625,22.0285714 51,22.0285714 L55.8440625,22.0285714 C51.4396875,15.7642286 44.2125,11.6571429 36,11.6571429 C22.5384375,11.6571429 11.625,22.6338857 11.625,36.1714286 C11.625,37.7337429 10.3659375,39 8.8125,39 C7.2590625,39 6,37.7337429 6,36.1714286 C6,19.5083143 19.4315625,6 36,6 C46.06125,6 54.94125,10.9962 60.375,18.6456 L60.375,13.5428571 C60.375,11.9805429 61.6340625,10.7142857 63.1875,10.7142857 C64.7409375,10.7142857 66,11.9805429 66,13.5428571 L66,24.8571429 C66,26.4194571 64.7409375,27.6857143 63.1875,27.6857143 M8.8125,44.3142857 L21,44.3142857 C22.5534375,44.3142857 23.8125,45.5805429 23.8125,47.1428571 C23.8125,48.7051714 22.5534375,49.9714286 21,49.9714286 L16.1184375,49.9714286 C20.525625,56.2433143 27.78,60.3428571 36,60.3428571 C49.4615625,60.3428571 60.375,49.3670571 60.375,35.8285714 C60.375,34.2662571 61.6340625,33 63.1875,33 C64.7409375,33 66,34.2662571 66,35.8285714 C66,52.4916857 52.5684375,66 36,66 C25.925625,66 17.0521875,60.984 11.625,53.3148 L11.625,58.4571429 C11.625,60.0194571 10.3659375,61.2857143 8.8125,61.2857143 C7.2590625,61.2857143 6,60.0194571 6,58.4571429 L6,47.1428571 C6,45.5805429 7.2590625,44.3142857 8.8125,44.3142857" id="Imported-Layers" sketch:type="MSShapeGroup"></path>
        </g>
    </g>
</svg>