<?xml version="1.0" encoding="UTF-8" standalone="no"?>
<svg width="72px" height="72px" viewBox="0 0 72 72" version="1.1" xmlns="http://www.w3.org/2000/svg" xmlns:xlink="http://www.w3.org/1999/xlink" xmlns:sketch="http://www.bohemiancoding.com/sketch/ns">
    <title>speech-bubble</title>
    <description>Created with Sketch (http://www.bohemiancoding.com/sketch)</description>
    <defs></defs>
    <g id="Page-1" stroke="none" stroke-width="1" fill="none" fill-rule="evenodd" sketch:type="MSPage">
        <g id="speech-bubble" sketch:type="MSArtboardGroup" fill="#ED0088">
            <path d="M26,21 C25.7956996,21.0028739 25.6521561,21 26,21 L25,21 C11.9351418,21.0028739 1.31579564,28.9205748 1,39 C1,39.1216199 1,39.2466362 1,39 C1.01435435,45.1367734 4.56992618,50.630307 11,54 C10.1322358,54.9067276 9.456146,55.9801437 9,57 C7.99200258,58.1959504 7.41639325,59.0954931 7,60 L7,60 C6.4058472,60.9348138 6.05847199,61.5915088 6,62 C5.85320483,63.3561071 6.62116241,64.6795558 8,65 L8,65 C8.00348606,64.9798824 8.1872217,65 8,65 L8,65 L8,65 C9.56810991,64.9281515 10.4020975,64.485565 11,64 L12,64 C13.2844504,62.9365121 14.788786,62.0139778 16,61 C16.954857,60.6890921 17.6596555,60.2580013 18,60 C19.4108859,59.2018289 20.332435,58.6701502 21,58 C21.342981,58.1528413 21.6415514,58.0148922 22,58 C21.8597375,57.931548 21.8740919,57.9243632 22,58 C22.9492325,58.0479425 23.9970998,58.1226649 25,58 L26,58 C39.0706,58.1542782 49.6856398,50.2351404 50,40 C50,40.0340954 50,39.9191378 50,40 C49.911003,29.5614631 39.3304136,21.3103854 26,21 L26,21 Z M14,56 L14,55 C14.5681236,54.6090473 14.9365146,53.9396131 15,53 C15.0473197,52.3493538 14.6818068,51.2505778 14,51 C8.24215917,48.0432252 4.98851823,43.6509458 5,39 C5.08493306,31.212745 14.1335373,25 25,25 C25.3924877,25 25.5867564,25.0028246 26,25 C36.8370726,25.2457417 46.0885797,31.87653 46,39 L46,40 C45.9087013,47.351194 36.8629751,53.545579 26,54 C25.6097808,53.545579 25.3924877,53.545579 25,54 C24.1606802,53.5201575 23.1404098,53.4438928 22,53 C22.0697734,53.2927758 21.8265778,53.2927758 22,53 C20.6465753,53.3676282 19.8608664,53.7800223 19,54 L18,55 C17.0403727,55.2841308 15.6416381,56.1244543 14,57 C13.6644144,57.3150304 13.0830473,57.6638706 13,58 C13.0528278,57.1935719 13.5996582,56.351836 14,56 Z M67,40 C66.5701346,38.8994431 66.0797692,38.1433839 66,37 C64.8796643,36.3427693 64.3319461,35.4801229 64,35 C69.0061899,31.8931054 71.9899633,27.291377 72,22 C72,22.3585174 72,22.2505089 72,22 C71.73331,13.6638371 62.7203357,7 51,7 C51.107851,7 50.9702046,7.00142116 51,7 C41.8052457,7.20606875 33.9636999,11.7111581 31,18 L31,19 L32,19 C32.6517573,19.2731707 33.3815702,19.388285 34,20 L35,20 L35,19 C37.1940899,14.1967736 43.6491345,10.7703476 51,11 C51.1336597,10.6083349 51.2985487,10.6069138 51,11 C60.7129918,10.6069138 68.2849799,15.8410601 68,22 C68.3681413,26.3150374 65.6496241,30.0143269 61,32 C60.209722,32.7486461 59.8899808,33.7391972 60,34 C59.9917818,35.1305166 60.3014863,35.7089303 61,36 L61,37 C61.0542403,37.0817745 61.4083931,37.6445554 62,38 C61.4055254,37.9955829 61.0241301,37.7639332 61,38 C59.4971149,36.8359132 58.3572303,36.1438064 57,36 L57,35 C55.9942997,34.873286 55.3232733,34.5165738 54,34 C54.173352,34.4497791 54.0428746,34.4682543 54,34 C53.7804861,34.4995199 53.5281343,34.5137315 53,35 L52,35 L52,36 C52.283581,35.9078932 52.3280294,36.1722297 52,36 L52,37 L52,38 L53,38 C53.522399,38.1533321 53.8865886,38.1220664 54,38 C54.4285714,38.1504897 54.6708865,38.2613405 55,38 C55.5584193,38.7161129 56.3513202,39.1694642 57,40 C57.7751005,40.0207413 58.3758699,40.3859804 59,41 C60.2025529,41.493067 61.4686134,42.2604955 63,43 C63.9261759,43.566545 64.6330477,43.9360476 66,44 C65.8345865,44 65.9966078,43.9801037 66,44 C67.2253891,43.7086614 67.9107536,42.5362013 68,42 C67.727225,41.007029 67.4275573,40.4470905 67,40 Z" id="path" sketch:type="MSShapeGroup"></path>
        </g>
    </g>
</svg>