<?xml version="1.0" encoding="UTF-8" standalone="no"?>
<svg width="72px" height="72px" viewBox="0 0 72 72" version="1.1" xmlns="http://www.w3.org/2000/svg" xmlns:xlink="http://www.w3.org/1999/xlink" xmlns:sketch="http://www.bohemiancoding.com/sketch/ns">
    <title>wifi</title>
    <description>Created with Sketch (http://www.bohemiancoding.com/sketch)</description>
    <defs></defs>
    <g id="Page-1" stroke="none" stroke-width="1" fill="none" fill-rule="evenodd" sketch:type="MSPage">
        <g id="wifi" sketch:type="MSArtboardGroup" fill="#ED0088">
            <path d="M65.1429385,24 C57.61979,16.712559 47.3415976,12.2161851 36,12.2161851 C24.6584024,12.2161851 14.38021,16.712559 6.85706154,24 L3,19.064349 C11.6032509,10.9729481 23.2130479,6 36,6 C48.7869521,6 60.3967491,10.9729481 69,19.064349 L65.1429385,24 L65.1429385,24 Z M36.5,22 C45.73796,22 54.0711443,25.8272765 60,31.9665831 L56.0708984,37 C51.2601395,31.6512114 44.286746,28.2656642 36.5,28.2656642 C28.713254,28.2656642 21.7398605,31.6512114 16.9291016,37 L13,31.9665831 C18.9288557,25.8272765 27.26204,22 36.5,22 L36.5,22 Z M36.5,38 C42.0621915,38 46.9747841,40.6506874 50,44.7078827 L46.5625386,49 C44.288942,46.0024748 40.6339065,44.0494959 36.5,44.0494959 C32.3660935,44.0494959 28.712099,46.0024748 26.4374614,49 L23,44.7078827 C26.0241749,40.6506874 30.9378085,38 36.5,38 L36.5,38 Z M36.5,53 C40.0901667,53 43,55.9109167 43,59.5 C43,63.0901667 40.0901667,66 36.5,66 C32.9098333,66 30,63.0901667 30,59.5 C30,55.9109167 32.9098333,53 36.5,53 L36.5,53 Z" id="Imported-Layers" sketch:type="MSShapeGroup"></path>
        </g>
    </g>
</svg>