<svg   viewBox="0 0 957 524" xmlns="http://www.w3.org/2000/svg" ><title>kz</title><path d="M956.463 242.18c-.481-5.194-2.828-3.072-6.047-4.463-.887-.383-3.938-3.865-2.976-4.887.928-.985-1.847-1.437-2.207-2.077-.509-.908.269-2.376-.363-2.967-1.621-1.523-5.251-.442-5.096-3.101.166-2.855 5.103-1.776 3.512-4.164-.438-.657.698-1.824.299-2.219-.066-.068-3.375-.652-3.48-.613-.759.29-2.745 3.696-2.971 3.952-.974 1.101-2.486 1.772-3.603 2.743-1.82 1.578-2.064 3.455-3.569 5.286-.463-.848-1.478-2.244-2.497-2.264-.816-.016-1.687 1.646-2.121 1.564-2.205-.413.249-3.074-2.109-2.91-.695.048-1.058.68-1.678.896-.825.29-.668-.949-1.247-1.015-.148-.016-1.934.041-1.763.146.135.08-2.237-1.635-1.434-1.571-1.968-.155-4.9.572-7.217.253-.894-.125-1.051.91-2.271.132-1.261-.803-.438-2.857-.896-3.943-.522-1.234-1.571-1.982-2.232-3.11-.538-.917-.185-2.084-.784-2.973-1.503-2.228-3.051-.524-2.207-4.305.087-.385 1.416.059 1.512-.741.132-1.117-1.065-2.226-1.959-2.647-.684-.324-1.799.119-2.036.007-.695-.335-.789-1.313-1.539-1.747-1.24-.714-2.964-1.279-4.319-1.991-1.354-.711-3.696-1.282-4.707-1.585-.894-.271-2.955.727-3.753-1.398-.616-1.628-.896-3.89-1.421-5.651-.335-1.11.458-2.091.258-3.229-.164-.935-1.108-1.309-1.206-2.294-.249-2.54-3.432-3.233-4.542-5.304-.711-1.323.695-2.451-1.115-3.27-1.031-.467-1.01-1.735-1.92-2.28-1.523-.91-2.57-.447-4.041-1.788-.857-.782-1.982-.794-3.092-1.003-1.136-.214-1.122-1.557-1.92-1.827-2.216-.743-4.702.771-6.64.036-1.89-.716-1.701 4.346-4.567 4.009-2.371-.28-5.956-2.105-6.009 1.389-.027 1.774-4.467 5.582-5.753 4.374-2.907-2.739-5.297 1.521-8.373.714-2.048-.536-2.547-2.832-5.147-2.353-.741.137-2.346-.531-2.636-.456-1.015.258-.949 1.076-1.822 1.617-1.245.764-6.608 1.279-6.164-1.286.251-1.45 1.04-5.516-.518-6.798-2.029-1.669-5.735 2.2-7.561.68-1.97-1.64 1.671-5.299 1.633-7.254-.068-3.55-.461-.867-2.668-1.473-1.667-.461-3.644-3.997-3.751-3.913-1.884 1.484-4.193-2.061-5.498-.123-.509.759-.506 1.496-.768 2.333-.52 1.644-2.613-.208-3.598.495-3.826 2.727 3.106 7.222-2.155 10.726-.869.581-1.82.139-2.727.764-.326.226-2.324 2.72-2.091 2.645-.164.052-2.83-.164-2.048-.714-1.286.903-1.158 1.373.442 3.489-3.747-.294-6.223-9.99-7.612-12.943-2.889-6.152-5.635-12.377-8.829-18.379-5.828-10.943-11.67-21.866-17.529-32.79-5.806-10.822-11.374-24.13-19.569-33.331-8.549-9.6-19.56-17.066-29.548-25.145-1.411-1.14-2.743-5.719-3.678-7.365-1.19-2.093 5.582.196 5.908.21 2.007.071 6.097-7.121 4.467-8.638-.994-.928-2.657-1.797.021-2.517 2.246-.604 2.342-2.83.198-1.692-.682.363-2.768.372-3.11.613-.593.42-.88 1.131-1.309 1.469-.246.196-.096 1.471-.524 1.915-.312.322-1.731.034-2.33.486-2.524 1.902-5.343-1.259-7.235.066-2.431 1.701.265 3.151-2.878 4.663-2.652 1.275-5.29 2.59-7.963 3.815-2.385 1.092-5.673.356-7.559 1.594-2.096 1.38-1.357 1.642-.157 3.671.559.946-2.324 2.387-3.122 2.985-1.708 1.275-4.665 4.412-6.759 4.608-1.213.116-4.818-3.056-5.68-.36-.723 2.251-2.346 1.77-2.771 3.685-.746 3.347-3.131-.148-4.542 1.703-.976 1.279.002 2.718-.032 3.685-.139 4.059-1.567 6.307-4.253 2.182-.296-.454-.351-1.498-.789-2.28-1.058-1.886-2.506.93-3.215.889-1.512-.087-.027-1.79-.798-2.317-1.161-.791-3.646-.864-4.764.046-2.093 1.71-2.246-.192-4.567.465-.73.205.23 2.137-.935 1.945-1.722-.283-2.488 5.322-4.896 5.19-2.862-.16.349-3.103-1.434-4.073-2.618-1.425-2.495-1.614-2.973-4.043-.381-1.931 1.567-1.12 1.966-1.945 1.095-2.246-.365-4.478 3.074-4.855-1.327-.657-1.074-1.715.144-2.415 1.095-.634 2.978.187 4.095.408 2.643.522 2.611-6.398 2.855-7.892-2.057.148-1.311-1.17-3.566-.326 1.006-.376-1.706 3.037-1.605 2.937-.351.351.442 1.402-.326 1.692-.885.335-1.393-.939-1.694-.828-1.32.493-1.297 1.373-3.117.953-1.655-.381-5.739-.442-6.104-2.381-.23-1.222-1.076-.805-1.48-1.642-.312-.645.283-2.248-.47-2.78-.695-.49-6.843-.937-7.789-.7-1.74.436-2.992 1.792-2.691 3.644 4.105-1.756 6.392 4.805 1.842 2.83-2.023-.88-3.997 5.995-4.8.636-.066-.442.566-1.384.709-1.899.258-.951-.75-.939-.741-1.546.007-.465-.689-.926-.584-1.539.173-1.031.762 0 .976-.312.388-.566 1.496-.584 1.715-1.088.636-1.45-2.866-1.979-4.057-2.454 1.808-2.248-.274-3.703-1.432-5.6-.926-1.519-6.018-3.028-4.791-1.295.394.561 1.795.926 1.596 1.792-.119.511-.967 1.617-.784 2.198.554 1.77 2.324 1.35 2.812 2.864 1.049 3.236-2.397 1.619-3.27-.089-.978-1.911-4.433-3.947-6.686-2.641-2.025 1.172-.1 3.692-1.585 4.875-1.909 1.521-2.953-.953-5.099.638.205-2.045-.28-2.337-1.503-2.987-2.784-1.48-2.132.458-3.913 1.947-2.114 1.767-1.838 1.469-3.297-.876-.242-.39-1.368-.919-1.434-1.129-.189-.613.716-1.772.315-2.449-.358-.607-3.66-2.032-1.539-3.281 1.195-.7 2.622.853 4 .572 2.185-.445-.267-5.733-.385-6.877-.178-1.731-.707-4.494 1.375-5.115 2-.595 1.644-2.75.328-4.086-1.17-1.186-3.138-.472-4.501-1.92-.451-.477-1.792-4.36-1.888-5.122-.269-2.155.677-4.656.741-6.991.084-3.199-6.636-6.679-3.68-9.602-2.504-1.662-4.378.189-6.592 1.019-.552.208-1.411-.903-2.07-.659-.65.242-.664 1.238-1.186 1.617-1.316.955.112 1.605-2.169 2.39-1.279.44-1.357 2.084-2.584 2.214-1.222.128-3.053-2.41-4.631-2.581-3.619-.39-4.622-5.224-8.818-5.801-2.467-.34-4.127-.782-6.405-1.783-1.348-.593-2.187 1.728-3.359 2.13-.176.059-5.327-7.08-7.114-3.699-1.015 1.92 3.863 3.874 1.601 5.792-.066.057-5.279-2.935-6.326-3.366-.493 1.277-1.633 7.085-2.816 6.768-1.571-.42-8.143-.253-9.447 1.026.465 1.22 3.028 3.765 2.98 4.818.036-.812-2.618 2.433-2.397 2.33-.748.349-.107 1.496-1.227 1.658-2.109.31-3.044.593-4.953-.308-2.641-1.247-3.081 1.628-4.583 2.937-2.451 2.132-5.53 1.222-8.544 1.671-1.589.237-1.382-.105-2.761.49-1.117.481-.652 1.868-2.474 1.84-5.144-.073-9.616 3.249-14.623 3.053-3.215-.128-6.813 1.984-9.741 3.051-6.161 2.253-.825-1.003-4.244-2.504-2.153-.946-3.404 3.89-4.791 4.187-2.495.531-4.369-2.098-6.638-.613.016-.011.059 2.029-.413 2.476.369-.349-3.4.28-3.5.326-1.982.898-2.442 2.825-2.073 4.95.36 2.073.953 4.912-1.685 4.622-3.167-.347-2.326-4.428-6.332-3.108-1.245.41-1.836 2.132-3.395 1.961-1.282-.141-1.824-1.797-2.896-2.025-1.003-.212-3.035 1.313-4.022 1.432-2.538.306-7.65 2.333-9.424 1.206-1.27 1.377.894 1.614.488 2.584-.661 1.585-2.33 1.015-2.875 2.173-.458.976-2.985-1.783-3.719-1.915-1.487-.269-4.784 1.225-6.239 1.79-1.503.586-2.064 1.97-3.84 1.548-1.774-.42-3.546-1.181-4.768.285-.604.723 1.291 1.945-.274 2.727-.905.451-4.025.324-5.224.404-1.261.082-2.759-.064-4.276.036-2.866.189-2.433 1.58-3.035 3.427-.431 1.318.171 6.335-2.251 3.587-1.414-1.608-1.234-1.092-1.58-2.871-.198-1.012 1.998-.702.303-2.075-1.063-.857-6.681.255-8.102.31-2.244.084-1.489 1.297-1.478 3.455-1.09.027-2.745.071-3.687-.595-.709-.504-.135-1.603-.933-2.011-.162-.08-1.984.176-2.134.196-2.545.363-1.455-.132-2.565 1.5-.725 1.063-3.14-3.304-4.043-3.683-3.295-1.382-2.782 1.5-5.614 1.163.34 1.156 1.744 3.956-.016 4.417-.365.096-1.806-2.2-3.569-1.79-4.672 1.088 1.482 3.979 2.793 4.551 2.431 1.06-.486 2.661-.894 4.034.007-.025-1.904 2.78-1.799 2.709-1.266.851-.372 1.4-2.657.6-1.357-.477-1.448 1.441-.052 1.526 3.391.21 3.737 1.676 6.592 2.374 2.875.702 3.386-1.411 6.435-1.43 1.124-.007 1.099 1.056 1.325 1.975.433 1.781-.451 1.475-1.562 2.666-3.632 3.904-4.048-4.816-6.319 1.095-.757 1.966-2.684 3.404-1.001 5.63.958 1.268 2.246 1.152 3.685 1.138 1.719-.016 2.242 1.808 3.703 2.148 1.225.285 1.614.146 2.743-.479 2.064-1.147.953.027 2.574.933 1.161.648 1.717 1.512 3.044 2.039 1.439.57 3.792.162 5.051 1.028 2.666 1.831 1.528 7.32-2.141 7.372-2.045.03-2.6-1.77-5.037-1.439-.538.075-3.42.855-3.614.78-1.074-.422-2.278-2.987-3.601-2.611-1.535.436-1.968 1.979-3.822 1.179-3.238-1.396-3.671 1.177-6.991.691.764.404 1.245 1.407 1.963 1.899-1.692 1.56-3.363 3.988-5.046 5.345-1.521 1.222-3.819 1.284-3.986 3.699-.084 1.25 1.012 2.488 2.214 2.353 2.187-.242.379 2.921 1.115 4.043.524.798 2.036.436 2.554 1.081.755.944.242 1.829.748 2.837 1.32 2.62 2.308 2.752.018 4.789-1.498 1.329-3.017 2.002-4.538 3.222-1.099.88-.994 2.458-2.759 2.536-1.261.055-2.527-.629-3.74-.089-2.736 1.222-4.155 4.773-6.624 5.826-1.325.563-6.068-1.323-4.98 1.838.965 2.798 1.199 2.392 2.989 3.051-.438-.16.857-.716 1.27-.632 1.204.249 2.137 1.731 3.48 2.066 8.157 2.029-1.117 4.526 1.053 5.99 3.674 2.476 8.519 1.979 13.397 2.1-.821 3.863 2.93 5.603 6.116 5.347 2.185-.176 4.011.935 6.027 1.496 2.458.684 1.389 5.546 4.868 6.378-6.223.789-3.525 11.805-5.548 15.807-1.375 2.718-4.435 2.944-7.194 3.881-2.65.901-6.642 3.11-9.591 2.755-3.117-.376-7.415-.082-10.241-1.475-2.821-1.391-2.086-5.409-4.444-6.052-2.627-.716-3.541 2.216-3.952 4.114-.493 2.269-.556 2.955-1.56 5.119-1.252 2.693-9.969 6.779-8.663 2.007.139-.509 2.269 1.038 1.998-1.01-.016-.105-2.141-1.359-2.472-1.576-2.102-1.375-3.655 1.263-5.395-1.058-1.231-1.642-5.664-.363-7.523-1.181-1.008-.442-3.655-4.125-4.048-4.091-3.005.253-.914-.579-2.05-2.367-.944-1.484-2.036.477-2.15-2.483-.057-1.569 2.49-2.504.214-4.592-1.626-1.491-4.184.705-4.59-1.968-.303-2.016-1.863-1.642-3.115-.926-1.963 1.124-.205 2.128-2.83 2.294-.987.064-.942-1.945-3.265-.638-.768.431-3.687-2.139-4.816-1.389-1.979 1.313-.331 5.47-.912 7.29-.78 2.451-3.865-1.316-5.046 1.282-2.18 4.793-5.119-3.585-5.851-4.184-1.626-1.334-1.12-.625-2.102-3.044-.196-.481-4.818.732-6.066.727-.579-.002-1.133.518-1.808.474-.867-.057-1.227-1.177-2.128-1.022-2.958.504-.059 2.65-.894 3.614-1.61 1.863-3.687-1.624-4.508-2.832-1.847-2.718-1.975 2.476-1.998 2.524-.543 1.035-1.279.668-1.909 1.553-.871 1.231.26 1.897-1.45 2.504-1.354.479-2-1.519-3.304-.442-1.069.882-.483 4.15-1.11 5.343-1.852 3.525-6.497 4.481-9.078 7.242-2.221 2.376-3.772-2.787-5.185-3.484-1.92-.944-3.284.303-5.005-1.313-1.521-1.427-3.776-2.898-4.798-4.732-1.51-2.716.032-2.579-3.806-3.69-2.082-.602-3.265-4.143-5.808-4.39-4.255-.417-1.747 2.492-3.733 3.696 3.067 1.551 3.4 2.611 3.459 5.63.064 3.049 1.744 7.272-1.863 8.811-2.891 1.234-4.244-1.204-4.351-3.776-.087-2.107 3.443-7.698 1.325-8.189-2.356-.547-3.482-2.182-5.343-3.311-2.077-1.256-1.227-5.489-3.464-5.838-1.482-.228-1.484-1.674-2.593-2.54-1.147-.896-3.963-.832-5.473-1.291-2.305-.702-2.926-3.382-3.446-5.324 3.058-1.801-9.764-8.305-9.776-5.014-2.324-.34-4.675 1.863-6.426.746l.322-.68c-1.64.187-2.413-.274-3.537-.066-.773.141-.894.274-1.393.876-.495.593-1.925-.595-2.85.043-2.112 1.455-4.661-10.863-5.694-11.536.844.55-3.56 1.722-3.756 1.831-1.984 1.117-.944 2.381-3.664 2.479-1.763.064-1.726-1.243-3.598-.258-3.236 1.703-.472 5.279-2.497 7.076-3.09 2.739-1.95-1.487-3.448-2.171-.946-.431-3.156 2.1-4.597 2.333-2.048.328-2.919-.538-3.717-2.228-.363-.768 3.797-.638 3.274-3.056-.036-.166-2.825-2.529-3.051-2.586-1.605-.406-4.579.16-6.508.03-2.333-.157-1.462-1.879-3.154-2.558-4.114-1.646-.939 3.188-1.095 5.046-.164 1.961-4.497 2.529-2.305.014-.695-.347-1.852-.709-2.634-.903.23 1.886-1.092 1.779-1.393 3.179-.577 2.679.328 2.652-1.357 4.474-1.252 1.35-1.653.244-2.399 1.653-.999 1.884.242 2.577-2.235 3.838-2.458 1.252-5.295.953-7.425 2.816-3.076 2.686-3.215 3.981-7.39 4.018-2.346.023-3.737-1.031-5.231.593-1.188 1.291-1.514 4.709-.52 5.906 2.513 3.021-1.785 4.374-4.091 4.946-3.042.757-4.784 4.091-7.301 5.988-3.703 2.791-3.3-.554-6.873-.643-2.597-.066 1.498 2.358 1.576 3.083.303 2.807.007 5.589.593 8.419.299 1.448.723 2.688 1.377 4.004.709 1.432-.023 2.891.531 4.143.306.691 1.758.36 2.137 1.519.42 1.282.189 1.706-.283 2.789-1.277 2.921-5.375 4.018-8.02 5.065-2.859 1.131-2.039 1.815-5.078-.481-.392-.296-1.199.023-1.772-.463-.198-.169-1.685-2.447-1.822-2.734-.841-1.77-.91-3.717-1.751-5.468-.604-1.256-2.269-2.775-3.078-4.002-1.117-1.69-6.604-8.704-8.551-8.695-2.597.011-3.124 3.147-4.353 4.743-.563.73-1.783.351-2.157 1.391-.271.762.716 1.056.518 1.744-.194.673-1.384 1.204-1.339 1.861.096 1.411 1.455 2.114 1.475 3.473.05 3.336-4.105 5.493-6.64 6.622-5.94 2.647-5.206 14.133-6.152 19.809-.292 1.763 3.733 2.964 4.919 4.531 2.023 2.672.661 5.352-1.152 7.776-1.197 1.601-3.268 1.95-4.428 3.601-1.931 2.752-2.7 7.459-3.84 10.606-.376 1.042-3.092 6.18-2.613 7.199.65 1.38 8.152 2.848 9.68 3.379 1.934.675 4.175.832 5.165 2.556.121.205-.764 1.277-.743 1.596.002.009.7 2.023.732 2.096.084.198.109 1.368.185 1.678.242.999 1.781-.632 1.377 1.272-.182.86-2.381 1.633-2.971 2.143-.607.527 1.448 2.112 1.646 2.613.689 1.751-.463 2.481.05 3.735.55 1.341 5.708 4.773 5.97 3.913.554-1.845-.645-4.266 1.327-4.827.855-.244 3.888 1.854 4.745 2.264 1.38.659 4.038.075 5.53.05 7.826-.121 8.15 5.001 12.277 10.736 1.097 1.523 2.406 1.535 3.468 3.051 1.868 2.663 1.863 6.613 3.621 9.365 2.162 3.391 4.328 6.779 6.49 10.172 1.421 2.226-2.88 4.811-5.008 3.993-1.341-.518-1.158-2.292-2.732-2.777-2.545-.784-3.601 1.665-4.504 3.523 1.788.153 2.679 1.952 1.972 3.156 1.295.392 3.145-.034 4.207.873.942.805 1.811 2.424 3.222 2.096 1.829-.422 6.996 4.198 8.695 5.174.274-2.866-3.129-3.003 1.507-2.317-.618-.871-1.106-1.646-1.594-2.527 1.557.433 1.911 1.909 3.359 2.775.422-1.799-1.767-2.894-2.08-4.624.634.807 1.541 1.5 2.718 1.598-.449-1.471-1.747-2.235-2.08-3.708.695 1.131 2.08 1.972 2.894 1.11.433 1.006.816 1.489 1.754 1.906-.584-1.024-.851-2.075-.81-3.249.071 1.915 2.232 1.409 2.574 3.249.392-.28 1.017-.629 1.12-.702-.166-.689.048-1.505-.105-2.15.604.668 1.411 1.3 1.877 2.15-.046-.438.052-.953 0-1.389.226.237.96.568 1.286.974.064-.349.303-1.033.324-1.202.358.436.709.561 1.079.908.274-1.302 2.082-2.141 3.402-3.017 1.158-.766 1.482.303 2.399-1.279.832-1.437 2.237-3.005 3.71-3.208-.021.333-.171.796-.239 1.122 1.117-.369 2.962-3.124 3.772-4.317-.052.554-.087 1.092-.157 1.637.451-.714.691-2.531 1.352-2.939.686-.422.86.739 1.432.707 1.022-.062 3.056-.764 1.53 1.275 1.473-.173 1.491-1.881 1.507-3.448 1.286.433 2.408-.223 3.19-1.339-.233.616-.123 1.756-.271 2.349.965-1.081 1.571-3.471 2.342-4.223.657-.643.921.413 1.179.249.381-.246 1.124-.848 1.649-1.161 4.079-2.431 8.715-2.116 12.97-.036.62.303 1.902 3.277 2.367 2.018.499-1.352.394-2.622 1.822-1.491.536.424-.566 1.89-.265 2.456.317.593 1.131 1.222 1.671 1.667 1.001.83 2.308-.121 3.318-.324-.388.356-.641.805-.974 1.211.882.597 1.587.383 2.497.324 1.97-.13-.454-2.155 1.263-1.069.107.066 1.026 3.049 2.296 3.566 5.01 2.048 1.478-1.751 2.089-2.483-.312.374 3.311.005 3.84-.451.762-.652 1.179-3.197 1.665-3.434 1.174-.568 5.099 1.687 6.811 1.681.994-.002 3.97-.689 4.691-.109.566.454.798 1.227 1.297 1.754.545.57 1.364-.239 1.811.331.768.981 1.01 3.099.946 4.271-.105 1.943 1.507.463 2.043 1.669 1.186 2.682-.515 2.378-1.646 3.965l-.221-.684c.112 1.453-.746 3.662-1.601 1.621-1.297 1.84-1.156 4.49.974 2.091.084 1.076.132 1.409.481 2.33-.509-.363-1.17-.607-1.628-.926 5.34 5.133 1.95 16.416-1.833 21.592-1.498 2.05-4.925 4.852-5.042 7.4-.164 3.669 2.317 4 5.47 5.594 1.811.914 3.899 1.881 5.806 2.251 2.392.463.109 1.163-.472 1.498-2.816 1.621-8.296.513-11.187-.775-2.625-1.17-4.681-2.027-7.491-1.918-2.577.1-5.719 1.532-8.227.702-2.244-.743-5.651 1.589-6.875-2.299-1.339 2.337-6.129 6.535-8.022 2.244-.109 2.654-2.725 4.148-3.573 6.549-.643 1.815-.087 3.003.356 4.809.324 1.311-.919.458-1.309-.062-.917-1.222-1.719.217-2.7.561-1.229.433-3.021 1.671-3.578 2.641.075-.13 1.532.495.438 1.354-1.197.944.337 2.362 1.042 2.821 1.904 1.24 4.95 2.381 5.755 4.868 1.414 4.362 5.22.294 6.811 4.162.971 2.365-4.298 1.136-4.043-.303-3.653-.399-5.34 5.236-9.146.463.283-.408-1.389-2.34-2.768-2.73-.908-.255-1.872.269-2.285.269-.632-.002-1.872.116-3.103 0-1.416-.137-5.322-1.313-7.096-.896-1.459.342-.935 1.042-2.011 2.967l-.385-.949c-1.309 2.812-.34 7.655 2.506 8.998 2.942 1.391 6.684.807 9.714 2.216 2.973 1.384 1.692 3.078 2.381 5.655.534 2.007 2.162 4.333 3.049 6.565.727 1.833 1.473 3.66 2.344 5.491.905 1.902 1.991 1.909 2.789 2.809 3.16 3.562 2.914 8.61 1.443 13.166-1.302 4.036 7.796-.347 8.884.285 1.188.691.356 2.212.782 3.046.572 1.122 2.102 3.336 2.946 4.67.96 1.519 1.589 3.331 3.391 3.48 2.964.249 4.127-3.224 6.668.262 1.263 1.731 4.766-.369 7.837 1.076 2.212 1.042 5.477 3.774 3.188 6.77-.707-2.128-2.798-3.099-3.179-5.22-.629 1.651.83 1.633 1.484 2.992 1.079 2.235.935 3.824.271 6.141-.837 2.91-2.271 5.404-3.867 8.211-.534.942-1.095.759-1.389 2.086-.34 1.535.415 1.831.205 3.29-.182 1.275 1.097 2.07 1.259 3.42.237 1.954-1.204 3.507-1.172 5.418 6.709-7.06 13.707-14.065 23.594-16.172 4.531-.967 10.838-3.042 15.403-2.403 4.155.581 8.674 5.037 12.101 7.324 3.464 2.31 5.949 4.444 7.42 7.908 1.539 3.621 4.061 7.023 6.095 10.633 1.088 1.929 2.565 2.574 3.938 4.139.871.994.867 2.401 2.004 3.213 3.731 2.663 8.503-2.301 12.371-1.334l-.041-80.28c-.005-7.299-.007-14.603-.011-21.904-.002-3.001-1.526-12.931.002-15.412.949-1.539 8.578-2.764 10.46-3.368 6.045-1.938 12.092-3.879 18.135-5.826 6.084-1.959 12.184-3.856 18.302-5.71 4.314-1.307 11.504-5.236 15.479-2.554 9.96 6.72 19.927 13.429 29.917 20.11 5.495 3.678 11.002 7.343 16.509 11.007 2.711 1.804 5.724 3.448 8.264 5.482 2.6 2.08 1.877 2.844 3.021 5.755 1.858 4.734 7.919 9.379 11.249 13.21 1.785 2.059 8.079 11.673 10.891 11.155 8.857-1.626 17.729-3.094 26.615-4.545 4.588-.748 10.658.823 15.335 1.254 3.71.34 11.675 2.631 14.954.807 2.271-1.261 7.482-5.566 10.063-5.169 3.336.509 6.595 8.578 9.744 10.549 4.529 2.837 5.637 5.377 7.983 10.188.513 1.051 2.223 5.981 3.288 6.348 1.028.351 5.94-3.078 6.959-3.63-.566 8.873-2.027 17.269-2.15 25.751-.016 1.133-.771 4.866.185 5.669.844.709 5.438.025 6.665.032 5.085.018 4.643-.807 5.185 4.474.552 5.347 1.715 10.587 2.862 15.839 1.325 6.059 2.317 6.44 8.391 6.086 4.814-.283 9.625-.65 14.441-.871 2.574-.119 5.452 1.377 7.429-.68.504 1.77 1.827 3.067 2.276 4.882.773-.458.554.016 1.113 0 .148-.089.673-.618.828-.741-.034.627.219.805.328 1.147-.208.192-.552.301-.741.499 1.56 2.08-.81 5.165-2.547 6.248 3.083.645 6.665 4.684 9.646 6.25.255.13 4.132.493 4.456.265 1.53-1.09.068-2.584-.205-3.717-.527-2.178-.463-3.747-.317-5.956.052-.025.408.239.433.214.49-1.117 2.419-2.634 3.249-3.623.853-1.019 2.495-2.367 3.119-3.423.6-1.012 1.596-.778 2.568-1.252 1.954-.951 1.603-2.408 1.97-4.364.438-2.34-.581-1.35 1.833-2.802 1.414-.848 1.712-1.168 3.217-1.548.919-.235 2.757-.645 3.06-.933.116-.109-.794-1.044-.317-1.45.315-.274 1.168-.789 1.434-1.076.871-.946 3.512-3.012 4.909-3.402 4.125-1.145 6.316-1.357 9.632-3.99 2.048-1.628 4.551-4.629 5.605-6.946 2.328-5.124 4.535.513 6.33.258 1.927-.274 1.929-4.524 3.471-5.473 1.681-1.033 3.188.228 5.169-1.829-3.058-.518-1.375-1.742-1.113-3.108.153-.81.887-3.306 1.621-4.004.536-.515 1.633 1.469 2.214.096.326-.766-1.088-1.129-.971-1.457.358-1.003-1.154-1.783.946-2.116 1.405-.221 2.011-.212 1.97-1.712-.027-.903 1.37-3.058 2.303-3.493 1.138-.529 1.922.981 2.907-.442 1.069-1.548 1.751-.766 3.389-.782 1.783-.018.684 1.434 2.91-.002 1.526-.985 2.504-.721 4.111-1.309 1.947-.714 4.276 1.758 6.061 2.219 2.367.607 4.638-.878 7.126.796 2.741 1.845 5.525.93 8.175 2.52 1.838 1.101 1.982 3.097 4.273 3.676 2.549.643 9.335-1.462 9.5 2.672.048 1.279 4.102 2.027 4.485.992.422-1.136-2.431-5.366-1.906-7.659.369-1.624 1.66-3.001 1.945-4.654l-.331-2.73c.401-2.72 1.899-4.759 4.346-5.774 1.43-.595 3.548-.846 4.789-1.519 1.316-.714.971-2.292 2.397-2.818.383-.139 7.935 2.207 4.529-1.605 2.483 1.92 8.033 3.042 9.509 5.616 2.387 4.155 8.679 3.678 12.22 6.469 1.979 1.557 11.586 3.425 13.663 1.925 2.052-1.482 1.09-3.363 3.968-3.724 1.564-.196 5.142.112 6.697.49 3.491.846 6.759 1.145 9.696.837 2.693-.283 4.478-2.027 6.668-2.381 4.485-.725 6.674 1.61 10.756 2.301 1.681.283 3.133-1.247 4.889-.319 1.895 1.003 3.268-.253 5.534.292 2.944.707 6.481 1.186 10.213 1.323 1.624.057 2.846-.308 4.239-.397 3.11-.198 4.449 1.076 7.153 1.952 2.251.727 4.898.68 7.108 1.539 1.368.536 2.137-.944 3.172-.716 2.248.493.479-.223 1.557 1.535 1.149 1.872.331 2.823 2.937 4.054 3.069 1.453 1.512 4.764 5.774 5.026 5.997.369 10.154.258 13.497 6.145.967 1.699 3.856 2.926 3.284-.018-.399-2.043-1.213-3.879-1.614-5.988-.654-3.457-1.446-5.466.251-9.03 1.578-3.322.741-1.808 3.571-2.96 1.051-.426 5.094-1.332 4.467-2.661-.654-1.384-4.392-.709-4.531-2.962-.08-1.284 5.518-4.305 6.661-4.244 1.058.055 3.069 2.23 3.537-.169.107-.547-.563-3.806-.976-4.369-1.975-2.682-2.59-.173-1.095-4.339.978-2.72-1.799-6.957-2.736-9.422-1.498-3.945-4.417-8.619-5.279-12.514-.461-2.089.664-4.079.239-6.246-.638-3.265-1.578-6.613.052-9.785.342-.668-.406-1.526-.312-1.71.326-.641.823-1.028 1.227-1.649 1.179-1.813 3.721-.876-.93-2.684-3.227-1.252-3.017-1.888-6.695-1.092-2.137.461-6.111-.967-5.334-3.491.237-.768 4.273-3.582 5.256-4.02 2.118-.942 5.01.173 7.201-.666.787-.301.481-1.594 1.295-1.936 1.033-.431 2.289.055 3.468-.388 3.167-1.193 5.402-.062 8.512-1.313 2.118-.851 4.54-1.671 6.807-2.387l6.221-1.954c1.206-.381 2.314-2.027 3.573-2.036 3.281-.021 1.719 2.914 2.882 4.608.771 1.122 3.632 1.954 4.973 1.845 3.514-.29 4.374-3.712 7.99-1.701 3.272 1.822 4.547 4.896 6.207-.835.394-1.368 1.694-6.202-.169-6.982-2.066-.864-6.501-.527-7.217-3.097-.436-1.571 1.708-6.408 2.501-7.783 1.475-2.552 2.422-4.996 2.802-7.956.775-6.056 3.56-10.861 5.379-16.541.926-2.894 1.179-6.125 2.495-8.875.974-2.034 3.669-5.436 3.197-7.853-.436-2.237-.198-8.015 2.54-8.074 1.161-.025 4.367 1.801 5.498 2.342 3.181 1.521 5.537 3.281 8.925 4.49 2.533.908 5.844 2.369 8.601 1.872 2.581-.465 4.193-1.393 7.185-.926 3.767.588 9.944-.625 7.76 5.133-.718 1.893 3.509-.027 4.134-.162 1.076-.235 3.249-2.522 4.239-3.272 1.083-.821 2.47-3.138 3.712-3.414 2.517-.556 4.93.394 6.373-1.352.746-.905.481-2.463 1.149-3.302 1.482-1.856 2.239-.333 2.853-3.309.16-.766.043-3.042-.192-3.774-.424-1.339-1.735-2.314-2.018-3.749-.292-1.507.315-3.01.253-4.535-.162-4.038-2.105-7.892-1.571-11.908.618-4.643 2.611-9.178 4.367-13.52 1.482-3.662 7.726-2.615 10.863-2.335 1.576.141 2.312-1.943 3.644-2.508 1.742-.743 3.605.317 5.407-1.302.898-.807 4.376-6.011 4.376-6.889 0-.702-.41-1.471-.299-2.166.105-.652 1.286-1.272 1.183-1.975-.196-1.339-1.722-2.159-1.847-3.781-.1-1.329 2.793-5.637 3.819-5.714 2.344-.182 2.796.324 5.345-.711 1.183-.479 4.002 1.179 5.199 1.453l-.358-1.026" fill="#D4D8D9" /></svg>