<svg width="2470" height="300" viewBox="0 0 2470 300" xmlns="http://www.w3.org/2000/svg" xmlns:sketch="http://www.bohemiancoding.com/sketch/ns"><title>Artboard 1</title><desc>Created with Sketch.</desc><defs><linearGradient x1="0%" y1="0%" y2="0%" id="a"><stop stop-color="#EE0784" offset="0%"/><stop stop-color="#B70565" offset="100%"/></linearGradient><linearGradient x1="0%" y1="0%" x2="0%" y2="100%" id="b"><stop stop-color="#EE0784" offset="0%"/><stop stop-color="#B70565" offset="100%"/></linearGradient></defs><g sketch:type="MSLayerGroup" fill="none"><path d="M0 300h1361c345.246-.089 356-300 356-300h-1717v300z" id="Fill-1" fill="#EE0784" sketch:type="MSShapeGroup"/><path d="M932 67s-1.116 31.116-37 31h-42v114c.132 10.691-8.184 19-18 19-10.719 0-19.045-8.309-19-19v-114h-41c-35.889.116-37-31-37-31h194zm108 31v33h40c35.781.481 36.893 31.596 37 32h-77v37h92c35.883-.116 37 31 37 31h-147c-10.668 0-19-8.309-19-19v-126c0-10.691 8.332-19 19-19h147s-1.117 31.116-37 31h-92zm333 102c35.889-.147 37 31 37 31s-147.033-.043-147 0c-10.181-.043-18.177-7.747-19-17v-1c.182.106 0-146.861 0-147 0 .139 36.984-4.386 37 38 .064 9.915.128 61.596 0 96m-594 0c35.889-.147 37 31 37 31s-147.038-.043-147 0c-10.176-.043-18.172-7.747-19-17v-1c.182.106.091-72.057 0-72v-75c0 .139 36.989-4.386 37 38 .069 9.915.176 95.848 0 96m-116 29c0 .353-32.617 6.391-48-18-4.469-8.502-44.716-82.704-60-109 .051-.936-.622-1.953-2-2-.085.047-.517.441-1 1-7.643 13.667-22.887 41.527-36 66h33c36.084-.193 37.2 30.87 37 31h-87c-3.807 6.286-6.381 10.888-7 13-15.388 24.391-48 18.353-48 18l83-148c4.334-8.308 11.345-14.479 25-15h2c14.292.096 21.522 6.469 26 15l83 148z" fill="#fff" sketch:type="MSShapeGroup"/><path d="M2075 170h-42c-50.997-.5-59.135-44.129-59-44-.135-.129 108.876-.053 160 0l23 44h-82zm-39 54c-.622-.058-2.288-.077-3 0-17.338-1.028-33.818-7.192-47-18-13.441-10.048-23.567-24.621-28-41-5.338-15.924-5.19-33.779 0-50 5.287-15.85 15.601-30.254 29-40 27.009-21.173 67.047-22.417 95-3 14.722 9.748 26.912 10.708 38 8 11.128-1.894 19.047-8.37 19-9-16.378-23.821-41.611-42.004-70-50-28.276-7.365-59.134-4.571-86 8-26.083 12.84-47.768 35.093-60 62-11.381 27.049-13.109 58.04-5 86 9.002 28.349 27.825 53.108 53 69 18.837 12.001 42.341 18.511 65 19l-1-41h1z" fill="#EE0784" sketch:type="MSShapeGroup"/><path d="M2114 170c-.086.725-.585 1.705-1 3-6.501 15.492-18.005 29.015-32 38-13.934 8.762-31.139 13.232-47 13l1 41c6.679.114 13.376-.263 20-1 28.802-4.731 56.091-19.786 75-42 13.08-14.91 22.128-33.096 27-52h-43z" fill="url(#a)" sketch:type="MSShapeGroup"/><path d="M1717 198l111-196c.242 0 30.919 30.457 14 61-15.769 27.601-75.727 135-76 135h-49" fill="url(#b)" sketch:type="MSShapeGroup"/><path d="M1717 198h258s-11.554 42.893-47 43c-31.319-.06-186.985 0-187 0l-24-43" fill="url(#a)" sketch:type="MSShapeGroup"/><path d="M1899 145c-.152-50.183-44-44.837-44-45v154c.148 50.176 44 44.838 44 45v-154" fill="#EE0784" sketch:type="MSShapeGroup"/><path d="M2230 276h30v5c-.24 8.311-1.829 9.474-13 9h-28c-10.302.474-13.736-1.348-14-12v-19c.264-12.836 1.909-14.57 14-15h29c10.059.43 11.592 2.144 12 8v4h9v-6c-.164-8.87-6.271-14-17-14h-37c-12.857 0-19 7.168-19 22v18c0 19.616 7.808 23 24 23h28c13.273 0 21-3.041 21-19v-12h-39v8m102-13h-25c-11.725-.406-13.338-2.164-13-9-.338-6.685.093-9.57 10-10h28c12.28.43 13.222.658 14 10v1h9v-1c.159-6.253-1.055-10.692-4-14-3.796-3.676-10.275-4-19-4h-28c-14.118 0-19.68 4.974-20 18 .32 11.394 3.26 16.321 21 17h29c12.175.436 12.682 2.245 13 9-.318 9.255-2.587 10.474-12 10h-28c-6.111.474-10.008.474-12-1-1.092-1.631-1.599-4.443-2-10l1-2h-10v2c-.412 7.039.698 11.973 4 15 3.454 4.201 9.744 5 19 5h29c14.872 0 20-4.735 20-19 0-12.86-3.463-17.231-24-17m113-26l-29 49-28-48-1-1h-16v62h9v-53h2l31 53h6l31-53h2v53h9v-62h-16m-281 3v13h-13v6h13v13h6v-13h13v-6h-13v-13h-6z" fill="#EE0784" sketch:type="MSShapeGroup"/><path d="M2262 125s.557 15.352 18 15h21v57c-.423 4.912 3.7 9 9 9 4.855 0 8.986-4.088 9-9v-57h21c17.455.352 18-15 18-15h-96zm199 0h-73c-4.881 0-9 4.092-9 9v63c0 4.912 4.119 9 9 9h73s-.541-15.352-18-15h-46v-19h38c.243.215-.298-15.129-18-15h-20v-17h46c17.459.352 18-15 18-15zm-202 66h-46c.341-.276.305-42.48 0-47 .269-21.176-18-18.93-18-19v72c.392 5.207 4.325 8.972 9 9h73s-.561-15.276-18-15z" fill="#636462" sketch:type="MSShapeGroup"/></g></svg>