<svg viewBox="0 0 1398 249" xmlns="http://www.w3.org/2000/svg" xmlns:sketch="http://www.bohemiancoding.com/sketch/ns"><title>madeby</title><g sketch:type="MSArtboardGroup" fill="none"><path d="M112.764 69.72c-8.865-13.325-11.017-30.621-4.975-46.48-4.745-3.966-11.372-6.427-18.241-6.64-7.088 9.588-8.915 22.823-3.317 34.86 5.018 10.663 15.419 17.32 26.533 18.26zm46.432-23.24c8.05-15.908 5.58-33.647-3.317-46.48-16.421.468-31.517 9.622-38.141 24.9-8.024 15.897-5.554 33.636 3.317 46.48 16.436-.468 31.543-9.633 38.141-24.9.671-.209-6.598 15.267 0 0zm116.08 91.3c-12.694.552-24.107 4.743-33.166 11.62-.116 1.515-.072 2.868 0 4.98-.072 42.224-29.039 78.677-67.99 89.64 33.625-10.63 58.369-42.715 58.04-79.68.329-48.326-38.177-86.32-84.573-86.32-46.593 0-85.088 37.994-84.573 86.32-.515 37.031 24.317 69.161 58.04 79.68-39.027-10.841-68.104-47.35-67.99-89.64-.114-5.948.305-11.059 1.658-16.6-30.2.973-54.724 25.386-54.724 56.44 0 29.968 24.899 54.78 54.724 54.78.355 0 .554-.022 0 0h218.894c.873-.022 1.06 0 1.658 0h1.658c29.567-1.508 53.065-25.699 53.065-54.78-.011-31.309-24.932-55.888-54.724-56.44zm1081.724 23.22h-39v86h39c23.076 0 41-19.393 41-43 0-23.977-18.466-43-41-43zm-5 70h-17v-54h17c15.169 0 26 12.014 26 27 0 14.977-10.84 27-26 27zm-107-12c.284 7.42-5.606 13.234-13 13-7.376.234-13.284-5.589-13-13v-58h-18v57c0 17.331 13.841 31 31 31s31-13.669 31-31v-57h-18v58zm-133-60c-24.387 0-45 19.995-45 45 0 24.816 20.613 45 45 45 25.387 0 46-20.184 46-45 0-25.005-20.613-45-46-45zm0 73c-15.365 0-27-12.684-27-28s11.635-28 27-28 27 12.684 27 28c0 15.307-11.635 28-27 28zm-119-71h-18v86h53v-16h-35v-70zm-129 43c0 25.014 20.677 45 46 45 4.69 0 9.431-.901 14-2v-19c-3.291 2.095-8.412 4.087-14 4-15.805.087-27.517-12.637-28-28 .483-15.363 12.195-28.087 28-28 5.597-.087 10.528 1.905 14 4v-19c-4.569-1.279-9.31-2-14-2-25.323 0-46 19.995-46 45zm-119 42h18l7-15h28l7 15h18l-39-88-39 88zm30-30l9-21 9 21h-18zm-116-1l-30-57-17 88h16l8-41 23 43 22-43 8 41h16l-17-88-29 57zm-120-54h-18v86h53v-16h-35v-70zm-141 85h18l7-15h28l7 15h18l-39-88-39 88zm30-30l9-21 9 21h-18z" fill="#9E9EA8" sketch:type="MSShapeGroup"/><path d="M462.008 73.539c-1.078.516-2.367.996-3.867 1.441-1.5.445-3.117.844-4.852 1.195-1.734.352-3.504.621-5.309.809-1.805.188-3.551.281-5.238.281-4.828 0-9.258-.797-13.289-2.391-4.031-1.594-7.488-3.82-10.371-6.68-2.883-2.859-5.133-6.27-6.75-10.23-1.617-3.961-2.426-8.309-2.426-13.043 0-5.344.75-10.16 2.25-14.449s3.633-7.945 6.398-10.969c2.766-3.023 6.117-5.355 10.055-6.996 3.938-1.641 8.367-2.461 13.289-2.461 1.875 0 3.609.105 5.203.316 1.594.211 3.129.504 4.605.879 1.477.375 2.941.844 4.395 1.406 1.453.563 2.953 1.195 4.5 1.898v13.641c-1.828-1.219-3.527-2.238-5.098-3.059-1.57-.82-3.07-1.477-4.5-1.969-1.43-.492-2.812-.832-4.148-1.02-1.336-.188-2.707-.281-4.113-.281-2.906 0-5.578.527-8.016 1.582-2.438 1.055-4.523 2.543-6.258 4.465-1.734 1.922-3.082 4.219-4.043 6.891-.961 2.672-1.441 5.648-1.441 8.93 0 3.375.516 6.387 1.547 9.035 1.031 2.648 2.508 4.887 4.43 6.715 1.922 1.828 4.23 3.234 6.926 4.219 2.695.984 5.707 1.477 9.035 1.477 2.719 0 5.437-.352 8.156-1.055 2.719-.703 5.695-1.781 8.93-3.234v12.656zm159.992 17.508h-12.58v-14.644h-42.771v14.644h-12.65v-26.245h5.311l26.068-54.755h7.128l24.251 54.755h5.242v26.245zm-19-27l-15.36-34-15.64 34h31zm123.953-18.538c2.088 12.895 9.418 19.343 21.992 19.343 4.033 0 7.9-.677 11.601-2.032 3.701-1.355 7.473-3.247 11.316-5.677v12.335c-1.993 1.308-3.95 2.43-5.872 3.364-1.922.934-3.914 1.717-5.978 2.348-2.064.631-4.258 1.098-6.583 1.402-2.325.304-4.887.456-7.686.456-5.077 0-9.584-.946-13.522-2.838-3.938-1.892-7.259-4.427-9.964-7.604-2.704-3.177-4.757-6.833-6.156-10.968-1.4-4.135-2.1-8.422-2.1-12.86 0-4.906.747-9.368 2.242-13.386 1.495-4.018 3.594-7.464 6.299-10.337 2.704-2.873 5.931-5.093 9.679-6.658 3.748-1.565 7.876-2.348 12.384-2.348 4.365 0 8.291.736 11.779 2.208 3.487 1.472 6.465 3.679 8.932 6.623 2.467 2.944 4.365 6.635 5.694 11.073 1.329 4.439 1.993 9.625 1.993 15.559h-46.047zm33.047-8.462c-.19-4.934-1.639-8.834-4.348-11.7-2.708-2.866-6.367-4.3-10.976-4.3-5.037 0-9.016 1.386-11.938 4.159-2.922 2.772-4.835 6.72-5.738 11.841h33zm134.704-27h4.624l27.672 66h-13.661l-16.744-42.64-17.514 42.64h-14.081l29.704-66zm158.01 26.842v-3.434c0-4.065-.97-6.973-2.91-8.725-1.94-1.752-4.897-2.628-8.872-2.628-3.549 0-7.086.853-10.611 2.558-3.525 1.705-6.849 4.404-9.972 8.095v-13.947c5.063-5.84 12.279-8.76 21.648-8.76 3.312 0 6.411.42 9.298 1.262 2.886.841 5.394 2.126 7.523 3.855 2.129 1.729 3.809 3.936 5.039 6.623 1.23 2.687 1.845 5.852 1.845 9.496v33.15c0 1.215.201 2.067.603 2.558.402.491 1.005.736 1.81.736.662 0 1.609-.304 2.839-.911s2.579-1.448 4.046-2.523v7.779c-1.467.981-2.756 1.787-3.868 2.418-1.112.631-2.141 1.133-3.087 1.507-.946.374-1.857.642-2.733.806-.875.164-1.81.245-2.804.245-2.839 0-5.051-.502-6.636-1.507s-2.685-2.698-3.3-5.081c-2.839 2.243-5.725 3.901-8.659 4.976-2.934 1.075-5.891 1.612-8.872 1.612-2.413 0-4.602-.432-6.565-1.297-1.964-.864-3.655-2.021-5.075-3.469-1.42-1.448-2.508-3.119-3.265-5.011-.757-1.892-1.136-3.89-1.136-5.992 0-2.944.544-5.443 1.632-7.499 1.088-2.056 2.602-3.843 4.542-5.361 1.94-1.518 4.282-2.862 7.027-4.03 2.744-1.168 5.773-2.336 9.085-3.504l11.427-3.995zm.286 7.158c-2.8.93-5.467 1.884-8.002 2.86-2.534.977-4.767 2.047-6.698 3.209-1.931 1.163-3.464 2.465-4.598 3.907-1.134 1.442-1.702 3.116-1.702 5.023 0 1.302.241 2.512.724 3.628s1.134 2.07 1.955 2.86c.821.791 1.822 1.407 3.005 1.849 1.183.442 2.45.663 3.802.663 2.076 0 4.067-.465 5.974-1.395 1.907-.93 3.753-2.209 5.54-3.837v-18.767zm172-33v65h-12.952v-27.766h-32.096v27.766h-12.952v-65h12.952v25.647h32.096v-25.647h12.952zm128.95-1c5.054 0 9.722.818 14.004 2.453 4.282 1.635 7.979 3.913 11.091 6.833 3.112 2.92 5.534 6.389 7.265 10.407 1.731 4.018 2.597 8.41 2.597 13.176 0 5.093-.854 9.742-2.562 13.947-1.708 4.205-4.095 7.803-7.16 10.793-3.065 2.99-6.739 5.303-11.02 6.938-4.282 1.635-9.02 2.453-14.214 2.453-4.96 0-9.523-.853-13.688-2.558-4.165-1.705-7.756-4.065-10.775-7.078-3.018-3.014-5.37-6.611-7.054-10.793-1.685-4.182-2.527-8.749-2.527-13.701 0-4.626.866-8.936 2.597-12.93 1.731-3.995 4.13-7.476 7.195-10.442 3.065-2.967 6.668-5.291 10.81-6.973 4.141-1.682 8.622-2.523 13.442-2.523zm-.108 12c-3.008 0-5.792.536-8.353 1.609s-4.782 2.553-6.661 4.442c-1.88 1.889-3.337 4.139-4.37 6.75-1.034 2.612-1.551 5.456-1.551 8.534 0 3.404.505 6.506 1.516 9.304 1.01 2.798 2.444 5.188 4.3 7.17 1.856 1.982 4.065 3.509 6.626 4.582s5.393 1.609 8.494 1.609c3.384 0 6.438-.525 9.164-1.574s5.04-2.542 6.943-4.477c1.903-1.935 3.372-4.29 4.406-7.065 1.034-2.775 1.551-5.911 1.551-9.409 0-3.125-.552-5.993-1.657-8.604-1.104-2.612-2.632-4.873-4.582-6.785-1.95-1.912-4.276-3.404-6.979-4.477-2.702-1.073-5.651-1.609-8.847-1.609z" fill="#C0C0CC" sketch:type="MSShapeGroup"/></g></svg>