<?xml version="1.0" encoding="UTF-8" standalone="no"?>
<svg width="120px" height="120px" viewBox="0 0 120 120" version="1.1" xmlns="http://www.w3.org/2000/svg" xmlns:xlink="http://www.w3.org/1999/xlink" xmlns:sketch="http://www.bohemiancoding.com/sketch/ns">
    <title>plan-icon-generic</title>
    <description>Created with Sketch (http://www.bohemiancoding.com/sketch)</description>
    <defs></defs>
    <g id="Page-1" stroke="none" stroke-width="1" fill="none" fill-rule="evenodd" sketch:type="MSPage">
        <g id="plan-icon-generic" sketch:type="MSArtboardGroup" fill="#D4D8D9">
            <path d="M99.95,75.2 C95.889,79.26 90.49,81.5 84.75,81.5 C79.01,81.5 73.61,79.26 69.55,75.2 L62.83,68.48 L68.48,62.83 L75.2,69.55 C77.75,72.1 81.139,73.5 84.75,73.5 C88.35,73.5 91.74,72.1 94.29,69.55 C99.56,64.28 99.56,55.72 94.29,50.45 C91.74,47.9 88.35,46.5 84.75,46.5 C81.14,46.5 77.75,47.9 75.2,50.45 L68.48,57.17 L65.66,60 L60,65.66 L57.17,68.48 L50.45,75.2 C46.39,79.26 40.99,81.5 35.25,81.5 C29.51,81.5 24.11,79.26 20.05,75.2 C15.99,71.139 13.75,65.74 13.75,60 C13.75,54.26 15.99,48.86 20.05,44.8 C24.11,40.74 29.51,38.5 35.25,38.5 C40.99,38.5 46.39,40.74 50.45,44.8 L57.17,51.52 L51.52,57.17 L44.8,50.45 C42.25,47.9 38.86,46.5 35.25,46.5 C31.65,46.5 28.26,47.9 25.71,50.45 C23.15,53.01 21.75,56.4 21.75,60 C21.75,63.6 23.15,67 25.71,69.54 C28.26,72.1 31.65,73.5 35.25,73.5 C38.86,73.5 42.25,72.1 44.8,69.55 L51.52,62.83 L54.34,60 L60,54.34 L62.83,51.52 L69.55,44.8 C73.611,40.74 79.01,38.5 84.75,38.5 C90.49,38.5 95.89,40.74 99.95,44.8 C108.33,53.18 108.33,66.82 99.95,75.2 L99.95,75.2 Z" id="Shape" sketch:type="MSShapeGroup"></path>
        </g>
    </g>
</svg>