<svg width="497" height="494" viewBox="0 0 497 494" xmlns="http://www.w3.org/2000/svg" xmlns:sketch="http://www.bohemiancoding.com/sketch/ns"><title>amex</title><path d="M457.695 240.648c-2.249.631-6.235 2.918-6.23 2.918v-4.851s-23.74.038-35.533 0c-4.301.316-8.64.512-12.783 1.775-2.21.675-6.114 3.077-6.114 3.077v-4.852h-67.926v4.775s-3.904-1.975-6.033-2.646c-3.75-1.224-7.726-1.616-11.673-1.855-3.278-.431-9.861-.274-9.861-.274h-35.895v4.733c-2.837-1.776-5.96-3.195-9.271-3.746-3.986-.551-8.004-.632-11.994-.987h-48.081l-11.597 12.11-11.003-12.11h-74.786v80.825h73.719l11.67-12.268 11.204 12.268h45.005v-18.775s10.415.197 15.582-.593c2.799-.474 8.162-2.287 8.162-2.287v21.655h37.359v-20.87s2.419-.063 3.584.159c.836.162.934 1.813.934 1.813v18.898h117.282c9.814-.014 14.712-4.771 14.712-4.771v4.771h12.894s22.263-.01 22.882 0c6.622.114 13.189-.411 19.247-2.957v176.469h-493.051v-273.31h24.456l5.326-12.864 12.032.042 5.363 12.821h46.664v-9.544l4.143 9.544h24.333l4.024-9.156v9.156h115.895v-21.141s2.019-.064 2.91.209c1.48.457 1.309 2.04 1.309 2.04v18.898h59.88v-4.814s4.813 2.21 7.415 2.88c7.138 2.048 22.046 1.934 22.046 1.934h18.304l5.444-12.938h11.712l5.598 12.938h48.197v-12.272l7.808 12.272h38.537v-80.666h-38.302v9.075l-5.602-9.075h-39.365v9.391l-4.889-9.391h-45.082c-4.851-.039-9.745.158-14.592.2-3.393.47-6.861.751-10.138 1.733-2.527.55-7.143 2.76-7.143 2.76v-4.697h-36.758v4.578s-5.9-4.544-14.161-4.578c-5.968-.022-18.184 0-18.184 0h-117.82l-9.349 20.749-8.994-20.749h-42.594l-.12 8.956-4.497-8.956h-36.168l-17.635 40.302v-179.379h493.052v238.715h-16.094c-6.464 0-13.132.039-19.366 1.934v-.001zm-283.509-78.004v10.296l31.24.077v7.458l.043 4.615h-29.623l-1.817.155-.158 11.047 32.346.039v12.189h-46.425v-58.021h46.388v12.108l-31.994.037zm119.911 45.877h-14.433l-.081-57.945 14.514-.077v58.022zm-144.444-58.022l.038 58.014h-14.358v-44.255l-8.482 18.143-11.515 26.112h-12.19l-7.693-17.041-12.74-28.322v45.363h-28.202l-5.009-12.783h-29.031l-4.77 11.521-.593 1.262h-15.108l24.85-58.023h20.71l5.167 12.305 17.119 39.838 1.104 2.526.038-54.664h22.759l12.822 27.925 5.205 11.439 12.74-29.619 4.143-9.741h22.998-.002zm-124.086 32.853h18.538l-3.707-9.426-5.563-12.778-8.441 20.155-.826 2.048-.001.001zm293.068-16.289c-1.028 1.501-2.095 3.08-2.649 4.859-1.264 5.086-1.293 10.493-.111 15.62 1.063 3.076 2.757 6.587 6.149 7.612 4.143 1.104 8.405 1.263 12.663 1.063 1.024-2.838 3.507-8.401 3.507-8.401l16.017-37.312h20.787l23.155 53.995.154-16.525v-37.47h21.777l1.971 3.823 9.506 15.778 2.765 4.728 9.344 15.223.043-39.555h14.512l-.039 58.021-19.606.115-26.351-43.149-.115 43.034h-28.288l-5.163-12.74h-29.108l-4.932 12.74s-13.133-.115-19.678 0c-3.626-.271-7.257-.941-10.611-2.406-4.928-1.698-8.794-5.76-10.808-10.529-2.014-3.67-2.411-7.933-2.923-11.995-.072-2.288-.153-4.617.086-6.904.551-3.627.862-7.33 2.168-10.766 1.421-4.296 4.258-8.043 7.808-10.764 1.545-1.225 3.435-1.819 5.214-2.646 5.679-2.009 11.788-2.052 17.745-2.009h9.191v12.539s-10.883-.116-16.29.158c-2.837.628-5.999 1.46-7.889 3.862l-.001.001zm38.338 11.555l-1.694 4.583h18.146l-1.779-4.696-2.364-5.722-4.928-11.635-2.526 5.679-4.855 11.793v-.002zm-85.831-7.098c-1.263 4.377-4.655 7.85-8.525 10.108 1.225.946 2.602 1.578 3.823 2.482 2.091 1.66 3.789 3.985 4.301 6.631.789 5.913.473 17.787.473 17.787h-14.122s.043-7.32-.081-11.046c-.059-1.72-.315-3.171-.712-4.731-.375-1.502-1.216-2.205-2.129-2.996-2.837-1.937-6.387-2.129-9.699-2.209-4.773-.082-14.672-.044-14.672-.044l-.038 2.445.038 18.577h-14.041v-57.984s23.864 0 35.815-.037c3.716-.043 7.462.429 10.931 1.731 2.918 1.306 5.798 3.158 7.338 6.038 2.211 4.02 2.249 8.875 1.302 13.248h-.002zm-17.278-7.535c-1.54-.789-3.311-1.148-5.005-1.263-5.411-.234-16.214-.115-16.214-.115h-2.84v12.817h15.458c2.846.04 5.841.278 8.409-1.143 3.311-2.249 3.669-8.009.192-10.296zm99.047 98.535v10.334h31.518v12.113h-31.518v11.435l32.307.038v12.15h-46.43l-.034-58.218h46.464v12.147l-32.307.001zm69.104 33.488c1.818 0 3.79-.634 4.77-2.248.947-1.104.823-2.683.708-4.027-.196-1.848-2.01-2.953-3.588-3.503-2.875-.276-5.755-.513-8.635-.474-4.3.12-8.559-.752-12.706-1.89-3.312-.948-6.388-2.919-8.278-5.837-3.506-6.515-3.434-15.112 1.221-21.027 3.435-4.185 8.917-6.707 14.238-6.624h29.939c0 3.546-.038 12.501-.038 12.501h-23.979c-2.487.039-5.17-.039-7.338 1.377-1.856 1.618-2.487 4.779-.789 6.747.632 1.061 1.929 1.38 3.034 1.735 7.141.593 14.476-.157 21.418 1.856 2.608.782 5.09 2.087 7.023 4.024 2.641 3.349 3.549 7.731 3.434 11.947-.278 3.635-.674 7.462-2.765 10.577-2.205 2.765-5.047 5.047-8.439 6.114-3.23.948-4.225 1.395-10.057 1.382-9.309-.034-27.929-.044-27.929-.044v-12.504s19.171 0 28.758-.082h-.002zm71.595-16.766c2.134 3.042 3.115 6.789 2.923 10.496.196 3.669-.436 7.459-2.368 10.654-1.612 3.469-5.085 5.598-8.635 6.703-2.961.87-5.914 1.493-9.114 1.502-9.583.017-28.753 0-28.753 0v-12.505s19.205 0 28.792-.043c1.941.041 3.788-1.063 4.697-2.798 1.544-2.211.315-5.566-2.087-6.584-1.028-.633-2.249-.475-3.354-.633-3.393-.478-6.789-.082-10.181-.397-3.985-.634-8.081-1.105-11.716-2.881-3.666-1.617-5.995-5.248-7.177-8.951-.746-3.826-1.024-7.892.235-11.638 1.181-3.747 3.785-7.066 7.219-8.956 3.114-1.894 6.86-2.803 10.491-2.837h29.111v12.462s-12.301-.003-26.351 0c-2.017 0-4.019.707-5.482 2.043-1.262 1.23-1.343 3.124-.789 4.661.355 2.05 2.522 2.918 4.297 3.237 2.918.038 5.76.55 8.678.391 2.645-.16 5.286.275 7.923.475 4.304.636 8.845 2.052 11.639 5.598l.002.001zm-240.14-28.123c4.813.866 9.583 3.234 12.51 7.266 2.368 4.381 3.468 9.505 2.641 14.438-.238 3.31-1.343 6.626-3.434 9.267-1.655 1.779-3.468 3.469-5.717 4.536-3.474 1.537-7.254 2.289-11.047 2.603-6.942.154-20.945.154-20.945.154v19.213h-27.178l-17.118-18.739-8.678 9.19-9.071 9.543h-54.908v-58.218h55.855l17.199 18.808 17.984-18.808s28.084-.009 42.125 0c3.29 0 6.592.077 9.785.747h-.003zm-89.459 39.37l10.214-10.957-15.343-16.926h-34.355v10.253h30.293v12.032h-30.293v11.515l33.925-.043 5.56-5.875-.001.001zm49.144.822v-33.882l-13.372 14.4-7.296 8.043 17.673 19.725 3 3.43v-11.716h-.005zm39.494-17.467c1.262-1.931 1.101-4.343.822-6.552-.626-2.327-2.994-4.534-5.439-4.614-1.694-.158-3.397-.244-5.125-.158-5.133.038-15.429.038-15.429.038v14.515s8.482.039 12.662.12c2.767-.082 5.604.272 8.326-.398 1.652-.511 3.431-1.337 4.182-2.951h.001zm78.327-4.54c-.668 5.325-4.534 9.822-9.193 12.181 1.975 1.574 4.497 2.449 6.114 4.497 1.976 2.325 2.252 5.524 2.53 8.442.077 4.737 0 14.162 0 14.162h-14.088s.124-8.878-.114-13.33c-.239-2.839-1.694-5.917-4.617-6.864-3.785-1.341-7.925-.943-11.909-1.029-3.39-.077-10.218.162-10.218.162v21.065h-14.2s-.077-38.814 0-58.218h33.494s3.149-.079 5.125.033c5.564.158 11.989 2.924 15.262 7.501 2.171 3.35 2.368 7.574 1.817 11.397l-.003.001zm-16.368 3.353c1.186-1.658 1.032-3.822.827-5.755-.354-2.287-2.739-3.452-4.889-3.789-1.993-.316-4.062-.435-6.076-.593-5.048 0-15.066.038-15.066.038h.081v12.818s13.095.319 19.644-.036c2.045-.156 4.297-.832 5.479-2.682v-.001z" fill="#D4D8D9" sketch:type="MSShapeGroup"/></svg>