<svg width="702" height="423" viewBox="0 0 702 423" xmlns="http://www.w3.org/2000/svg" xmlns:sketch="http://www.bohemiancoding.com/sketch/ns"><title>mastercard-active</title><path d="M479.228 0c-4.207.482-8.414.944-12.621 1.464-41.409 5.073-78.015 21.124-109.88 48.03-1.885 1.592-3.73 3.24-5.803 5.048-1.592-1.366-3.175-2.739-4.775-4.088-31.194-26.291-66.846-42.731-107.315-48.457-4.89-.691-9.83-1.037-14.74-1.566-.471-.056-.917-.282-1.375-.427h-25.6c-4.104.488-8.214.957-12.317 1.464-42.321 5.223-79.684 21.777-111.804 49.737-36.685 31.932-59.725 71.971-69.158 119.693-1.664 8.424-2.267 17.049-3.375 25.584-.099.733-.308 1.449-.465 2.176v25.599c.481 4.108.95 8.218 1.454 12.322 5.231 42.854 21.909 80.717 50.197 113.267 30.924 35.579 69.597 58.371 115.746 68.203 23.304 4.961 46.826 5.705 70.451 2.488 42.624-5.81 79.86-23.268 111.966-51.807.312-.273.666-.508 1.114-.845 2.683 2.282 5.295 4.566 7.97 6.779 29.896 24.698 64.009 40.334 102.401 45.463 66.649 8.909 125.14-9.486 174.331-55.421 34.529-32.235 55.948-72.192 62.971-118.878 10.905-72.499-9.656-135.402-61.85-187.088-31.706-31.399-70.371-49.84-114.522-56.577-5.379-.824-10.841-1.152-16.264-1.737-.559-.059-1.1-.281-1.651-.426h-25.088.002zm-441.14 159.8h32.517c.375 21.78.747 43.464 1.117 65.147l.398.082c2.245-6.836 4.493-13.666 6.733-20.506 4.662-14.246 9.335-28.489 13.983-42.739.422-1.298.814-2.19 2.551-2.177 10.751.094 21.503.052 32.255.06.329 0 .661.081 1.284.167-5.897 35.502-11.781 70.912-17.672 106.376h-22.315c4.283-27.054 8.542-53.941 12.804-80.827l-.312-.114c-1.544 4.27-3.107 8.536-4.634 12.816-7.846 21.977-15.705 43.951-23.488 65.951-.596 1.694-1.305 2.409-3.196 2.337-4.255-.162-8.517-.051-13.125-.051-.601-26.709-1.2-53.265-1.797-79.821l-.414-.069-13.491 79.714h-20.858c5.883-35.434 11.746-70.736 17.66-106.346zm615.28 29.852c.857-5.12 1.681-10.068 2.521-15.018.828-4.937 1.664-9.873 2.509-14.865h22.311c-5.782 35.52-11.529 70.866-17.306 106.373h-21.192c.289-2.535.576-5.019.904-7.877-.669.516-1.074.788-1.433 1.113-16.781 15.049-39.377 8.854-44.971-13.017-5.414-21.18-1.042-40.807 13.269-57.647 5.849-6.878 13.431-10.939 22.852-10.611 8.016.282 13.986 4.332 18.986 10.202.332.39.657.781.994 1.165.05.053.157.057.554.184l.002-.002zm-469.385 76.58c-6.161 0-12.199 0-18.415.004v-8.235l-.546-.49c-.46.691-.819 1.481-1.395 2.049-7.796 7.658-17.319 9.812-27.606 7.41-8.558-2.002-12.894-8.547-14.302-16.9-2.227-13.241 2.095-27.679 16.192-34.664 5.423-2.688 11.204-4.12 17.199-4.416 4.997-.249 10.015-.051 15.19-.051 2.953-6.332.239-11.772-7.057-12.621-9.041-1.054-18.036-.465-26.825 2.16-1.173.349-2.371.618-4.01 1.045.87-5.26 1.983-9.996 2.346-14.787.303-3.982 2.235-5.305 5.832-6.115 9.531-2.155 19.055-3.584 28.868-2.526 16.043 1.733 24.815 11.84 23.134 27.977-1.31 12.608-3.623 25.109-5.449 37.662-1.08 7.402-2.083 14.813-3.158 22.498h.002zm358.703.012h-18.21v-8.635c-.755.764-1.28 1.309-1.822 1.843-7.855 7.752-17.387 9.78-27.84 7.536-5.943-1.281-10.005-5.385-12.42-10.911-5.011-11.456-3.131-32.205 14.534-40.73 5.372-2.591 11.059-4.046 16.972-4.344 4.911-.248 9.852-.051 14.942-.051 3.213-6.29.833-11.653-6.4-12.552-9.373-1.17-18.721-.654-27.818 2.269-.644.204-1.296.405-1.958.554-.307.068-.639.013-1.288.013.819-5.008 1.919-9.83 2.308-14.711.299-3.777 2.129-5.043 5.521-5.824 10.713-2.471 21.435-4.172 32.401-2.036 12.8 2.496 20.045 10.858 19.597 23.833-.29 8.473-1.757 16.917-2.867 25.353-.849 6.42-1.989 12.799-2.936 19.203-.937 6.314-1.791 12.647-2.713 19.188l-.003.002zm-182.468-35.76c-.974 0-1.896 0-2.809-.01-13.226 0-26.448.043-39.671-.043-2.1-.013-2.825.575-2.811 2.727.042 7.218 3.788 12.406 10.961 14.1 10.397 2.466 20.479.995 30.241-3.123.619-.259 1.229-.561 2.24-1.018-.76 4.693-1.464 9.084-2.181 13.469-.235 1.429-.726 2.855-.721 4.279.009 2.992-1.45 4.164-4.279 4.834-9.382 2.223-18.828 3.328-28.403 1.912-17.134-2.531-26.691-12.084-29.175-29.662-1.941-13.752-.034-27.094 6.545-39.459 5.666-10.645 13.941-18.496 26.219-20.531 20.954-3.477 36.462 8.978 36.74 29.823.104 7.637-.926 15.096-2.896 22.7v.002zm125.504-44.737c-2.248-.964-4.25-1.874-6.285-2.701-18.01-7.232-32.784-.789-39.611 17.405-3.413 9.113-4.373 18.554-2.611 28.154 2.457 13.377 12.715 20.263 26.082 17.375 4.459-.959 8.756-2.684 13.517-4.186-.368 2.334-.726 4.694-1.11 7.048-.811 4.962-1.6 9.929-2.5 14.873-.123.683-.713 1.681-1.28 1.834-9.369 2.551-18.838 4.228-28.519 1.972-15.074-3.521-24.299-13.389-27.746-28.011-5.329-22.6-2.466-44.321 11.665-63.223 12.924-17.28 30.729-22.161 51.443-16.848 3.123.801 6.208 1.804 9.25 2.892.623.221 1.452 1.315 1.361 1.877-1.119 7.129-2.39 14.229-3.657 21.538l.001.001zm-233.93-5.853l-3.153 19.286c-3.273-.239-6.461-.618-9.656-.679-3.903-.072-7.859-.201-11.716.286-4.454.559-6.656 3.285-6.033 7.287.253 1.63 1.447 3.524 2.791 4.476 2.403 1.698 5.219 2.837 7.911 4.104 16.798 7.889 21.717 30.192 9.608 43.947-4.976 5.658-11.755 7.711-18.889 8.598-10.483 1.306-20.928.726-31.266-1.433-.711-.149-1.864-1.182-1.795-1.651.878-6.139 1.945-12.252 2.849-17.698 7.361.798 14.43 1.716 21.529 2.245 2.303.17 4.735-.491 7.014-1.118 2.761-.756 4.45-2.676 4.856-5.637.417-3.08-.721-5.363-3.384-6.839-2.381-1.323-4.829-2.525-7.266-3.746-5.871-2.953-11.277-6.455-14.447-12.496-8.691-16.568.959-36.161 19.75-40.014 10.283-2.112 20.536-.935 30.759.64.137.021.252.202.538.444v-.002zm36.179 66.973c-.666 4.521-1.694 8.943-1.856 13.396-.17 4.51-2.372 6.264-6.451 6.678-3.469.354-6.917 1.152-10.381 1.199-11.409.154-18.039-5.935-18.192-17.387-.078-5.9 1.045-11.853 1.983-17.724 3.432-21.448 7.002-42.872 10.586-64.293.137-.803.918-2.133 1.421-2.143 6.972-.141 13.952-.094 21.163-.094l-2.454 13.073h11.555c-.982 7.232-1.912 14.115-2.876 21.218-3.328 0-6.473.065-9.613-.025-1.454-.037-2.073.381-2.329 1.916-1.937 11.678-3.98 23.344-5.957 35.012-.182 1.084-.217 2.207-.182 3.311.115 3.793 1.834 5.551 5.67 5.812 1.276.084 2.56.041 3.836.051 1.254.008 2.513 0 4.079 0h-.002zm75.012 19.451c4.702-28.933 9.357-57.59 14.042-86.463h20.442l-1.826 12.112c5.443-7.053 10.461-14.435 21.226-12.975-1.686 4.185-3.457 8.123-4.855 12.185-1.414 4.092-2.458 8.313-3.688 12.557-.046.03-.191.193-.324.188-6.302-.272-10.061 3.195-11.597 8.793-2.365 8.607-4.432 17.31-6.182 26.066-1.708 8.511-2.826 17.143-4.302 25.707-.114.678-.998 1.74-1.536 1.75-7.066.123-14.128.08-21.402.08h.002zm232.281-62.254c-6.229-.593-9.766 3.093-11.366 8.482-2.274 7.654-4.19 15.446-5.739 23.283-1.86 9.438-3.158 18.987-4.783 28.476-.124.726-.897 1.911-1.383 1.92-6.971.132-13.952.089-21.191.089.784-5.133 1.513-9.988 2.286-14.844 3.686-23.219 7.411-46.434 11.029-69.662.289-1.852.904-2.419 2.727-2.381 5.199.102 10.4.029 15.606.042.743.004 1.485.107 2.48.188-.645 4.208-1.247 8.206-1.857 12.208 5.462-6.92 10.428-14.336 20.847-12.937-2.863 8.312-5.718 16.601-8.657 25.136h.001zm52.82 13.61c-.303-2.696-.435-5.431-.946-8.094-2.283-11.997-14.328-11.916-19.925-6.489-2.267 2.197-4.268 4.928-5.612 7.782-3.687 7.842-4.39 16.222-2.991 24.712.747 4.532 2.663 8.584 7.535 10.065 5.197 1.578 9.89.265 13.529-3.664 1.984-2.143 3.614-4.75 4.878-7.4 2.525-5.304 3.234-11.063 3.532-16.913v.001zm-480.575 10.064c-6.473-.891-12.605-.793-18.326 2.27-5.082 2.722-7.424 9.392-5.372 14.784 1.003 2.637 2.919 4.177 5.662 4.532 3.98.511 7.646-.424 10.692-3.107 5.526-4.868 7.057-11.332 7.343-18.479h.001zm358.908.004c-6.251-.883-12.211-.777-17.869 1.847-5.115 2.373-7.719 7.745-6.72 13.334.665 3.716 3.4 6.188 7.168 6.473 4.142.312 7.739-.972 10.684-3.865 4.914-4.826 6.467-10.949 6.736-17.787l.001-.002zm-184.334-15.014c0-2.367.197-4.586-.038-6.758-.529-4.813-3.341-7.701-8.076-8.619-8.219-1.596-15.446 4.403-16.875 15.377h24.989z" fill="#ED0088" sketch:type="MSShapeGroup"/></svg>