<svg width="817" height="265" viewBox="0 0 817 265" xmlns="http://www.w3.org/2000/svg" xmlns:sketch="http://www.bohemiancoding.com/sketch/ns"><title>visa</title><path d="M758.162 182.877c0 3.621 2.902 6.89 6.524 6.89 3.985 0 6.886-3.263 6.886-6.89 0-3.981-2.896-6.881-6.886-6.881-3.622 0-6.524 2.896-6.524 6.881zm6.523 5.074c-2.535 0-5.073-2.177-5.073-5.074s2.535-5.073 5.073-5.073c2.898 0 5.436 2.176 5.436 5.073 0 2.897-2.534 5.074-5.436 5.074zm-.725-2.179v-4.711h.726c.363 0 .731-.367.731 0 .358 0 .358.359.358.359 0 .367 0 .725-.358.725 0 .367-.369.367-.731.367h-.726v3.26-2.171h1.088l.726 2.176h1.813l-1.451-2.533c.729-.367 1.088-1.093 1.088-1.451 0-.725 0-1.45-.725-1.817h-3.9899999999999998v5.798h1.451v-.002zm-532.05-181.077h69.999l-104.051 255.663-69.948.009-59.156-223.5c45.422 25.894 75.882 64.533 91.525 106.885l6.941 35.451 64.692-174.507-.002-.001zm121.537 255.776l41.374-255.992h-66.142l-41.344 255.992h66.112zm239.782-249.682l-9.003 55.504-5.884-2.965c-12.292-5.277-27.844-10.279-49.459-9.834-25.951 0-37.876 11.356-37.926 21.989-.227 12.037 14.075 19.888 37.098 31.728 38.191 18.27 55.855 40.41 55.565 69.576-.541 53.125-45.657 87.502-115.067 87.502-29.701-.383-58.228-6.486-73.669-13.717l9.233-57.25 8.584 4.006c21.644 9.617 35.724 13.418 62.118 13.418 18.991 0 39.399-7.799 39.616-24.883.104-11.209-8.525-19.246-34.291-31.783-25.04-12.282-58.316-32.768-57.898-69.656.389-49.69 46.349-84.424 111.758-84.424 25.537 0 46.143 5.606 59.225 10.791v-.002zm169.463-6.076l53.56 255.791h-61.376s-6.043-29.354-8.087-38.323c-9.609 0-77-.131-84.6-.131-2.543 6.94-13.893 38.459-13.893 38.459h-69.465l98.125-234.552c7.001-16.635 18.849-21.242 34.691-21.242h51.042l.003-.002zm-81.497 164.984h54.878c-2.615-12.777-15.317-73.843-15.317-73.843l-4.408-22.127c-3.417 9.579-9.211 25.126-8.793 24.435 0 0-20.826 56.862-26.36 71.535zm-544.047-147.767l23.125 117.598c-22.732-61.491-77.415-113.634-160.273-134.793l.602-4.399h106.611c14.357.594 25.971 5.317 29.935 21.594z" fill="#D4D8D9" sketch:type="MSShapeGroup"/></svg>