<svg width="429" height="32" viewBox="0 0 429 32" xmlns="http://www.w3.org/2000/svg" xmlns:sketch="http://www.bohemiancoding.com/sketch/ns"><title>slide-logo</title><g sketch:type="MSPage" fill="none"><path d="M90.105.367s.208 5.838 6.93 5.84h7.666v21.448c0 1.923 1.559 3.482 3.481 3.482 1.923 0 3.48-1.559 3.48-3.482v-21.448h7.835c6.723-.002 6.932-5.84 6.932-5.84h-36.324zm73.725 5.84c6.723-.002 6.932-5.84 6.932-5.84l-27.438.001v.014l-.142-.015c-1.922 0-3.481 1.559-3.481 3.482v23.806c0 1.923 1.559 3.482 3.481 3.482h27.58s-.209-5.838-6.932-5.839h-17.168v-6.995h14.35s-.208-5.838-6.932-5.838h-7.418v-6.258h17.168zm45.25 19.091h-17.186l-.024-17.917c-.012-7.993-6.936-7.145-6.936-7.145s.034 27.547.038 27.616v.015h.002c.114 1.818 1.611 3.262 3.459 3.262l27.579.008s-.208-5.838-6.932-5.839zm-128.5 0h-17.186s-.02-16.107-.024-17.917c-.011-7.993-6.936-7.145-6.936-7.145l.019 14.021h-.002s.017 13.526.021 13.595v.015h.002c.115 1.818 1.612 3.262 3.459 3.262l27.579.008s-.208-5.838-6.932-5.839zm-54.443-22.287l-.013.009c-.862-1.539-2.216-2.737-4.863-2.753l-.463-.002v.017c-2.499.081-3.812 1.241-4.649 2.737l-.012-.008-15.508 27.96s6.108 1.135 8.915-3.531c.191-.316.673-1.181 1.338-2.387h16.38s-.209-5.839-6.932-5.839h-6.252c2.492-4.564 5.347-9.801 6.803-12.399.066-.076.147-.15.235-.15.186 0 .312.191.359.301l.003-.001c2.803 5.01 10.341 18.958 11.253 20.475 2.806 4.666 8.915 3.531 8.915 3.531l-15.509-27.96z" fill="#D8117D" sketch:type="MSShapeGroup"/><path d="M265.866 13.389h-5.489l-.006-6.017c-.013-7.993-6.938-7.144-6.938-7.144l.018 13.161h-14.052c-.007-4.146-.022-4.101-.024-6.008-.012-7.993-6.935-7.145-6.935-7.145l.021 7.924-.005-.004v7.583c0 1.922 1.558 3.481 3.481 3.481l.141-.015v.022h17.373v8.413l.021.203v.016h.002c.114 1.818 1.612 3.261 3.459 3.261 1.692 0 3.1-1.209 3.412-2.811l.053.002-.001-.518.015-.153v-8.413h5.473v-5.837l-.019-.001zm29.175-.133c-.164 0-.32.027-.479.048v-.026h-9.832c0-.001.212 5.77 6.831 5.832v5.212h-18.715v-18.115h18.897c6.724-.002 6.932-5.84 6.932-5.84h-29.309c-1.923 0-3.481 1.559-3.481 3.482v9.541c6.703.012 6.912 5.837 6.912 5.837h-6.912v8.421c0 .989.416 1.877 1.079 2.511.636.686 1.538 1.124 2.548 1.124h25.528c1.397 0 2.595-.828 3.148-2.018.208-.447.334-.939.334-1.463l-.001-.002.001-11.064c0-1.922-1.559-3.48-3.481-3.48z" fill="#D4D8D9" sketch:type="MSShapeGroup"/><path d="M311.807 3.219c-1.824 0-3.301 1.477-3.301 3.3 0 1.822 1.477 3.299 3.301 3.299 1.822 0 3.3-1.477 3.3-3.299 0-1.823-1.478-3.3-3.3-3.3zm0 9.68c-1.824 0-3.301 1.475-3.301 3.3 0 1.823 1.477 3.299 3.301 3.299 1.822 0 3.3-1.476 3.3-3.299 0-1.825-1.478-3.3-3.3-3.3zm116.638-5.433c-.007-6.108-4.047-7.051-5.953-7.156l-.02-.02-30.507-.007c0-.001.031 22.858.031 23.457.012 7.994 6.936 7.145 6.936 7.145l.017-24.754h7.77s.014 16.885.015 17.609c.012 7.994 6.936 7.145 6.936 7.145l.014-24.754h7.838s.015 16.885.015 17.609c.012 7.994 6.937 7.145 6.937 7.145s-.028-23.224-.029-23.419zm-44.509 4.848h-20.852v-6.183h17.432c6.722-.001 6.886-5.872 6.886-5.872h-27.799c-1.921 0-3.48 1.559-3.48 3.48v11.76c0 1.749 1.559 3.165 3.48 3.165l.18-.018h20.672v6.437c-5.269-.007-16.05-.017-17.475-.018-6.722-.01-6.939 5.829-6.939 5.829l26.885.032 1.109.002v-.076c1.875-.056 3.381-1.584 3.381-3.471v-11.917c0-1.745-1.558-3.15-3.48-3.15zm-38.577-6.185c6.723-.001 6.931-5.839 6.931-5.839l-29.435-.006v.019c-1.861.068-3.355 1.589-3.355 3.468v23.8c0 .989.418 1.876 1.079 2.51.636.688 1.538 1.124 2.548 1.124h25.518l.009.001c1.399 0 2.596-.83 3.15-2.018.208-.447.333-.939.333-1.463l-.001-.002.001-11.064c0-1.921-1.559-3.48-3.481-3.48-.164 0-.32.026-.478.048v-.027h-9.832s.212 5.77 6.828 5.832v5.212h-18.713v-18.115h18.898z" fill="#D4D8D9" sketch:type="MSShapeGroup"/></g></svg>