<svg width="72" height="72" viewBox="0 0 72 72" xmlns="http://www.w3.org/2000/svg" xmlns:sketch="http://www.bohemiancoding.com/sketch/ns"><title>box-icon-payment-pos-hover</title><path d="M50.006 9.529c0-1.949-.365-3.529-1.88-3.529h-23.947c-1.516 0-2.144 1.58-2.144 3.529v52.5h-2.401c-.35 0-.633.179-.633.399v3.175c0 .22.283.398.633.398h32.733c.35 0 .633-.179.633-.398v-3.175c0-.22-.283-.4-.633-.4h-2.361v-52.499zm-26.006-1.529h24.143v18h-24.143v-18zm15 31h9.143v3h-9.143v-3z" sketch:type="MSShapeGroup" fill="#ED0088"/></svg>