<?xml version="1.0" encoding="UTF-8" standalone="no"?>
<svg width="72px" height="72px" viewBox="0 0 72 72" version="1.1" xmlns="http://www.w3.org/2000/svg" xmlns:xlink="http://www.w3.org/1999/xlink" xmlns:sketch="http://www.bohemiancoding.com/sketch/ns">
    <title>box-icon-4g</title>
    <description>Created with Sketch (http://www.bohemiancoding.com/sketch)</description>
    <defs></defs>
    <g id="Page-1" stroke="none" stroke-width="1" fill="none" fill-rule="evenodd" sketch:type="MSPage">
        <g id="box-icon-4g" sketch:type="MSArtboardGroup" fill="#D8D8D8">
            <path d="M36,6 C19.433,6 6,19.433 6,36 C6,52.571 19.433,66 36,66 C52.567,66 66,52.571 66,36 C66,19.433 52.567,6 36,6 Z M28.335,32.1812308 L28.335,36.2187692 L31.6486364,36.2187692 L31.6486364,32.1812308 L33.9313636,32.1812308 L33.9313636,29.2652308 L31.6486364,29.2652308 L31.6486364,18.7726154 L28.5313636,18.7726154 L21.0695455,28.9412308 L21.0695455,32.1812308 L28.335,32.1812308 Z M48.6831818,34.2 L49.0759091,36.2187692 L51.5304545,36.2187692 L51.5304545,26.5984615 L44.1668182,26.5984615 L44.1668182,29.5144615 L48.045,29.5144615 C47.930454,30.7606216 47.525458,31.7118429 46.83,32.3681538 C46.134542,33.0244648 45.1486427,33.3526154 43.8722727,33.3526154 C43.0049957,33.3526154 42.2686394,33.1823094 41.6631818,32.8416923 C41.0577242,32.5010752 40.5668201,32.0483105 40.1904545,31.4833846 C39.814089,30.9184587 39.5400009,30.2829266 39.3681818,29.5767692 C39.1963628,28.8706119 39.1104545,28.143696 39.1104545,27.396 C39.1104545,26.615073 39.1963628,25.8590806 39.3681818,25.128 C39.5400009,24.3969194 39.814089,23.7447721 40.1904545,23.1715385 C40.5668201,22.5983048 41.0577242,22.1413863 41.6631818,21.8007692 C42.2686394,21.4601521 43.0049957,21.2898462 43.8722727,21.2898462 C44.8050047,21.2898462 45.5986331,21.5390744 46.2531818,22.0375385 C46.9077305,22.5360025 47.3495443,23.2836873 47.5786364,24.2806154 L51.2604545,24.2806154 C51.1622722,23.2670719 50.8922749,22.3698501 50.4504545,21.5889231 C50.0086342,20.8079961 49.4481852,20.151695 48.7690909,19.62 C48.0899966,19.088305 47.3290951,18.685386 46.4863636,18.4112308 C45.6436321,18.1370756 44.7722772,18 43.8722727,18 C42.5304478,18 41.3236417,18.2409207 40.2518182,18.7227692 C39.1799946,19.2046178 38.2759128,19.8692265 37.5395455,20.7166154 C36.8031781,21.5640042 36.2386383,22.5567635 35.8459091,23.6949231 C35.4531799,24.8330826 35.2568182,26.0667626 35.2568182,27.396 C35.2568182,28.6920065 35.4531799,29.9007636 35.8459091,31.0223077 C36.2386383,32.1438518 36.8031781,33.1199958 37.5395455,33.9507692 C38.2759128,34.7815426 39.1799946,35.4336899 40.2518182,35.9072308 C41.3236417,36.3807716 42.5304478,36.6175385 43.8722727,36.6175385 C44.7231861,36.6175385 45.5659049,36.4389249 46.4004545,36.0816923 C47.2350042,35.7244598 47.9959057,35.0972353 48.6831818,34.2 Z M21.902,40.148 L21.902,53 L30.992,53 L30.992,50.624 L24.728,50.624 L24.728,40.148 L21.902,40.148 Z M33.764,42.524 L33.764,53 L36.59,53 L36.59,42.524 L40.442,42.524 L40.442,40.148 L29.912,40.148 L29.912,42.524 L33.764,42.524 Z M41.918,40.148 L41.918,53 L51.674,53 L51.674,50.624 L44.744,50.624 L44.744,47.474 L50.972,47.474 L50.972,45.278 L44.744,45.278 L44.744,42.524 L51.53,42.524 L51.53,40.148 L41.918,40.148 Z M28.335,23.2089231 L28.335,29.2652308 L23.8186364,29.2652308 L28.2613636,23.2089231 L28.335,23.2089231 Z" id="Fill-4" sketch:type="MSShapeGroup"></path>
        </g>
    </g>
</svg>