<?xml version="1.0" encoding="UTF-8" standalone="no"?>
<svg width="72px" height="72px" viewBox="0 0 72 72" version="1.1" xmlns="http://www.w3.org/2000/svg" xmlns:xlink="http://www.w3.org/1999/xlink" xmlns:sketch="http://www.bohemiancoding.com/sketch/ns">
    <title>box-icon-pdf</title>
    <description>Created with Sketch (http://www.bohemiancoding.com/sketch)</description>
    <defs></defs>
    <g id="Page-1" stroke="none" stroke-width="1" fill="none" fill-rule="evenodd" sketch:type="MSPage">
        <g id="box-icon-pdf" sketch:type="MSArtboardGroup">
            <path d="M59.4748308,22.2985152 L44.6962015,6.62323557 C44.3214576,6.22627847 43.794969,6 43.2420899,6 L19.0816699,6 C15.7287684,6 13,8.67267203 13,11.9595285 L13,60.0404715 C13,63.326035 15.7287684,66 19.0816699,66 L53.9183301,66 C57.2712316,66 60,63.326035 60,60.0404715 L60,23.6148094 C60,23.1273409 59.8126281,22.6566817 59.4748308,22.2985152 L59.4748308,22.2985152 Z M54.7777778,21.6521739 L44.3333333,21.6521739 L44.3333333,11.2173913 L54.7777778,21.6521739 L54.7777778,21.6521739 Z M53.9556732,62.0869565 L19.0443268,62.0869565 C17.8714029,62.0869565 16.9166667,61.1546108 16.9166667,60.0091943 L16.9166667,11.9908057 C16.9166667,10.8453892 17.8714029,9.91304348 19.0443268,9.91304348 L41.6675431,9.91304348 L41.6675431,23.3687813 C41.6675431,23.8736943 42.7395056,24.2830483 43.2565442,24.2830483 L55.9828348,24.2830483 L56.0833333,24.388938 L56.0833333,60.0091943 C56.0833333,61.1546108 55.1285971,62.0869565 53.9556732,62.0869565 Z" id="boxicon-pdf" fill="#ED0088" sketch:type="MSShapeGroup"></path>
            <rect id="Rectangle-3" fill="#ED0088" sketch:type="MSShapeGroup" x="36" y="36" width="30" height="15" rx="4"></rect>
            <path d="M39.912,39.432 L43.692,39.432 C44.300003,39.432 44.7959981,39.5199991 45.18,39.696 C45.5640019,39.8720009 45.859999,40.0919987 46.068,40.356 C46.276001,40.6200013 46.4179996,40.9079984 46.494,41.22 C46.5700004,41.5320016 46.608,41.8199987 46.608,42.084 C46.608,42.3480013 46.5700004,42.6339985 46.494,42.942 C46.4179996,43.2500015 46.276001,43.5359987 46.068,43.8 C45.859999,44.0640013 45.5640019,44.2819991 45.18,44.454 C44.7959981,44.6260009 44.300003,44.712 43.692,44.712 L41.412,44.712 L41.412,48 L39.912,48 L39.912,39.432 Z M41.412,43.488 L43.608,43.488 C43.7760008,43.488 43.9479991,43.4640002 44.124,43.416 C44.3000009,43.3679998 44.4619993,43.2900005 44.61,43.182 C44.7580007,43.0739995 44.8779995,42.9300009 44.97,42.75 C45.0620005,42.5699991 45.108,42.3440014 45.108,42.072 C45.108,41.7919986 45.0680004,41.5600009 44.988,41.376 C44.9079996,41.1919991 44.8000007,41.0460005 44.664,40.938 C44.5279993,40.8299995 44.3720009,40.7560002 44.196,40.716 C44.0199991,40.6759998 43.832001,40.656 43.632,40.656 L41.412,40.656 L41.412,43.488 Z M47.916,39.432 L51.468,39.432 C52.1240033,39.432 52.6919976,39.5439989 53.172,39.768 C53.6520024,39.9920011 54.0439985,40.2979981 54.348,40.686 C54.6520015,41.0740019 54.8779993,41.5279974 55.026,42.048 C55.1740007,42.5680026 55.248,43.123997 55.248,43.716 C55.248,44.308003 55.1740007,44.8639974 55.026,45.384 C54.8779993,45.9040026 54.6520015,46.3579981 54.348,46.746 C54.0439985,47.1340019 53.6520024,47.4399989 53.172,47.664 C52.6919976,47.8880011 52.1240033,48 51.468,48 L47.916,48 L47.916,39.432 Z M49.416,46.776 L50.892,46.776 C51.4760029,46.776 51.9539981,46.6980008 52.326,46.542 C52.6980019,46.3859992 52.9899989,46.1700014 53.202,45.894 C53.4140011,45.6179986 53.5579996,45.2940019 53.634,44.922 C53.7100004,44.5499981 53.748,44.1480022 53.748,43.716 C53.748,43.2839978 53.7100004,42.8820019 53.634,42.51 C53.5579996,42.1379981 53.4140011,41.8140014 53.202,41.538 C52.9899989,41.2619986 52.6980019,41.0460008 52.326,40.89 C51.9539981,40.7339992 51.4760029,40.656 50.892,40.656 L49.416,40.656 L49.416,46.776 Z M56.58,39.432 L62.496,39.432 L62.496,40.728 L58.08,40.728 L58.08,42.972 L61.956,42.972 L61.956,44.196 L58.08,44.196 L58.08,48 L56.58,48 L56.58,39.432 Z" id="PDF" fill="#FFFFFF" sketch:type="MSShapeGroup"></path>
        </g>
    </g>
</svg>