<?xml version="1.0" encoding="UTF-8" standalone="no"?>
<svg width="18px" height="18px" viewBox="0 0 18 18" version="1.1" xmlns="http://www.w3.org/2000/svg" xmlns:xlink="http://www.w3.org/1999/xlink" xmlns:sketch="http://www.bohemiancoding.com/sketch/ns">
    <title>icon-back</title>
    <description>Created with Sketch (http://www.bohemiancoding.com/sketch)</description>
    <defs></defs>
    <g id="Page-1" stroke="none" stroke-width="1" fill="none" fill-rule="evenodd" sketch:type="MSPage">
        <g id="icon-back" sketch:type="MSArtboardGroup" fill="#9E9EA8">
            <path d="M7.015,8.99657143 L13.65,15.8211429 C13.8666667,16.0525714 14,16.3671429 14,16.7142857 C14,17.424 13.4404167,18 12.75,18 C12.4129167,18 12.1070833,17.862 11.8825,17.6391429 L4.38208333,9.92528571 C4.14666667,9.69085714 4,9.36342857 4,9 C4,8.63057143 4.14666667,8.30228571 4.3825,8.06871429 L11.8820833,0.354 C12.11,0.135857143 12.4141667,0 12.75,0 C13.4404167,0 14,0.575142857 14,1.28571429 C14,1.67528571 13.8308333,2.025 13.5641667,2.26028571 L7.015,8.99657143 Z" id="Imported-Layers" sketch:type="MSShapeGroup"></path>
        </g>
    </g>
</svg>