<?xml version="1.0" encoding="UTF-8" standalone="no"?>
<svg width="18px" height="18px" viewBox="0 0 18 18" version="1.1" xmlns="http://www.w3.org/2000/svg" xmlns:xlink="http://www.w3.org/1999/xlink" xmlns:sketch="http://www.bohemiancoding.com/sketch/ns">
    <title>icon-message</title>
    <description>Created with Sketch (http://www.bohemiancoding.com/sketch)</description>
    <defs></defs>
    <g id="Page-1" stroke="none" stroke-width="1" fill="none" fill-rule="evenodd" sketch:type="MSPage">
        <g id="icon-message" sketch:type="MSArtboardGroup" fill="#9E9EA8">
            <path d="M12.2686875,9.38390909 L17.7482812,4.23618182 C17.9035313,4.38454545 18,4.59018182 18,4.81818182 L18,15.1818182 C18,15.397 17.9128125,15.5911818 17.7724687,15.7373636 L12.2686875,9.38390909 L12.2686875,9.38390909 Z M0.2806875,4.21272727 C0.4303125,4.08209091 0.62634375,4 0.84375,4 L17.15625,4 C17.3739375,4 17.5696875,4.08209091 17.7193125,4.21272727 L9,10.8181818 L0.2806875,4.21272727 L0.2806875,4.21272727 Z M0.22753125,15.7373636 C0.08746875,15.5911818 0,15.397 0,15.1818182 L0,4.81818182 C0,4.59018182 0.09646875,4.38454545 0.2514375,4.23618182 L5.7313125,9.38390909 L0.22753125,15.7373636 L0.22753125,15.7373636 Z M9,12.4545455 L11.28825,10.3051818 L17.7347813,15.7752727 C17.5834688,15.9138182 17.3806875,16 17.15625,16 L0.84375,16 C0.6193125,16 0.41653125,15.9138182 0.26521875,15.7752727 L6.71175,10.3051818 L9,12.4545455 L9,12.4545455 Z" id="message" sketch:type="MSShapeGroup"></path>
        </g>
    </g>
</svg>