<svg width="18" height="18" viewBox="0 0 18 18" xmlns="http://www.w3.org/2000/svg" xmlns:sketch="http://www.bohemiancoding.com/sketch/ns"><title>icon-instagram</title><path d="M16.67 0h-15.34c-.734 0-1.33.577-1.33 1.289v15.421c0 .711.596 1.289 1.33 1.289h15.34c.735 0 1.33-.578 1.33-1.289v-15.421c0-.712-.595-1.289-1.33-1.289zm-13.932 6.94h2.719v8.128h-2.719v-8.128zm1.36-1.11h-.018c-.912 0-1.502-.624-1.502-1.404 0-.797.608-1.404 1.538-1.404s1.503.607 1.521 1.404c0 .78-.591 1.404-1.539 1.404zm11.163 9.238h-2.719v-4.349c0-1.092-.393-1.837-1.377-1.837-.751 0-1.198.502-1.395.988-.072.174-.089.416-.089.659v4.539h-2.719s.035-7.366 0-8.128h2.719v1.151c.361-.554 1.007-1.342 2.451-1.342 1.789 0 3.129 1.162 3.129 3.659v4.66z" sketch:type="MSShapeGroup" fill="#9E9EA8"/></svg>