<?xml version="1.0" encoding="UTF-8" standalone="no"?>
<svg width="18px" height="18px" viewBox="0 0 18 18" version="1.1" xmlns="http://www.w3.org/2000/svg" xmlns:xlink="http://www.w3.org/1999/xlink" xmlns:sketch="http://www.bohemiancoding.com/sketch/ns">
    <title>icon-map</title>
    <description>Created with Sketch (http://www.bohemiancoding.com/sketch)</description>
    <defs></defs>
    <g id="Page-1" stroke="none" stroke-width="1" fill="none" fill-rule="evenodd" sketch:type="MSPage">
        <g id="icon-map" sketch:type="MSArtboardGroup" fill="#9E9EA8">
            <path d="M13.8320203,0.015714442 C13.698957,-0.0147657611 13.5600608,-0.000614238211 13.4357468,0.0556289937 L9.11283038,2.02414211 L5.13587848,0.373856828 C4.98786835,0.313259282 4.82272405,0.310719265 4.67362025,0.368413935 L0.393356962,2.02813357 C0.15603038,2.12029989 0,2.3481757 0,2.60145167 L0,14.2902467 C0,14.4934481 0.100617722,14.6839493 0.269407595,14.7982501 C0.437103797,14.9129137 0.652192405,14.9368624 0.842126582,14.8632019 L4.89016709,13.2934715 L8.88607595,14.9524654 C8.96226835,14.9836713 9.04356456,15 9.1244962,15 C9.21235443,15 9.2998481,14.9807684 9.38187342,14.9441196 L9.70231899,14.7982501 L9.15402532,13.6947942 L5.13587848,12.062289 C5.05968608,12.0310831 4.97911899,12.0151173 4.89782278,12.0151173 C4.82199494,12.0151173 4.74580253,12.0292688 4.67362025,12.0568461 L0.936212654,13.3899921 L0.936212654,3.0220059 L4.89016709,1.60467646 L8.88607595,3.26330751 C9.0457519,3.32971081 9.22474937,3.32644507 9.38187342,3.2553246 L13.7587443,1.26177417 L16.9641519,1.95120734 L16.9641519,12.3772511 L16.1815899,12.2440816 L15.8873924,12.8355427 C15.8414582,12.9393206 15.7907848,13.0412841 15.7350076,13.1410705 L15.6179848,13.377292 L17.2431797,13.7499488 C17.4265519,13.7920405 17.619038,13.7484974 17.7670481,13.6316566 C17.9143291,13.5151787 18,13.3381032 18,13.1505048 L18,1.46207265 C18,1.1754136 17.8013165,0.927217658 17.5209722,0.861902938 L13.8320203,0.015714442 Z M12.5,6 C10.5671902,6 9,7.65306122 9,9.69188277 C9,10.3648918 9.17408377,10.9950898 9.47164049,11.5382845 L9.46858639,11.5382845 L12.4982548,18 L15.276178,12.0787172 L15.5301047,11.5382845 L15.5270506,11.5382845 C15.6823735,11.2551788 15.802356,10.9476753 15.8830716,10.6245205 C15.9572426,10.3262237 16,10.0141169 16,9.69188277 C16,7.65306122 14.4319372,6 12.5,6 Z M12.5,11 C11.6721068,11 11,10.3278932 11,9.5004451 C11,8.67166172 11.6721068,8 12.5,8 C13.3287834,8 14,8.67166172 14,9.5004451 C14,10.3278932 13.3287834,11 12.5,11 Z" id="map" sketch:type="MSShapeGroup"></path>
        </g>
    </g>
</svg>