<svg width="18" height="18" viewBox="0 0 18 18" xmlns="http://www.w3.org/2000/svg" xmlns:sketch="http://www.bohemiancoding.com/sketch/ns"><title>icon-instagram</title><path d="M14.521 0h-11.043c-1.918 0-3.479 1.547-3.479 3.449v10.949c0 1.902 1.561 3.449 3.479 3.449h11.043c1.919 0 3.479-1.547 3.479-3.449v-10.949c0-1.902-1.56-3.449-3.479-3.449zm1.084 2.001l.395-.001v3.08l-3.015.01-.01-3.081 2.631-.008zm-9.229 5.09c.571-.791 1.499-1.31 2.547-1.31s1.976.519 2.547 1.31c.372.517.594 1.148.594 1.832 0 1.732-1.41 3.141-3.142 3.141s-3.141-1.409-3.141-3.141c0-.684.222-1.315.594-1.832zm9.623 7.307c0 .943-.747 1.71-1.666 1.71h-10.667c-.919 0-1.666-.767-1.666-1.71v-7.307h2.596c-.224.566-.35 1.184-.35 1.832 0 2.69 2.132 4.88 4.754 4.88 2.622 0 4.755-2.19 4.755-4.88 0-.648-.127-1.266-.351-1.832h2.596v7.307z" sketch:type="MSShapeGroup" fill="#56565C"/></svg>