<?xml version="1.0" encoding="UTF-8" standalone="no"?>
<svg width="72px" height="72px" viewBox="0 0 72 72" version="1.1" xmlns="http://www.w3.org/2000/svg" xmlns:xlink="http://www.w3.org/1999/xlink" xmlns:sketch="http://www.bohemiancoding.com/sketch/ns">
    <title>mobiles</title>
    <description>Created with Sketch (http://www.bohemiancoding.com/sketch)</description>
    <defs></defs>
    <g id="Page-1" stroke="none" stroke-width="1" fill="none" fill-rule="evenodd" sketch:type="MSPage">
        <g id="mobiles" sketch:type="MSArtboardGroup" fill="#ED0088">
            <path d="M25.0028507,6 C22.2505626,6 20,8.25151521 20,10.9986998 L20,61.0001 C20,63.7508851 22.2505626,66 25.0028507,66 L47.0019505,66 C49.7506377,66 52,63.7508851 52,61.0001 L52,10.9986998 C52,8.25151521 49.7506377,6 47.0019505,6 L25.0028507,6 Z M38.9990999,10 C39.5511551,10 40,10.4453782 40,10.997599 C40,11.5510204 39.5511551,12 38.9990999,12 L32.9984998,12 C32.450045,12 32,11.5510204 32,10.997599 C32,10.4453782 32.450045,10 32.9984998,10 L38.9990999,10 Z M33,60.9993999 C33,59.3430686 34.3422631,58 36.0011995,58 C37.6577369,58 39,59.3430686 39,60.9993999 C39,62.6581316 37.6577369,64 36.0011995,64 C34.3422631,64 33,62.6581316 33,60.9993999 Z M50,16 L50,56 L22,56 L22,16 L50,16 Z" id="Imported-Layers" sketch:type="MSShapeGroup"></path>
            <path d="M7.0648162,12 C4.82858215,12 3,13.8012122 3,15.9989599 L3,56.00008 C3,58.2007081 4.82858215,60 7.0648162,60 L17,60 L17,57.9999999 C15.8944107,57.9995687 15,57.1051545 15,55.9995999 C15,54.8956452 15.8944107,54.0004316 17,54.0000002 L17,52 L5,52 L5,20 L17,20 L17,17 L14.8736874,17 C14.3937894,17 14,16.5510204 14,15.997599 C14,15.4453782 14.3937894,15 14.8736874,15 L17,15 L17,12 L7.0648162,12 Z" id="Imported-Layers" sketch:type="MSShapeGroup"></path>
            <path d="M69,15.9989599 L69,56.00008 C69,58.2007081 67.1714179,60 64.9351838,60 L55,60 L55,57.9999999 C56.1055893,57.9995687 57,57.1051545 57,55.9995999 C57,54.8956452 56.1055893,54.0004316 55,54.0000002 L55,52 L67,52 L67,20 L55,20 L55,17 L57.1263126,17 C57.6062106,17 58,16.5510204 58,15.997599 C58,15.4453782 57.6062106,15 57.1263126,15 L55,15 L55,12 L64.9351838,12 C67.1714179,12 69,13.8012122 69,15.9989599 Z" id="Imported-Layers-copy" sketch:type="MSShapeGroup"></path>
        </g>
    </g>
</svg>