<?xml version="1.0" encoding="UTF-8" standalone="no"?>
<svg width="72px" height="72px" viewBox="0 0 72 72" version="1.1" xmlns="http://www.w3.org/2000/svg" xmlns:xlink="http://www.w3.org/1999/xlink" xmlns:sketch="http://www.bohemiancoding.com/sketch/ns">
    <title>person</title>
    <description>Created with Sketch (http://www.bohemiancoding.com/sketch)</description>
    <defs></defs>
    <g id="Page-1" stroke="none" stroke-width="1" fill="none" fill-rule="evenodd" sketch:type="MSPage">
        <g id="person" sketch:type="MSArtboardGroup" fill="#ED0088">
            <path d="M22.1836735,27.25 C22.1836735,29.1125773 23.2393469,30.2375146 24.690465,29.75 C24.5552041,30.2375146 24.5676531,30.2362619 24.690465,29.75 C25.0693469,36.8656255 30.2593265,43.5 37.2244224,43.5 C42.9348776,43.5 48.1248571,36.8656255 48.504984,29.75 C48.6277959,30.2362619 48.6414898,30.2375146 48.504984,29.75 C49.956102,30.2375146 51.0117755,29.1125773 51.0117755,27.25 C51.0117755,26.6973442 50.4378776,25.8191916 49.7583798,26 C50.0930408,23.9376148 50.3532245,22.3441624 49.7583798,21 C50.3532245,12.5754969 44.1959592,6 37.2244224,6 C28.9994898,6 22.8422245,12.5754969 23.4370692,21 C22.8422245,22.3441624 23.104898,23.9376148 23.4370692,26 C22.7575714,25.8191916 22.1836735,26.6973442 22.1836735,27.25 Z M67.1033265,58.5 C61.0966939,53.3119621 54.2397959,49.320568 47.1817072,47.25 C46.6782857,47.3080895 46.467898,47.25 45.936606,47.25 C45.3711429,47.25 45.1632449,47.3055077 44.6915048,47.25 C42.7493878,48.6467298 39.6956531,49.3580034 37.2208975,49.75 C33.4997959,49.3580034 30.4460612,48.6467298 28.5051891,47.25 C28.0297143,47.3055077 27.8218163,47.25 27.2600879,47.25 C27.0250816,47.25 26.9267347,47.2629088 27.2600879,47.25 C19.261898,49.1424269 12.2282245,53.1828744 6.09336735,58.5 C6.23279592,59.2177281 6.09336735,59.5611015 6.09336735,59.75 L6.09336735,64.75 C6.09336735,65.4036145 6.66726531,66 7.33846855,66 L65.8582253,66 C66.5294286,66 67.1033265,65.4036145 67.1033265,64.75 L67.1033265,59.75 C67.1033265,59.5611015 66.9614082,59.2177281 67.1033265,58.5 Z" id="Fill-1" sketch:type="MSShapeGroup"></path>
        </g>
    </g>
</svg>