<?xml version="1.0" encoding="UTF-8" standalone="no"?>
<svg width="72px" height="72px" viewBox="0 0 72 72" version="1.1" xmlns="http://www.w3.org/2000/svg" xmlns:xlink="http://www.w3.org/1999/xlink" xmlns:sketch="http://www.bohemiancoding.com/sketch/ns">
    <title>pin</title>
    <description>Created with Sketch (http://www.bohemiancoding.com/sketch)</description>
    <defs></defs>
    <g id="Page-1" stroke="none" stroke-width="1" fill="none" fill-rule="evenodd" sketch:type="MSPage">
        <g id="pin" sketch:type="MSArtboardGroup" fill="#ED0088">
            <path d="M41.6120156,50.5438401 L41.1293057,52.9260648 C47.6235199,53.6127476 51.5758544,55.644576 51.5758544,57.1319967 C51.5758544,58.9451213 45.702099,61.578973 36.4988227,61.578973 C27.297901,61.578973 21.4253229,58.9451213 21.4253229,57.1319967 C21.4253229,55.4047074 26.759856,52.9413506 35.2178754,52.7097127 L35.5039693,57.42125 L37.4948533,57.4259533 L39.0736679,31.4507673 C44.949778,30.2608308 49.373049,25.077787 49.373049,18.8541367 C49.373049,11.7568472 43.6087863,6 36.5,6 C29.3912137,6 23.626951,11.7568472 23.626951,18.8541367 C23.626951,25.077787 28.050222,30.2608308 33.9251547,31.4507673 L35.0707078,50.2886857 C26.8658167,50.5320818 19,52.8696252 19,57.1319967 C19,61.6412918 27.8041577,64 36.4988227,64 C45.1958423,64 54,61.6412918 54,57.1319967 C54,53.5175056 48.338166,51.2869625 41.6120156,50.5438401 L41.6120156,50.5438401 Z M33.001829,19 C30.7911904,19 29,17.2085366 29,15.0012195 C29,12.7939024 30.7911904,11 33.001829,11 C35.2075903,11 37,12.7939024 37,15.0012195 C37,17.2085366 35.2075903,19 33.001829,19 L33.001829,19 Z" id="Imported-Layers" sketch:type="MSShapeGroup"></path>
        </g>
    </g>
</svg>