<?xml version="1.0" encoding="UTF-8" standalone="no"?>
<svg width="72px" height="72px" viewBox="0 0 72 72" version="1.1" xmlns="http://www.w3.org/2000/svg" xmlns:xlink="http://www.w3.org/1999/xlink" xmlns:sketch="http://www.bohemiancoding.com/sketch/ns">
    <title>planet</title>
    <description>Created with Sketch (http://www.bohemiancoding.com/sketch)</description>
    <defs></defs>
    <g id="Page-1" stroke="none" stroke-width="1" fill="none" fill-rule="evenodd" sketch:type="MSPage">
        <g id="planet" sketch:type="MSArtboardGroup" fill="#A5ACB0">
            <path d="M33.7434029,18.3473528 C33.7162619,18.359728 33.6904271,18.383593 33.6583434,18.4324013 C33.6371686,18.4681833 33.7126039,18.5144894 33.6265811,18.5397472 C33.5498224,18.5607955 33.6120234,18.6042951 33.5882018,18.6351658 C33.5379115,18.6969073 33.4307139,18.7740841 33.3685129,18.8147773 C33.3049884,18.8589786 33.1183852,18.8281079 32.9053134,18.8589786 L32.9026666,18.8589786 C32.7478256,18.8821316 32.6115126,18.9277361 32.4659357,18.9614133 C32.3071244,18.9971952 32.0397922,19.0336788 32.0053831,18.9438731 C31.9987659,18.9179136 31.9934722,18.8561722 32.0199408,18.822495 C32.0927292,18.7354957 32.2647748,18.6997137 32.3666786,18.6274482 C32.4937276,18.5425537 32.4712294,18.5299247 32.4275563,18.5116829 C32.3693255,18.4836186 32.3838832,18.4604656 32.4249094,18.4324013 C32.4765231,18.4015306 32.5387241,18.3755711 32.5876909,18.341894 C32.6287172,18.3138297 32.6366577,18.2780477 32.6895948,18.2548946 C32.7623833,18.2240239 32.8100267,18.2268304 32.9172243,18.2289352 C32.9833505,18.2311262 33.1220757,18.1127217 33.3006519,18.0446626 C33.295769,18.0352034 33.2956353,18.0238235 33.3010313,18.0124435 C33.3037615,18.0047663 33.309222,17.99421 33.3137725,17.9874923 C33.3674676,17.9097597 33.362007,17.8080355 33.3019414,17.7379802 C33.2973909,17.7312625 33.2937506,17.7235852 33.2937506,17.713029 C33.2928405,17.6784811 33.3237834,17.5662007 33.3729281,17.5546847 C33.3729281,17.5546847 33.3738382,17.5546847 33.3738382,17.5518057 C33.3856693,17.5518057 33.3938601,17.5518057 33.4111517,17.5796359 C33.4138819,17.5834746 33.4202525,17.5863536 33.4257131,17.5834746 C33.4311736,17.5834746 33.4320837,17.5834746 33.4339038,17.5796359 C33.4475551,17.5441284 33.4521056,17.5057419 33.467577,17.4711941 C33.4703073,17.4635168 33.4703073,17.4529605 33.467577,17.4462429 C33.4402744,17.4596782 33.4093315,17.4529605 33.3911298,17.431848 C33.3711079,17.4078564 33.3674676,17.3752279 33.3820289,17.3512363 C33.3956802,17.3301238 33.4120618,17.3090112 33.4339038,17.2984549 C33.435724,17.2946163 33.4402744,17.2946163 33.4402744,17.2946163 C33.4539257,17.2878986 33.467577,17.2878986 33.4794081,17.2946163 C33.49852,17.3022936 33.5240024,17.3022936 33.5422041,17.2850197 C33.5458444,17.2850197 33.5485747,17.281181 33.552215,17.2773424 C33.6186513,17.2207223 33.6768968,17.1583443 33.7251314,17.0844503 C33.7506138,17.0489428 33.774276,17.0239916 33.7933878,17.0134353 C33.8261509,17.0038386 33.8552737,17 33.8871267,17 C33.9690345,17 34.0509422,17.0105563 34.1310298,17.0316689 C34.1619727,17.0422251 34.23933,17.076773 34.1474113,17.136272 C34.1073675,17.1612232 34.0582229,17.1756182 34.0227295,17.210166 C33.995427,17.2351172 33.9936068,17.2773424 33.9735849,17.3051726 C33.9708546,17.3128499 33.9708546,17.3157288 33.9735849,17.3234061 C33.9772252,17.3301238 33.9826858,17.3301238 33.9890564,17.3301238 C34.0618632,17.3272448 34.4541103,17.3090112 34.3667421,17.4356866 C34.3285185,17.4923067 34.2975755,17.5546847 34.2757335,17.6180224 C34.2202182,17.7686894 34.2138476,17.9414286 34.2584418,18.0997728 C34.270273,18.1458366 34.2757335,18.1909407 34.2720931,18.2293272 C34.2675427,18.275391 34.2557116,18.3176161 34.2584418,18.3636799 C34.2639024,18.408784 34.3084966,18.4404529 34.2975755,18.4893956 C34.2957554,18.4932343 34.2975755,18.4970729 34.2984856,18.4999519 C34.2984856,18.5037906 34.3003058,18.5037906 34.3003058,18.5037906 C34.3084966,18.4999519 34.3157773,18.4999519 34.3203277,18.4999519 C34.3576412,18.4999519 34.3958648,18.4999519 34.4322683,18.4961133 C34.4450095,18.4961133 34.4468297,18.4999519 34.4550204,18.5076292 C34.4550204,18.5076292 34.5423887,18.7034003 34.5250971,18.7283515 C34.5250971,18.7283515 34.5250971,18.7273918 34.524187,18.7312305 C34.5059853,18.7590607 34.5087155,18.7907295 34.5305576,18.8195194 C34.5551299,18.8473496 34.576972,18.8751798 34.5806123,18.9212436 C34.5824325,18.9385175 34.5824325,18.9337192 34.4959743,19.0037745 C34.4850533,19.0114518 34.482323,19.0095325 34.4850533,19.0191291 C34.5605904,19.0613543 34.5605904,19.0287257 34.6042746,19.0047342 C34.6661604,18.9692267 34.8873113,19.0306451 34.8973223,19.0306451 L34.8982324,19.0306451 C35.0183637,19.0306451 35.000162,19.2648026 34.9974317,19.2868749 C34.9819603,19.3492529 34.9655787,19.4461788 34.9382762,19.4605737 C34.8873113,19.4922426 34.8372566,19.5239114 34.7908422,19.5594189 C34.7817413,19.5661365 34.7690001,19.5642172 34.7471581,19.5498223 C34.7453379,19.5498223 34.7398774,19.547903 34.7371471,19.5440643 C34.7307765,19.5373467 34.7234958,19.5411853 34.7171252,19.5411853 C34.7116647,19.545024 34.7071143,19.5594189 34.7089345,19.5632576 C34.7171252,19.6477078 34.7635396,19.7388757 34.8336162,19.7811009 C34.8336162,19.7811009 34.8336162,19.8079714 34.8372566,19.8108504 C34.841807,19.8953006 34.6443183,19.9903072 34.6443183,19.9903072 L34.6424982,19.9903072 C34.5751518,19.9903072 34.5150861,19.9730333 34.4486498,19.962477 C34.3940447,19.9509611 34.3521807,19.8492369 34.2939352,19.8463579 C34.1574223,19.8463579 34.1574223,19.8463579 34.1310298,19.829084 C34.1219289,19.8214067 34.0291001,19.7964554 33.995427,19.7926168 C33.9025982,19.7897378 33.8334316,19.8559545 33.7487936,19.8770671 C33.6723464,19.8905023 33.6177412,19.8166084 33.5440243,19.823326 C33.4402744,19.8300436 33.4056912,19.9336871 33.3337944,19.9903072 C33.3274238,19.9941458 33.319233,19.9903072 33.3110422,19.9903072 L33.309222,19.9903072 C33.2573471,19.9903072 33.160878,19.9269695 33.1090031,19.962477 C33.0926216,19.9720736 33.0789703,19.9874282 33.0662291,19.9941458 C33.0471172,20.0047021 33.0243651,20.0008635 33.0088936,19.9835896 C32.9952423,19.9663156 32.9979726,19.9375258 33.012534,19.9240905 C33.0407466,19.891462 33.0716896,19.8607528 33.1026325,19.829084 C33.1909109,19.7340774 33.3055817,19.6774573 33.4293534,19.6640221 C33.467577,19.6563448 33.5085309,19.6601834 33.5485747,19.6640221 C33.6222917,19.6707397 33.6759867,19.6323532 33.7305919,19.5901281 C33.742423,19.5824508 33.7487936,19.5651769 33.742423,19.547903 C33.7378726,19.533508 33.7242213,19.5229517 33.7069297,19.5229517 C33.6869078,19.5229517 33.6668859,19.530629 33.646864,19.547903 C33.6423136,19.5517416 33.6377631,19.5546206 33.6304824,19.5584592 C33.6068202,19.5680559 33.5804277,19.5680559 33.5576755,19.5584592 C33.552215,19.5584592 33.5476646,19.5546206 33.5422041,19.547903 C33.4939695,19.4951215 33.4311736,19.4557754 33.361097,19.4356225 C33.28738,19.4135503 33.2200336,19.4845653 33.1454065,19.4461788 C33.0962619,19.4212276 33.1053628,19.3473336 33.1153737,19.3329386 C33.1272048,19.3195034 33.1517771,19.3156647 33.1872705,19.3118261 C33.2418757,19.3012698 33.4184324,19.2388918 33.4430047,19.2072229 C33.4648468,19.1822717 33.5230923,19.0028149 33.4539257,19.0066535 C33.4193425,19.0095325 33.4020508,19.0383224 33.3674676,19.0488786 C33.361097,19.0488786 33.3756583,19.0488786 33.372018,19.042161 C33.3647373,19.0383224 33.4084214,19.0277661 33.4102416,19.0200888 C33.4102416,19.0172098 33.5085309,19.0133711 33.5085309,19.0095325 L33.5085309,19.0066535 C33.5085309,18.9644284 33.5121712,19.0152905 33.5130813,18.9557914 C33.5130813,18.9375578 33.4075113,18.9500334 33.3993206,18.9394772 C33.3874894,18.9250822 33.3874894,18.9567511 33.3956802,18.9423562 C33.4056912,18.9289209 33.4238929,19.0306451 33.4393644,19.0306451 L33.4402744,19.0306451 C33.5358335,19.0306451 33.6404934,18.9327595 33.7123902,18.8550269 C33.7824668,18.7811329 33.8088593,18.5632896 33.7770063,18.4644444 C33.7760962,18.4615654 33.7760962,18.4510091 33.7760962,18.4510091 C33.774276,18.4471705 33.774276,18.4289369 33.774276,18.4260579 C33.7690312,18.4033827 33.7580434,18.3727392 33.7434029,18.3473528 Z M33.5895712,18.0076833 C33.5442693,17.9997656 33.5000425,17.9975423 33.4598293,18.0030176 C33.433952,18.0064473 33.4085962,18.0115506 33.3838347,18.0179481 C33.3921396,18.0079281 33.4012734,17.9966742 33.4111517,17.9836537 C33.4320837,17.9558235 33.4402744,17.9491058 33.4721275,17.9347109 C33.4957897,17.920316 33.5221822,17.9097597 33.5476646,17.9030421 C33.5576755,17.8992034 33.5676865,17.8992034 33.5758773,17.9068807 C33.584068,17.9135983 33.5886185,17.9241546 33.5886185,17.9347109 C33.5875727,17.9589722 33.5897316,17.9836559 33.5895712,18.0076833 Z M36,6 C19.433,6 6,19.433 6,36 C6,52.571 19.433,66 36,66 C52.567,66 66,52.571 66,36 C66,19.433 52.567,6 36,6 Z M35.8415546,62 C28.1883408,62 21.3024415,58.726128 16.5201794,53.5127349 C16.6477329,53.4621387 16.73144,53.4254317 16.73144,53.4115425 C16.7264574,53.2299914 16.6875934,53.0484403 16.6218236,52.8778022 C16.5640259,52.731966 16.4982561,52.5910903 16.4324863,52.4482305 C16.2102641,51.9650863 17.2057798,51.8857197 17.4838067,51.4353143 C17.5037369,51.3916627 17.6721475,51.3728131 17.8724464,51.515673 C18.0308919,51.6277783 18.2620827,51.3658685 18.2421525,51.2706286 C18.1753861,50.9769722 18.1753861,50.9303444 18.2122571,50.6604979 C18.2740409,50.203148 18.1474838,49.0701898 18.0946687,48.9164171 C17.9123069,48.397558 17.8744395,48.1356482 17.8704534,48.0116379 C17.8684604,47.9183821 18.1165919,47.8489364 18.1624315,47.6961557 C18.2521176,47.3846418 18.7842551,46.8102261 18.9486796,46.5334351 C19.0911809,46.2903749 19.2057798,46.0225126 19.1689088,45.7417533 C19.0931739,45.1207097 17.0981565,42.8458647 16.5341305,42.4252218 C16.0896861,42.09089 15.7678127,42.09089 15.7678127,42.09089 C15.793722,41.8101307 15.6851021,41.5343318 15.4758346,41.3498044 C15.3981066,41.2803587 15.3393124,41.1861108 15.2815147,41.091863 C15.2027902,40.9648765 15.060289,40.8884861 14.9108122,40.8884861 C14.7613353,40.8884861 14.5421026,40.9648765 14.5421026,41.091863 C14.7284504,40.6484022 14.6846039,40.6265764 14.3318386,40.1930363 C14.1425012,39.9608891 14.118585,39.983707 14.3487793,39.5581036 C14.3816642,38.972775 13.2356751,37.1165888 12.2212257,35.9766861 C12.1883408,35.9389869 12.1405082,35.9211294 12.0807175,35.9330344 C11.9770802,35.8338262 11.4748381,33.9964896 11.3642252,33.5669179 C11.3582461,33.5450921 11.3642252,33.5232662 11.3761834,33.5093771 C11.4638764,33.400248 11.5007474,33.2623486 11.472845,33.1274254 C11.4509218,33.01532 11.4080717,32.8843652 11.4000997,32.7712678 C11.387145,32.5609463 11.1908321,32.3903081 11.1539611,32.4161023 C11.099153,32.4557856 11.0403587,32.4597539 10.9895366,32.436936 C10.9367215,32.4161023 10.898854,32.3684823 10.8858994,32.3059811 C10.8440458,32.0778022 10.6447434,31.9141086 10.4125561,31.9141086 C10.36572,31.9141086 10.1753861,31.9101402 10,31.8962511 C10.85999,26.4348374 13.4240159,21.5379185 17.1320379,17.7590766 C17.1370204,17.9485643 17.14001,18.1340838 17.143996,18.1340838 C17.4559043,18.221387 17.4339811,18.1519412 17.7020429,17.8285224 C17.8574988,17.643003 18.1405082,17.5745493 18.2959641,17.5199847 C18.4524165,17.4654202 18.7135027,17.4396261 18.7135027,17.4396261 C18.8629796,17.4108557 19.2974589,17.5090718 19.4220229,17.4068873 C19.5266567,17.3235524 19.3921276,17.294782 19.4539113,17.2005342 C19.5146986,17.1132309 19.5635277,17.017991 19.6043847,16.9197749 C19.6382661,16.837432 19.7428999,16.8116379 19.8186348,16.7640179 C19.9501744,16.6836593 19.8246139,16.6836593 19.7987045,16.643976 C19.7787743,16.6112372 19.8006976,16.4911953 19.8485301,16.4802824 C19.8505232,16.4802824 19.8505232,16.4802824 19.8505232,16.4842507 C19.9192825,16.5467519 20.0159442,16.5715539 20.1056303,16.5497281 C20.1863478,16.5318706 20.2132536,16.5060765 20.2371699,16.4554803 C20.2531141,16.4227416 20.2830095,16.3969474 20.3168909,16.3900029 L20.3188839,16.3860345 C20.533134,15.87412 19.5804684,16.1648002 19.5804684,16.1648002 C19.5416044,16.0884098 20.083707,15.9177716 20.1684106,15.8919775 C20.1684106,15.8919775 20.1694071,15.8959458 20.1714001,15.8959458 C20.2222222,15.9068587 20.2351769,15.8989221 20.2770304,15.8850329 C20.5341305,15.7828484 20.8938714,15.9108271 20.8938714,16.1648002 C20.8938714,16.2332538 21.0124564,16.2878184 21.0832088,16.3056759 C21.1689088,16.3284938 21.2695566,16.3532958 21.3592427,16.3205571 C21.8226208,16.1459506 21.9651221,16.295755 22.3497758,16.1251169 L22.3577479,16.1211485 C22.8589935,15.8989221 22.8849028,14.7877898 23.5675137,14.1806353 C23.63428,14.1191262 23.7090184,14.0645617 23.7837569,14.0179338 C23.9103139,13.9375751 23.9920279,13.8175331 24.079721,13.7014595 C24.1195815,13.646895 24.1674141,13.5923304 24.2172397,13.5417342 C24.2730443,13.4832014 24.285999,13.3929219 24.2421525,13.3234761 C24.1983059,13.2510541 24.1096163,13.214347 24.0288989,13.2431174 C23.9720977,13.261967 23.8624813,13.297682 23.8315894,13.2470858 C23.8186348,13.2292283 23.8186348,13.2074025 23.8295964,13.189545 C23.8535127,13.1488696 23.9172895,13.069503 23.9252616,13.0298197 C23.9252616,13.021883 23.8624813,12.9524373 23.7678127,12.8512449 C25.9780767,11.7073738 28.3716991,10.8641038 30.8928749,10.384928 C30.8888889,10.5337403 30.8679621,10.6676715 30.8350772,10.6785844 C30.6208271,10.7510064 30.3786746,10.7549747 30.1993024,10.9077554 C30.1833582,10.9226366 30.1793722,10.9434704 30.1883408,10.9623199 C30.1993024,10.9801774 30.2192327,10.9910903 30.2401594,10.9841458 C30.2780269,10.9722408 30.3418037,10.9474387 30.4992526,10.8889058 C30.5261584,10.8819613 30.5590433,10.8998188 30.5550573,10.9295812 C30.5530643,10.9404941 30.5460887,10.9474387 30.5371201,10.9543833 C30.4593921,10.987122 30.3726956,11.0020032 30.2999502,11.0387103 C30.2850025,11.0496232 30.2760339,11.0635124 30.2800199,11.0823619 C30.2869955,11.1180769 30.2511211,11.1944672 30.2750374,11.216293 C30.2750374,11.2202614 30.2760339,11.4137174 30.2760339,11.4137174 C30.2690583,11.420662 29.513702,12.1478584 29.2267065,12.1478584 L29.2247135,12.1478584 C28.8829098,12.1478584 28.5650224,12.1032147 28.4713503,12.1835734 C28.3746886,12.2599638 28.2730443,12.2282171 28.161435,12.2827816 C27.9312407,12.3988553 27.7259591,12.5446914 27.5904335,12.6905275 C27.5206776,12.7669179 27.6422521,12.7659258 27.7359243,12.8056091 C27.7359243,12.8056091 27.8026906,12.8115616 27.7020429,12.8264428 C27.3223717,12.877039 26.9975087,13.3006582 26.898854,13.442526 C26.8789238,13.4673281 26.8789238,13.5010589 26.898854,13.526853 C26.898854,13.5298292 26.898854,13.5288372 26.900847,13.5288372 C26.7234679,13.7024516 26.7075237,13.7163407 26.5779771,13.9782505 C26.570005,13.996108 26.571998,14.0139655 26.5849527,14.0288467 C26.6018934,14.0476963 26.8091679,14.0576171 26.8281016,14.0933321 C26.8550075,14.1518649 26.7473842,14.1984928 26.7713004,14.2421444 C26.778276,14.2540494 26.7892377,14.2649623 26.8021923,14.2649623 C26.8370703,14.2719069 26.6985551,14.4098064 26.6796213,14.4395688 C26.6467364,14.4861967 26.6885899,14.6092149 26.7623318,14.6062387 C26.8350772,14.6062387 26.8809168,14.5586187 26.9496761,14.4822284 C26.9496761,14.4822284 27.1360239,14.3770676 27.262581,14.2719069 C27.3861485,14.1697224 27.63428,14.140952 27.7269557,13.9703138 C27.7767813,13.876066 27.8674639,13.8145569 27.9422023,13.7996757 C27.9750872,13.791739 28.0079721,13.8105886 28.0189337,13.839359 C28.0298954,13.8830106 28.6048829,13.6290375 28.5849527,13.5308213 C28.5670154,13.4365735 28.6198306,13.4286368 28.6796213,13.454431 C28.7214748,13.4722885 28.7563528,13.4574072 28.7842551,13.4365735 C28.9556552,13.2947057 29.2177379,13.1200992 29.4349776,13.1746637 C29.4877927,13.189545 29.5426009,13.1816083 29.5904335,13.1528379 C29.8086697,13.0298197 29.8325859,13.0873605 29.7817638,13.1091863 C29.7229696,13.1310121 29.5645242,13.189545 29.5974091,13.2401412 C29.6043847,13.2510541 29.6213254,13.2579987 29.6352765,13.2510541 C29.7289487,13.214347 29.8256104,13.1964896 29.9262581,13.1925212 C30.0667663,13.1925212 30.2710513,13.2113708 30.4554061,13.1141467 C30.4623817,13.1101784 30.4713503,13.1399409 30.4793224,13.1399409 L30.4843049,13.1399409 C30.9187843,13.1399409 31.099153,12.8819994 31.1898356,12.9435085 C31.2177379,12.9653344 31.2336821,13.1399409 31.2306926,13.1399409 L31.2326856,13.1399409 C31.305431,13.1399409 31.3801694,12.9941047 31.4658695,12.9722789 C31.4658695,12.9722789 31.5356253,12.9653344 31.797708,12.9623581 C31.7359243,13.1220834 34.4823119,12.492111 36.2192327,11.0575599 C36.6756353,10.6795765 37.180867,10.3164743 37.6870952,10 C40.6297957,10.2033769 43.4359741,10.8799771 46.0308919,11.974244 C45.9870453,12.0655156 45.8704534,12.0893256 45.8634778,12.119088 C45.8256104,12.2123438 46.0747384,12.3343699 46.1474838,12.4067919 C46.1843548,12.4464752 46.1843548,12.5109606 46.1474838,12.5546122 C46.0229198,12.5248498 45.8923767,12.5536201 45.7967115,12.6379472 C45.7090184,12.7173137 45.5744893,12.7718783 45.4977578,12.8006487 C45.4509218,12.8185062 45.3731938,12.8443003 45.3731938,12.8760469 C45.3731938,12.8621578 45.2855007,12.8661261 45.2426507,12.8800153 C45.0712506,12.9425165 44.9715994,13.2689116 45.0084704,13.3889535 C45.019432,13.4365735 45.0124564,13.4871697 44.9795715,13.526853 C44.939711,13.5774492 44.8699552,13.5962988 44.8121574,13.574473 C44.7752865,13.56356 44.6726457,13.6508633 44.7244644,13.6865783 C44.7832586,13.7302299 44.7025411,13.7629686 44.6437469,13.8026519 C44.614848,13.8215015 44.5789736,13.8284461 44.5421026,13.8175331 C44.3298455,13.756024 44.3447932,13.7014595 44.2790234,13.8651531 C44.2491281,13.9415435 44.206278,14.0139655 44.1544594,14.0794429 C44.122571,14.1230945 44.1255605,14.1806353 44.1624315,14.2173424 C44.4753363,14.5149671 44.0308919,14.4683392 43.8704534,14.3959172 C43.7239661,14.3294477 43.636273,14.5735 43.9073244,14.5764762 C43.9790732,14.5764762 44.0528151,14.6062387 44.0996512,14.6608032 C44.2351769,14.8125918 43.920279,14.7619956 43.7239661,14.6965182 C43.5595416,14.6389774 43.4030892,14.5516741 43.264574,14.4425451 C43.1768809,14.3730993 43.14001,14.2540494 43.1768809,14.1518649 C43.2197309,14.0467042 43.3193822,13.9772584 43.431988,13.9812267 C43.5924265,13.9851951 43.7319382,13.8651531 43.7458894,13.7044358 C43.7678127,13.5447105 43.6581963,13.3998665 43.5047334,13.3671277 C43.1150972,13.2867691 42.6806178,13.334389 42.32287,13.1706954 C42.0119581,13.0258514 41.7538615,13.0506534 41.67713,12.949461 C41.6432486,12.9018411 41.630294,12.8472765 41.636273,12.7897358 C41.468859,12.756997 41.3672147,12.7391396 41.2934728,12.7242583 C41.223717,12.7093771 41.0164425,12.7421158 40.7274539,12.8323953 C40.1076233,13.0298197 39.5196811,13.6359821 39.5196811,13.6359821 C39.5196811,13.6359821 39.4010962,13.7996757 39.2884903,13.9306305 C39.1838565,14.0506725 39.0692576,14.1736907 38.9546587,14.2828198 C38.9078226,14.3225031 38.8310912,14.3701231 38.8310912,14.4316322 L38.8310912,14.4276638 L38.8619831,14.4246876 C38.8021923,14.4425451 38.7713004,14.7034627 38.7553563,14.7649719 C38.6806178,15.0308499 38.4773293,15.1241057 37.3432985,16.1161881 L37.3472845,16.1161881 C37.0144494,16.1161881 36.8071749,16.3751216 36.8251121,16.7352475 C36.8430493,17.0943814 37.0871948,17.2977583 37.431988,17.402919 C37.8604883,17.5338739 37.959143,17.0070781 38.4444444,17.1529142 C38.6268062,17.2074788 38.7732935,17.3175999 38.8380668,17.4961748 C38.9157947,17.7134408 39.0254111,17.8305065 39.0343797,18.1152342 C39.1320379,18.2084899 39.4160438,18.4168272 39.4489287,18.2709911 C39.5286497,17.9297148 39.8784255,18.1519412 40.0269058,17.8642373 C40.1544594,17.6211771 39.9661186,17.3652199 40.0558047,17.1181914 L40.0597907,17.114223 C40.1773792,16.8265191 40.206278,16.5100448 40.1474838,16.2044834 C40.118585,16.0636077 40.1544594,15.8483259 40.2282013,15.4376037 C40.2541106,15.2778785 40.5710015,15.1945435 40.6437469,15.0745016 C40.7752865,14.8711247 40.5560538,14.4822284 40.8849028,14.4098064 C41.0463378,14.3730993 41.3413054,14.4494896 41.3811659,14.6171516 C41.3921276,14.6786607 41.3781764,14.7401698 41.3383159,14.7877898 C41.2506228,14.9078317 41.2057798,15.067557 41.1220727,15.1945435 C40.9586447,15.4485166 40.9217738,15.7649909 41.0274041,16.0517028 C41.1180867,16.295755 41.2635775,16.5169894 41.5017439,16.5388152 C41.5714998,16.5427836 41.636273,16.523934 41.6950673,16.488219 L42.0348779,16.33147 C42.3148979,16.2332538 42.614848,16.2411905 42.9068261,16.2411905 C42.9317389,16.2411905 42.9546587,16.3056759 42.9616343,16.33147 C42.9686099,16.3612325 42.9576482,16.4078603 42.935725,16.4267099 C42.5899352,16.7352475 42.5191829,16.5388152 42.1554559,16.6042927 C42.0308919,16.6300868 41.9322372,16.7352475 41.9143,16.8582658 C41.8993523,16.9743394 41.8276034,17.0874368 41.922272,17.1459697 C41.9402093,17.1568826 41.8206278,17.1816846 41.8206278,17.2035104 C41.8206278,17.2035104 41.8206278,17.2035104 41.8206278,17.2074788 C41.8206278,17.3166078 41.8704534,17.414824 41.7688092,17.4584756 C41.6920777,17.4912143 41.671151,17.487246 41.5964126,17.4545073 C41.5386148,17.4287132 41.5037369,17.4326815 41.4529148,17.4683965 C41.346288,17.5378422 41.3981066,17.5884384 41.3771799,17.67971 C41.3472845,17.8255461 41.3612357,17.9773347 41.4120578,18.1192025 C41.4917788,18.3513498 41.064275,18.7700086 40.8888889,18.7372699 C40.531141,18.6717924 40.1684106,18.8563198 39.8465371,19.0239817 C39.7010463,19.1033483 39.513702,19.0924354 39.389138,19.0924354 L39.387145,19.0924354 C39.303438,19.0924354 39.3831589,18.8533435 39.2775286,18.786874 C39.2556054,18.7729848 38.7005481,18.9416388 38.6776283,18.9495755 C38.651719,18.9604884 38.6228201,18.9247734 38.6008969,18.9098922 C38.5769806,18.8960031 38.5630294,18.8543356 38.5600399,18.8295335 C38.5600399,18.8295335 38.5600399,18.8176285 38.5590433,18.8176285 C38.5401096,18.6579033 37.8186348,18.6757608 38.3816642,18.0537251 L38.3836572,18.0487647 C38.4414549,17.9872556 38.4693572,17.7134408 38.4544096,17.6261376 C38.4324863,17.4842698 38.4613852,17.1082705 38.328849,17.1082705 C38.328849,17.1082705 38.328849,17.1082705 38.326856,17.1082705 C38.0328849,18.100353 37.8933732,18.0239626 37.9471849,18.4426214 C37.9830593,18.9098922 37.9770802,18.9237814 37.8036871,18.919813 C37.7329347,18.9158447 37.834579,19.0378708 37.834579,19.0924354 L37.834579,19.0964037 C36.8380668,19.0964037 37.4489287,19.0964037 37.2864973,19.1112849 C37.2157449,19.1182295 37.0423518,19.1549366 36.9995017,19.2095011 C36.9955157,19.2164457 36.939711,19.2233903 36.939711,19.2313269 C36.9446936,19.2710102 36.894868,19.3077173 36.8570005,19.3146618 C36.7284504,19.3434322 36.5999003,19.4049413 36.5032387,19.4922446 C36.2790234,19.6916532 36.1584454,19.7789564 35.9252616,19.9099113 C35.758844,20.0011829 35.6113602,20.1172565 35.4897857,20.2591243 C35.4379671,20.3166651 35.3243647,20.3831346 35.0662681,20.5279786 C35.0423518,20.5428599 35.0254111,20.5636936 35.017439,20.5934561 C35.0054808,20.6480206 34.9586447,20.6916722 34.9028401,20.6986168 C34.6706527,20.7313555 34.6048829,20.8662787 34.4713503,20.7789755 C34.4035874,20.7313555 34.3507723,21.0766002 34.367713,21.0766002 L34.369706,21.0766002 C34.3836572,21.0766002 34.3726956,21.0081465 34.3378176,21.0577506 C34.3039362,21.1053706 34.2461385,21.0398932 34.1863478,21.0438615 C34.0279023,21.0508061 33.8694569,20.9714395 33.7269557,20.8980254 C33.714001,20.8950491 33.7000498,20.8682629 33.6860987,20.8752075 C33.4549078,20.9476295 33.3183857,21.2115234 33.3761834,21.2154917 C33.7737917,21.2591434 33.7688092,21.3881141 33.9272546,21.4893065 C34.1165919,21.6093485 34.0259093,22.0686826 34.3139013,22.0686826 L34.3178874,22.0686826 C34.3547583,22.0686826 34.3836572,22.2968616 34.3906328,22.3335686 C34.3966119,22.3593628 34.3836572,22.3553944 34.3617339,22.3702757 C34.2740409,22.4278165 34.2172397,22.5032147 34.204285,22.6044071 C34.1773792,22.7968711 34.1973094,22.9962797 34.0677628,23.1589812 C34.0129547,23.228427 33.8873941,23.3544214 33.7399103,23.2968807 C33.5824614,23.2383478 33.4130543,23.2006487 33.2436472,23.192712 C32.5480817,23.1609654 32.1395117,23.0101688 31.9352267,22.9089764 C31.7857499,22.8325861 31.6013951,22.8683011 31.4917788,22.9952876 C31.4419532,22.9952876 31.3841555,22.9982639 31.3273543,23.0022322 C31.223717,23.0091768 31.1519681,23.1034246 31.1758844,23.2056091 C31.2306926,23.4308118 31.2306926,23.6589907 30.9656203,24.3316226 C30.9556552,24.360393 30.9407075,24.3941238 30.9277529,24.4189259 C30.8420528,24.5786511 30.5321375,24.8911571 30.6078724,24.9754841 C30.6158445,24.9824287 30.6287992,24.9893733 30.6407573,24.9893733 C30.7055306,24.9893733 30.7613353,25.0290566 30.7852516,25.0915578 C30.8051819,25.142154 30.8091679,25.1967185 30.7952167,25.251283 C30.772297,25.3385863 30.6776283,25.6431556 30.7154958,25.7195459 C30.737419,25.7631976 30.776283,25.7959363 30.8221226,25.8068492 C30.8888889,25.8247067 30.9347285,25.8792712 30.9935227,25.9159783 C31.0353762,25.9407803 31.1778774,25.8792712 31.2615845,25.8435562 C31.3233682,25.8177621 31.3622322,25.7999046 31.4987544,25.9596299 C31.6283009,26.1014977 31.5276532,26.4388057 31.797708,26.4467423 C31.8714499,26.4467423 31.9133034,26.3733282 31.9312407,26.3336449 C31.9511709,26.286025 31.9511709,26.286025 32.4693572,26.1739197 C32.6995516,26.1233235 32.9237668,26.2681675 33.1539611,26.1957455 C33.3313403,26.1441572 33.3403089,25.9120099 33.5206776,25.8614137 C33.6412556,25.8247067 33.7110115,25.8941524 33.8295964,25.8326433 C33.8933732,25.7959363 33.8485301,25.6034723 33.8485301,25.5449394 C33.8485301,25.5449394 33.8485301,25.5449394 33.8485301,25.5419632 C33.8485301,25.4506916 34.0538117,25.3058476 34.0119581,25.1709244 C33.9920279,25.1054469 34.0239163,25.0875894 34.0338814,25.0399695 C34.044843,24.9854049 34.2291978,24.8881809 34.3278525,24.6659544 C34.3348281,24.6480969 34.3527653,24.6302394 34.36572,24.6153582 C34.6836074,24.3276543 35.1170902,24.2592006 35.4788241,24.0558237 C35.7947185,23.8742726 35.5744893,23.3871602 35.9491779,23.2383478 C36.2939711,23.1034246 36.5520678,23.5796242 36.9078226,23.3762473 C37.2855007,23.1659258 37.7558545,22.8970714 37.8535127,22.8931031 C37.9561535,22.8861585 38.0498256,22.9149289 38.1275536,22.9476677 C38.2461385,23.0022322 38.3467862,23.0895354 38.4165421,23.2026328 C38.7593423,23.7502623 39.4110613,23.9834017 39.8086697,24.4734904 C39.8704534,24.5459124 40.1704036,24.7244873 40.2869955,24.8336163 C40.4723468,25.0072308 40.3667165,24.782028 40.527155,25.0627874 L40.531141,25.0657636 C40.6078724,25.1897739 40.7503737,25.4030716 40.6188341,25.4586283 C40.527155,25.4983116 40.527155,25.5270819 40.527155,25.5568444 C40.527155,25.6292664 40.4693572,25.6937518 40.5122073,25.7671659 C40.527155,25.7889917 40.5710015,25.8505008 40.6736423,25.8038729 C40.7902342,25.7453401 40.7463876,25.7235143 40.7942202,25.6292664 C40.9108122,25.4000954 40.9068261,25.3852142 40.9028401,25.3852142 C40.9427005,25.3564438 41.0164425,25.3822379 41.0303936,25.3127921 C41.0592925,25.1490985 40.9466866,25.094534 40.8709517,25.0627874 C40.8261086,25.0369932 40.735426,24.9963178 40.7902342,24.8584184 C40.7902342,24.8554421 40.7902342,24.8514738 40.7942202,24.8475055 C40.7942202,24.8475055 40.7942202,24.8445292 40.7972098,24.8445292 C40.8520179,24.7205189 40.9945192,24.6659544 41.1180867,24.7205189 C41.2097658,24.757226 41.2795217,24.7750835 41.3114101,24.8693313 C41.3193822,24.8881809 41.3223717,24.90207 41.3223717,24.9169513 C41.3193822,24.9566346 41.3193822,24.9933416 41.3383159,25.0111991 C41.3592427,25.0330249 41.6043847,25.0151674 41.630294,24.9715158 C41.6442451,24.9457216 41.8206278,24.8623867 41.8206278,24.8365926 L41.8206278,25.0449299 L41.4718485,25.0449299 C41.4718485,25.0449299 41.4838067,24.9278642 41.4838067,24.9248879 C41.2575984,24.5786511 40.8480319,24.4973004 40.527155,24.3157493 C40.4912805,24.2939235 40.4753363,24.2314223 40.4693572,24.191739 C40.4623817,24.1113803 40.3956153,24.0399504 40.3158944,24.0399504 C40.118585,24.0439187 39.9362232,23.938758 39.8196313,23.7790327 L39.1479821,22.7988553 C39.1200797,22.7581799 39.0951669,22.7125441 39.0692576,22.6688925 C39.0254111,22.5895259 39.0632785,22.4913097 39.145989,22.4625393 C39.1509716,22.458571 39.1549576,22.4575789 39.1619332,22.4536106 C39.2924763,22.4178956 39.431988,22.4674998 39.507723,22.5805972 C39.5435974,22.6351617 39.5784753,22.7006391 39.6472347,22.6966708 C39.7319382,22.6897262 39.7050324,22.7145283 39.7708022,22.7621482 L40.8241156,23.60145 L40.8241156,23.6054183 C40.8241156,23.6054183 41.0264076,23.6232758 41.1748879,23.7214919 C41.2087693,23.7433178 41.2984554,23.7542307 41.3353264,23.7542307 C41.3931241,23.7502623 41.4778276,23.7691119 41.5226707,23.8048269 C41.6980568,23.9466946 41.8276034,24.1500715 41.8495267,24.3713059 C41.8634778,24.4734904 41.8784255,24.564762 41.881415,24.6302394 C41.8883906,24.7135744 41.9362232,24.7899647 42.0069756,24.8365926 C42.0358744,24.8584184 42.0767314,24.8881809 42.0976582,24.9129829 C42.1275536,24.9427454 42.1315396,24.94969 42.1863478,25.0399695 C42.2052815,25.0766765 42.3437967,25.1967185 42.3557549,25.2076314 C42.3597409,25.2076314 42.3597409,25.1203282 42.3597409,25.1203282 C42.3627304,25.1242965 42.3776781,25.0449299 42.4025909,25.0449299 L42.406577,25.0449299 C42.447434,25.0449299 42.4872945,25.1173519 42.527155,25.1203282 C42.651719,25.1282648 42.8400598,25.2502909 42.9865471,25.1808452 C42.9985052,25.1739006 43.1479821,25.0449299 43.1479821,25.0449299 L43.1509716,25.0449299 C43.5017439,25.0449299 43.0672646,24.8008776 43.0523169,24.6451207 C43.0483308,24.5865878 43.0712506,24.5826195 43.1111111,24.5578174 C43.1479821,24.5320233 43.1908321,24.5627778 43.2386647,24.5846036 C43.264574,24.5955166 43.2964624,24.6024611 43.3233682,24.6024611 C43.348281,24.6024611 43.3662182,24.540952 43.3741903,24.5082133 C43.4140508,24.3266622 43.5994021,24.2671373 43.7907324,24.2671373 C43.9431988,24.2671373 44.0956652,24.3088047 44.2311908,24.3812267 C44.2869955,24.4139655 44.3517688,24.4258705 44.4145491,24.4258705 C44.5341305,24.4258705 44.6507225,24.1590003 44.7453911,24.0905466 C44.7892377,24.0568158 44.6875934,24.0528475 44.4613852,24.0528475 L44.4544096,24.0528475 C44.3587444,24.0528475 44.3079223,24.4030526 44.3298455,24.5052371 C44.3736921,24.7046456 44.9456901,25.010207 44.6686597,25.2681484 C44.6686597,25.2721168 44.8101644,25.3822379 44.8101644,25.3822379 C44.8101644,25.3822379 44.8101644,25.3822379 44.8101644,25.3852142 C44.8101644,25.4467233 44.9427005,25.5568444 45.0264076,25.6937518 C45.303438,26.1590384 46.1624315,26.3078508 46.2421525,26.1084422 C46.2421525,26.1084422 46.2052815,26.1084422 46.2092676,26.1044739 C46.2501246,25.9993132 46.3517688,25.9447486 46.4573991,25.9884003 C46.6696562,26.0687589 46.8500249,26.2245159 47.099153,26.2026901 C47.2376682,26.1878088 47.3343298,26.1382047 47.4150473,26.0647906 C47.6452417,25.8683583 47.9302441,25.7274826 48.2301943,25.7274826 C48.2331839,25.7274826 48.2361734,25.7274826 48.2361734,25.7304588 C48.2361734,25.7304588 48.2391629,25.7344272 48.2361734,25.7374034 C48.0857,26.6243251 49.0772297,27.6094629 48.0996512,28.4120576 C48.0239163,28.4775351 47.8844046,28.5063054 47.7857499,28.5241629 C46.9028401,28.680912 46.0089686,28.8237718 45.1250623,28.8813126 C44.614848,28.9180197 44.5381166,29.0132596 44.3806677,29.0132596 L44.3766816,29.0132596 L44.3736921,29.0132596 C44.1993024,29.0132596 44.165421,28.7364686 43.9073244,28.6779357 C43.7458894,28.6422207 43.3233682,27.8892302 42.7394121,28.3614614 C42.5710015,28.4953925 42.4683607,28.6005533 42.4763328,28.7027378 C42.5480817,30.1521702 40.7543597,29.0529429 40.6218236,28.8932176 C40.4175386,28.6501574 40.1434978,28.452733 39.8375685,28.3654297 C39.5017439,28.2672136 39.0951669,28.128322 38.8380668,27.9943909 C38.6437469,27.8931985 38.40857,27.8277211 38.3089188,27.8237527 C38.2720478,27.8158161 38.2561036,27.6402175 38.3647235,27.5271201 C38.6547085,27.23644 38.7443946,27.1193742 38.6527155,26.9636173 C38.410563,26.5598397 38.5690085,26.5925785 38.3577479,26.3197558 C38.3557549,26.3197558 38.3557549,26.3157875 38.3557549,26.3157875 C38.2790234,26.2175713 38.1604385,26.1669751 38.038864,26.1739197 C34.4145491,26.4030907 33.6332835,26.5082515 32.9177877,26.8495278 C32.856004,26.8792903 32.7264574,26.9407994 32.5241654,26.8534961 C32.369706,26.7840504 32.1963129,26.7771058 32.0358744,26.8316703 C31.799701,26.6788896 31.4937718,26.6937709 31.2765321,26.8713536 L30.0956652,27.8237527 C29.9750872,27.9209768 29.8714499,28.0380425 29.7887394,28.1680053 C29.5754858,28.5023371 29.5276532,28.7245636 29.5336323,28.8446056 C29.5535625,29.2156444 28.8659691,29.9765716 27.8694569,29.8208147 L27.8694569,29.8763713 C27.8694569,29.981532 27.428002,30.0757798 26.1136024,31.8962511 C25.3941206,32.8992464 25.4150473,32.8992464 25.5615346,33.1750453 C25.6402591,33.3238577 25.8106627,33.628427 25.6900847,34.4568158 C25.6831091,34.5123724 25.6781266,34.5669369 25.6651719,34.6205094 C25.6591928,34.6463035 25.6542103,34.6720977 25.6472347,34.6978918 L25.143996,36.3685586 C25.0014948,36.8338453 25.0951669,37.3427836 25.3931241,37.7306878 C25.3941206,37.7346561 25.3971101,37.7346561 25.3971101,37.7386244 L25.5087195,37.9449776 C25.5256602,37.9777163 25.5455904,38.0134313 25.5595416,38.0501383 C25.6671649,38.2931985 25.8186348,39.659296 26.2242152,40.2803396 C26.287992,40.3795478 26.3627304,40.4668511 26.4464375,40.550186 L27.7229696,41.8002099 C27.9481814,42.0214442 28.3946188,42.1702566 28.7035376,42.2277974 C29.6153463,42.4024039 30.5849527,42.4103406 31.4828102,42.7486407 C31.5246637,42.7664981 31.5844544,42.788324 31.630294,42.788324 C32.6696562,42.8567776 33.5226707,41.9996184 34.5281515,41.9271964 C34.7653214,41.9123152 35.2466368,42.0650959 35.3692078,42.7664981 C35.4578974,43.2903177 36.2690583,43.1226557 36.649726,43.0125346 C36.8231191,42.9619384 36.8390633,42.969875 37.0054808,43.0393208 C37.0064773,43.0393208 36.8380668,43.0422971 36.8380668,43.0422971 L36.8380668,43.0462654 C36.8380668,43.1583707 37.1220727,43.2426977 37.2346786,43.234761 C37.2386647,43.2317848 37.3263577,43.2317848 37.3263577,43.2317848 C37.3961136,43.2238481 37.5625311,43.2565869 37.5984056,43.3111514 C37.8066766,43.6236573 37.834579,43.8270342 37.834579,43.9758466 L37.834579,43.9798149 L37.840558,43.9837833 L37.834579,44.0343795 L37.834579,44.041324 C37.834579,44.0780311 37.754858,44.1177144 37.7488789,44.1544214 C37.6432486,44.9242774 37.6761335,45.280435 37.3173891,45.5671468 C37.2795217,45.5998855 37.2326856,45.6365926 37.2117588,45.6842125 C37.6013951,46.4758943 38.4374689,46.8757035 38.4374689,46.8757035 C38.5600399,47.0066584 39.2864973,48.2596585 39.3632287,48.8122484 C39.4818137,49.6515501 39.4798206,49.4918249 39.5017439,49.5275398 C39.8724464,50.1337022 39.5465869,50.4214061 39.3203787,50.5374797 C39.2506228,50.5702184 39.2167414,50.5989888 39.1958146,50.6356959 C39.1619332,50.7011733 39.1549576,50.7706191 39.1131041,50.8311361 C39.0742402,50.8827244 38.6437469,52.1367166 38.6437469,52.3976343 C38.6437469,52.6367261 39.0094669,52.8658972 39.1479821,53.0583612 L40.0308919,54.3054088 C40.0458396,54.3272346 40.0538117,54.3480683 40.0667663,54.3708862 C40.3776781,54.7587904 39.8953662,55.307412 40.1733931,55.7002766 C40.2650722,55.8272632 40.4833084,56.3401698 40.5999003,56.4195364 C40.7832586,56.5435467 41.5426009,57.6407899 41.3153961,57.8253172 C41.2934728,57.8431747 41.2934728,57.8977392 41.3044345,57.9265096 C41.3741903,58.123934 42.2939711,58.4324716 42.6357748,58.2906038 C43.14001,58.0723457 44.202292,57.9056759 44.6367713,57.9096442 C45.2316891,57.9126204 48.1106129,55.7022608 47.8844046,54.993914 C47.877429,54.9879615 47.877429,54.8074025 47.877429,54.8074025 L47.8804185,54.8074025 C48.2162431,54.8074025 48.7962133,54.2399313 48.7962133,54.1923114 L48.7962133,54.1893351 C48.7962133,53.9095679 49.1519681,53.6764285 49.1519681,53.4919012 C49.1599402,52.9938758 49.4917788,52.5246208 49.8943697,52.226004 C50.2401594,51.973023 50.7872446,51.6128971 51.5236672,51.0791567 C51.9840558,50.7478012 52.2401594,50.5116856 52.200299,49.084079 C52.1674141,47.772546 51.9412058,46.748717 51.8654709,46.5264905 C51.7518685,46.2179529 51.7907324,46.15942 51.9143,45.9312411 C52.2830095,45.2506725 52.7862481,44.6524468 53.14001,43.9609654 C53.7020429,42.8647143 54.3936223,42.2178766 54.7732935,41.8686636 C54.7872446,41.8537823 54.8061784,41.8398932 54.8211261,41.8210436 C55.5037369,41.0234093 55.8983558,39.9440237 56.1464873,38.9301154 C56.2012955,38.7148335 56.285999,38.5114566 56.3507723,38.3011352 C56.3946188,38.1414099 56.4673642,38.0035104 56.5480817,37.1751216 C56.5620329,37.0372222 56.486298,36.9102356 56.4932735,36.7673758 C56.5261584,36.2237146 56.3358246,36.7028904 56.1753861,36.782257 C55.7668161,36.974721 55.9900349,36.9062673 55.8106627,37.0223409 C55.7229696,37.0729371 55.0662681,37.3050844 54.9855506,37.3814748 C54.8908819,37.4658018 54.8031888,37.5640179 54.6716492,37.5779071 C53.8545092,37.6800916 53.715994,37.6979491 53.5705032,37.5669942 C53.4349776,37.443976 53.3472845,37.2872269 53.3143996,37.1056759 C53.2745391,36.9171802 53.1748879,36.7386054 53.0293971,36.6046742 C52.2571001,35.8814462 50.7304434,35.4131832 50.369706,33.4548126 C50.3139013,33.1601641 48.1474838,29.9646666 47.7020429,29.3356863 C47.6552068,29.2662406 47.636273,29.0132596 47.6571998,29.0132596 L47.6611858,29.0132596 C47.7448929,29.0132596 48.081714,29.6878756 48.285999,29.8991892 C48.3447932,29.9606983 48.4285002,30.0261757 48.4972596,29.9745874 C48.5779771,29.9160546 48.5231689,29.8446246 48.5411061,29.5579128 C48.5411061,29.4785462 48.6616841,29.4815225 48.6766318,29.5608891 C48.7055306,29.7384718 48.7892377,29.9071258 48.9207773,30.0341124 C49.2127554,30.3109034 49.5595416,30.8257941 49.7887394,31.184928 C49.9322372,31.4071544 50.1255605,31.5857293 50.3507723,31.7166842 C50.6806178,31.9022036 50.7812656,32.2037966 51.0154459,32.9200801 C51.2934728,33.7702948 52.2929746,33.9736717 52.6616841,34.7405514 C52.9715994,35.386397 53.058296,36.1254984 53.4539113,36.7386054 C53.4569008,36.7425737 53.4608869,36.746542 53.4608869,36.7495183 C53.511709,36.818964 53.5994021,36.8517028 53.6831091,36.8338453 C54.2850025,36.6919775 54.9855506,35.9389869 55.1609367,35.8050558 C55.5266567,35.5213202 55.7897359,35.3080225 55.9860488,35.1482972 C56.2491281,34.9260708 56.4314898,34.6244777 56.5112108,34.290146 C56.5779771,34.0064104 57.0114599,33.7593819 57.1390135,33.7593819 C57.4788241,33.7564056 57.3283508,33.3198893 57.466866,33.1244491 C57.6173393,32.9210722 57.6283009,32.6879328 57.8036871,32.5063818 C57.8545092,32.4448727 57.920279,32.3972527 57.9930244,32.364514 C58,32.3615377 58.0079721,32.3536011 58.0079721,32.3426882 C58.0508221,32.1254221 57.9123069,32.1095488 57.9123069,31.8912907 C57.9123069,31.8377182 57.9671151,31.9895068 58.0219233,31.9895068 L57.7648231,31.9895068 L57.7648231,31.6125155 C57.7648231,30.9339311 58.247135,30.3585233 57.6452417,30.0757798 C57.4090683,29.9626824 57.18286,30.1412573 56.9626308,29.9487933 C56.9596413,29.9487933 56.9895366,29.9487933 56.9895366,29.945817 C56.8659691,29.8396642 56.5002491,29.7999809 56.3408072,29.8287513 C56.1793722,29.86149 56.7683109,29.9666508 55.7717987,30.1114948 L55.7717987,30.1154631 C55.7717987,30.2424497 55.8096662,30.3337213 55.6701545,30.3555471 C55.4449427,30.3882858 55.5804684,30.3773729 55.4090683,30.5628923 C55.0433483,30.3773729 54.7832586,30.3486025 53.4887892,28.4299151 C53.105132,27.8554994 53.7787743,27.5648192 53.7787743,27.7761328 L53.7787743,28.0211771 L53.9531639,28.0211771 C54.1136024,28.0211771 54.7673144,28.7622627 55.2994519,29.0559191 C55.4818137,29.1581036 56.0298954,29.2295335 56.1275536,29.0479824 C56.4962631,28.3753506 56.7633284,28.8317085 56.8141505,28.9408375 C57.0871948,29.5142612 57.8435476,28.9973862 58.0149477,29.0082992 C58.3796712,29.0271487 58.3507723,28.9428217 59.4020927,28.3465802 C59.8246139,28.1104646 60.324863,28.0707813 60.7732935,28.2453878 C60.7952167,28.2523323 60.81714,28.2612611 60.8400598,28.272174 C61.595416,30.7027759 62,33.2851665 62,35.9588286 C62,50.3420395 50.2889885,62 35.8415546,62 Z M39.058049,26.304 C39.083771,26.307 39.1068321,26.285 39.1334411,26.285 C39.2079462,26.278 39.4527486,26.468 39.5343494,26.509 C39.5627323,26.52 39.5884543,26.524 39.6150633,26.542 C39.6638464,26.574 39.699325,26.626 39.751656,26.655 C39.7685083,26.662 39.7968912,26.681 39.8368046,26.67 C39.8651875,26.666 39.9077619,26.655 39.9529971,26.49 C39.9725104,26.424 39.9006662,26.388 39.9077619,26.325 C39.9175185,26.231 39.9858148,26.161 39.9982323,26.069 C40.0044411,26.026 39.9946845,26.003 39.9627537,26 C39.9592059,26 39.9529971,26 39.9467884,26.003 C39.9263881,26.007 39.9077619,26.022 39.8847008,26.026 C39.8164044,26.032 39.8226132,25.996 39.7614126,26.036 C39.7294818,26.058 39.699325,26.084 39.6638464,26.095 C39.6283678,26.102 39.59555,26.076 39.5627323,26.08 C39.5112883,26.088 39.4846794,26.143 39.4332354,26.143 C39.3684869,26.139 39.3223647,26.073 39.2576162,26.062 C39.2185897,26.051 39.1964156,26.102 39.1573891,26.099 C39.1183626,26.095 39.1298932,26.08 39.0970755,26.066 C39.0482924,26.047 38.9906396,26.249 39.0012832,26.271 C39.0163616,26.3 39.0403097,26.304 39.0553881,26.304 L39.058049,26.304 Z" id="Fill-1" sketch:type="MSShapeGroup"></path>
        </g>
    </g>
</svg>