<svg   xmlns="http://www.w3.org/2000/svg" ><title>logotype</title><path d="M11.361.137c1.185 0 2.23.617 2.858 1.645l8.782 15.218h-1.533c-1.812 0-3.485-1.028-4.321-2.605l-5.924-10.968v-.069l-3.973 7.06h4.182c.279 0 .558 0 .836.069 1.255.206 2.509 1.371 2.439 3.085h-8.991l-.418.754c-.836 1.645-2.509 2.605-4.252 2.605h-1.045l8.573-15.218c.558-1.028 1.673-1.714 2.858-1.714l-.07.137zm84.424-.137c0 1.652-1.291 2.96-2.94 2.96h-10.757v3.923h5.092c1.649 0 2.94 1.308 2.94 2.96h-8.032v4.061h10.9c1.649 0 3.012 1.308 3.012 2.96v.138h-14.988c-1.649 0-3.012-1.308-3.012-2.96v-11.012c0-1.652 1.363-2.96 3.012-2.96h14.773v-.069zm-33.742 14.996c0 1.106-.932 2.004-2.007 2.004-1.147 0-2.007-.898-2.007-2.004v-11.886h-5.018c-1.649 0-3.011-1.313-3.011-2.972v-.138h20v.138c0 1.659-1.362 2.972-3.011 2.972h-5.018v11.886h.072zm44.957-1.106h10c1.643 0 3 1.313 3 2.972v.138h-14c-1.643 0-3-1.313-3-2.972v-14.028h1c1.643 0 3 1.313 3 2.972v10.919zm-72 .013h10c1.643 0 3 1.308 3 2.96v.138h-14c-1.643 0-3-1.308-3-2.96v-14.04h1c1.643 0 3 1.308 3 2.96v10.943000000000001z" fill="#56565C"/></svg>