<svg width="702" height="423" viewBox="0 0 702 423" xmlns="http://www.w3.org/2000/svg" xmlns:sketch="http://www.bohemiancoding.com/sketch/ns"><title>maestro-active</title><path d="M237.592 223.127c1.928 0 3.221.047 6.118.35-.644 13.184-8.371 22.336-19.315 22.336-6.118 0-9.659-3.563-9.659-9.106 0-9.015 7.722-13.58 22.856-13.58zm253.996-223.127c115.997 0 209.895 94.622 209.89 211.35 0 116.373-93.892 210.991-209.894 210.991-54.015 0-103.684-20.667-140.663-54.741-37.342 34.073-86.644 54.741-141.022 54.741-115.644 0-209.899-94.617-209.899-210.991 0-116.732 94.255-211.35 209.899-211.35 54.379 0 103.685 21.026 141.022 54.741l-.09.085c-2.514 2.305-4.885 4.758-7.283 7.182 2.427-2.453 4.83-4.936 7.377-7.265 36.975-34.079 86.647-54.742 140.663-54.742v-.001zm-151.699 65.614c-3.533 3.743-6.937 7.616-10.206 11.606h.004c3.27-3.99 6.669-7.864 10.203-11.606h-.001zm-191.135 197.607h27.034l21.243-109.743h-43.781l-29.942 67.976-1.926-67.976h-42.163l-20.919 109.743h24.461l16.09-83.84 4.504 83.84h24.46l37.027-84.369-16.089 84.369h.001zm122.625-47.392c1.608-9.933 1.928-13.284 1.937-17.668 0-17.106-12.236-26.164-35.409-26.164-9.979 0-18.666 1.271-32.183 4.706l-3.546 20.09 2.248-.575 3.861-.97c5.794-1.539 14.481-2.461 22.212-2.461 12.552 0 17.382 2.196 17.382 8.088 0 1.622-.32 2.855-.964 5.799-4.182-.435-8.039-.696-10.94-.696-29.935 0-47.317 12.688-47.317 34.423 0 14.422 9.975 24.353 24.461 24.353 12.25 0 21.577-3.425 28.339-10.759l-.649 9.229h22.536l.307-2.419.32-3.072.644-4.531.964-5.666 5.794-31.71.003.003zm56.656 28.841c-15.45 0-23.497-5.277-23.497-15.611 0-.833 0-1.447.32-2.812h53.427c2.262-9.053 3.23-15.465 3.23-22.067 0-19.785-14.165-32.406-36.373-32.406-27.038 0-46.989 22.553-46.989 53.154 0 26.292 15.769 40.013 46.024 40.013 9.339 0 18.355-1.191 27.37-3.611l4.489-22.335c-9.651 3.908-18.338 5.675-28.002 5.675h.001zm103.007-50.267l3.848-20.668c-7.079-.964-17.699-1.762-24.133-1.762-30.255.008-40.875 13.727-40.875 30.216 0 11.252 6.433 19.033 20.919 24.879 10.94 4.446 12.556 5.764 12.556 9.856 0 5.542-4.829 8.047-15.453 8.047-8.371 0-15.774-1.105-24.462-3.523l-3.856 20.581 1.28.214 4.83.879c1.609.32 4.186.576 7.403.802 6.438.483 11.267.742 14.809.742 28.967 0 42.168-9.407 42.168-29.763 0-12.267-5.465-19.435-19.315-24.849-11.259-4.522-12.561-5.538-12.561-9.715 0-4.792 4.514-7.255 13.201-7.255 5.474 0 12.561.493 19.639 1.32l.002-.001zm42.169 48.819c-6.439 0-9.332-1.975-9.327-6.597 0-.836 0-2.06.324-3.694l7.078-37.24h13.841l3.856-21.721h-13.831l3.857-20.488h-26.718l-12.561 68.151-1.284 7.074-1.609 8.764c-.32 2.813-.64 5.49-.64 8 0 12.664 7.403 19.605 21.244 19.605 6.118 0 11.916-.878 19.319-2.896l3.533-19.798c-1.923.577-4.18.841-7.082.841v-.001zm65.988-44.146c.968 0 1.933.081 3.217.226l3.226.653 9.655-25.237c-2.253-.88-2.577-.88-2.893-.97-1.293-.306-2.261-.481-2.261-.528-.96-.134-1.929-.222-2.897-.222-8.686 0-15.125 3.959-23.492 14.515l2.573-13.547h-24.465l-16.418 89.255h27.034c9.664-54.562 13.841-64.145 26.722-64.145h-.001zm100.758 12.612c0-22.639-14.81-40.27-42.808-40.27-32.196 0-53.115 21.454-53.115 53.071 0 22.642 12.233 41.151 42.816 41.151 27.674 0 48.281-13.187 52.467-42.858.64-5.193.64-5.551.64-11.094zm-43.452-18.505c10.94 0 14.801 8.832 14.801 18.159 0 3.869-.32 7.429-.96 10.68-2.249 13.901-14.797 21.853-20.591 21.853-9.664.189-15.458-7.951-15.458-20.086 0-14.341 8.367-30.605 22.208-30.605v-.001zm-259.128 10.463c0 1.19 0 2.684.005 4.578l-29.935-.047c2.568-10.337 8.687-16.009 17.378-16.009 8.051 0 12.553 4.224 12.553 11.478h-.001z" fill="#ED0088" sketch:type="MSShapeGroup"/></svg>